<svg width="88" height="88" viewBox="0 0 88 88" fill="none" xmlns="http://www.w3.org/2000/svg">
<path d="M70.3397 30.0003L78 25.5776L85.6603 30.0003V38.8456L78 43.2682L70.3397 38.8456V30.0003Z" stroke="#6CC8C5" stroke-width="2"/>
<path d="M78 30.4229L81.4641 32.4229V36.4229L78 38.4229L74.5359 36.4229V32.4229L78 30.4229Z" fill="#6CC8C5"/>
<path d="M2.33972 50.0003L9.99997 45.5776L17.6603 50.0003V58.8456L9.99997 63.2682L2.33972 58.8456V50.0003Z" stroke="#6CC8C5" stroke-width="2"/>
<path d="M9.99999 50.4229L13.4641 52.4229V56.4229L9.99999 58.4229L6.53589 56.4229V52.4229L9.99999 50.4229Z" fill="#6CC8C5"/>
<path d="M28.6796 35.5777L44.0001 26.7324L59.3206 35.5777V53.2683L44.0001 62.1136L28.6796 53.2683V35.5777Z" stroke="#1DB2AD" stroke-width="4"/>
<path d="M44 36.4229L50.9282 40.4229V48.4229L44 52.4229L37.0718 48.4229V40.4229L44 36.4229Z" fill="#1DB2AD"/>
</svg>
