<svg width="64" height="64" viewBox="0 0 64 64" fill="none" xmlns="http://www.w3.org/2000/svg">
<path opacity="0.15" d="M32 64C49.6731 64 64 49.6731 64 32C64 14.3269 49.6731 0 32 0C14.3269 0 0 14.3269 0 32C0 49.6731 14.3269 64 32 64Z" fill="#849CFE"/>
<path d="M30 25.9994V23.9994H18C16.898 23.9994 16 24.8974 16 25.9994V29.9994H30.422C30.144 28.7774 30 27.4614 30 25.9994Z" fill="#6583FE"/>
<path d="M47.918 33.9994C46.554 36.1014 44.474 37.8894 41.494 39.6014C41.036 39.8634 40.52 39.9994 40 39.9994C39.48 39.9994 38.964 39.8634 38.512 39.6054C35.532 37.8894 33.452 36.0994 32.086 33.9994H16V43.9994C16 45.1034 16.898 45.9994 18 45.9994H46C47.104 45.9994 48 45.1034 48 43.9994V33.9994H47.918ZM25 39.9994H21C20.448 39.9994 20 39.5514 20 38.9994C20 38.4474 20.448 37.9994 21 37.9994H25C25.552 37.9994 26 38.4474 26 38.9994C26 39.5514 25.552 39.9994 25 39.9994Z" fill="#6583FE"/>
<path d="M47.394 21.0815L40.394 18.0815C40.14 17.9735 39.858 17.9735 39.604 18.0815L32.604 21.0815C32.238 21.2375 32 21.5995 32 21.9995V25.9995C32 31.5015 34.034 34.7176 39.502 37.8675C39.656 37.9555 39.828 37.9995 40 37.9995C40.172 37.9995 40.344 37.9555 40.498 37.8675C45.966 34.7255 48 31.5096 48 25.9995V21.9995C48 21.5995 47.762 21.2375 47.394 21.0815ZM43.782 25.6255L39.782 30.6255C39.59 30.8615 39.302 30.9995 39 30.9995C38.986 30.9995 38.97 30.9995 38.958 30.9995C38.64 30.9855 38.346 30.8215 38.168 30.5555L36.168 27.5555C35.862 27.0955 35.986 26.4755 36.446 26.1695C36.902 25.8656 37.524 25.9855 37.832 26.4475L39.074 28.3095L42.218 24.3775C42.564 23.9475 43.194 23.8795 43.624 24.2215C44.056 24.5635 44.124 25.1935 43.782 25.6255Z" fill="#849CFE"/>
</svg>
