<svg width="64" height="64" viewBox="0 0 64 64" fill="none" xmlns="http://www.w3.org/2000/svg">
<path opacity="0.15" d="M32 64C49.6731 64 64 49.6731 64 32C64 14.3269 49.6731 0 32 0C14.3269 0 0 14.3269 0 32C0 49.6731 14.3269 64 32 64Z" fill="#849CFE"/>
<path d="M27 27.4744C26.9989 29.4342 27.6775 31.3338 28.92 32.8494L35 26.7694V18.9894C32.8369 19.1192 30.8047 20.0694 29.3181 21.6462C27.8315 23.2229 27.0025 25.3074 27 27.4744Z" fill="#849CFE"/>
<path d="M35.7054 27.4744L29.6004 33.5794C30.7985 34.7411 32.3124 35.5239 33.9529 35.83C35.5934 36.1362 37.2878 35.952 38.8243 35.3007C40.3607 34.6493 41.6711 33.5595 42.5917 32.1675C43.5123 30.7756 44.0023 29.1432 44.0004 27.4744H35.7054Z" fill="#849CFE"/>
<path d="M26 27.4744C26.0042 25.3926 26.6913 23.3698 27.9557 21.7161C29.2201 20.0624 30.9922 18.8691 33 18.3194V16.9744H22V20.4744C22 20.607 21.9473 20.7342 21.8536 20.8279C21.7598 20.9217 21.6326 20.9744 21.5 20.9744H18V44.9744H33V36.6294C30.9922 36.0796 29.2201 34.8864 27.9557 33.2327C26.6913 31.5789 26.0042 29.5561 26 27.4744ZM20 22.9744H25V23.9744H20V22.9744ZM20 25.9744H25V26.9744H20V25.9744ZM20 28.9744H25V29.9744H20V28.9744ZM20 31.9744H25V32.9744H20V31.9744ZM25.5 43.9744C24.61 43.9744 23.74 43.7104 22.9999 43.216C22.2599 42.7215 21.6831 42.0187 21.3425 41.1964C21.0019 40.3742 20.9128 39.4694 21.0865 38.5965C21.2601 37.7235 21.6887 36.9217 22.318 36.2924C22.9474 35.663 23.7492 35.2345 24.6221 35.0608C25.495 34.8872 26.3998 34.9763 27.2221 35.3169C28.0443 35.6575 28.7471 36.2343 29.2416 36.9743C29.7361 37.7143 30 38.5843 30 39.4744C29.9981 40.6673 29.5234 41.8108 28.6799 42.6543C27.8364 43.4978 26.6929 43.9725 25.5 43.9744Z" fill="#6583FE"/>
<path d="M25.5 35.9744C24.8077 35.9744 24.1311 36.1796 23.5555 36.5642C22.9799 36.9488 22.5313 37.4954 22.2664 38.135C22.0015 38.7745 21.9322 39.4782 22.0672 40.1572C22.2023 40.8361 22.5356 41.4598 23.0251 41.9492C23.5146 42.4387 24.1382 42.7721 24.8172 42.9071C25.4961 43.0422 26.1998 42.9728 26.8394 42.7079C27.4789 42.443 28.0255 41.9944 28.4101 41.4189C28.7947 40.8433 29 40.1666 29 39.4744C28.9989 38.5464 28.6298 37.6568 27.9737 37.0007C27.3175 36.3445 26.4279 35.9754 25.5 35.9744ZM25.5 38.9744C25.8517 38.9771 26.1914 39.1034 26.4595 39.3311C26.7276 39.5589 26.9071 39.8736 26.9667 40.2203C27.0262 40.567 26.9621 40.9236 26.7854 41.2278C26.6087 41.532 26.3307 41.7644 26 41.8844V42.4744H25V41.8844C24.7086 41.7806 24.4563 41.5895 24.2774 41.3372C24.0984 41.085 24.0016 40.7837 24 40.4744H25C25 40.5733 25.0293 40.6699 25.0842 40.7521C25.1392 40.8344 25.2173 40.8985 25.3086 40.9363C25.4 40.9741 25.5005 40.984 25.5975 40.9648C25.6945 40.9455 25.7836 40.8978 25.8535 40.8279C25.9235 40.758 25.9711 40.6689 25.9904 40.5719C26.0097 40.4749 25.9998 40.3744 25.9619 40.283C25.9241 40.1917 25.86 40.1136 25.7778 40.0586C25.6955 40.0037 25.5989 39.9744 25.5 39.9744C25.1482 39.9716 24.8086 39.8454 24.5405 39.6176C24.2724 39.3899 24.0928 39.0751 24.0333 38.7284C23.9737 38.3817 24.0379 38.0251 24.2146 37.7209C24.3913 37.4167 24.6693 37.1844 25 37.0644V36.4744H26V37.0644C26.2913 37.1681 26.5437 37.3592 26.7226 37.6115C26.9015 37.8638 26.9984 38.1651 27 38.4744H26C26 38.3755 25.9707 38.2788 25.9157 38.1966C25.8608 38.1144 25.7827 38.0503 25.6913 38.0124C25.6 37.9746 25.4994 37.9647 25.4024 37.984C25.3054 38.0033 25.2163 38.0509 25.1464 38.1208C25.0765 38.1907 25.0289 38.2798 25.0096 38.3768C24.9903 38.4738 25.0002 38.5743 25.038 38.6657C25.0759 38.7571 25.14 38.8352 25.2222 38.8901C25.3044 38.945 25.4011 38.9744 25.5 38.9744Z" fill="#6583FE"/>
<path d="M20.9997 17.6793L18.7047 19.9743H20.9997V17.6793Z" fill="#6583FE"/>
<path d="M38 16.9888V24.4743H45.941C45.7078 22.4924 44.7842 20.6559 43.3321 19.2871C41.88 17.9183 39.9922 17.1046 38 16.9888Z" fill="#849CFE"/>
<path d="M36 38.9744H38V39.9744H36V38.9744Z" fill="#6583FE"/>
<path d="M39 38.9744H47V39.9744H39V38.9744Z" fill="#6583FE"/>
<path d="M36 41.9744H38V42.9744H36V41.9744Z" fill="#6583FE"/>
<path d="M39 41.9744H47V42.9744H39V41.9744Z" fill="#6583FE"/>
<path d="M36 44.9744H38V45.9744H36V44.9744Z" fill="#6583FE"/>
<path d="M39 44.9744H47V45.9744H39V44.9744Z" fill="#6583FE"/>
</svg>
