<svg width="64" height="64" viewBox="0 0 64 64" fill="none" xmlns="http://www.w3.org/2000/svg">
<path opacity="0.15" d="M32 64C49.6731 64 64 49.6731 64 32C64 14.3269 49.6731 0 32 0C14.3269 0 0 14.3269 0 32C0 49.6731 14.3269 64 32 64Z" fill="#849CFE"/>
<g clip-path="url(#clip0)">
<path d="M21.0625 22.0369H31.9375C31.9375 20.8785 31.9375 17.2139 31.9375 15.9119C31.9375 15.3941 31.5177 14.9744 31 14.9744H22C21.4822 14.9744 21.0625 15.3941 21.0625 15.9119V22.0369Z" fill="#6583FE"/>
<path d="M38.8125 28.0369H48V26.8494C48 25.2986 46.7383 24.0369 45.1875 24.0369H38.8125V28.0369Z" fill="#849CFE"/>
<path d="M21.9375 27.9119H31.0625V30.5369H21.9375V27.9119Z" fill="#6583FE"/>
<path d="M38.8125 29.9119V37.9119H45.1875C46.7383 37.9119 48 36.6502 48 35.0994V29.9119H38.8125Z" fill="#849CFE"/>
<path d="M36.9375 18.9744C36.9375 18.4566 36.5177 18.0369 36 18.0369H33.8125V22.0369H34C34.5175 22.0369 34.9375 22.4569 34.9375 22.9744C34.9375 23.4919 34.5175 23.9119 34 23.9119C33.1566 23.9119 19.7255 23.9119 19 23.9119C18.4825 23.9119 18.0625 23.4919 18.0625 22.9744C18.0625 22.4569 18.4825 22.0369 19 22.0369H19.1875V18.0369H16.9375C16.4197 18.0369 16 18.4566 16 18.9744V46.0369C16 46.5546 16.4197 46.9744 16.9375 46.9744H36C36.5177 46.9744 36.9375 46.5546 36.9375 46.0369C36.9375 45.3609 36.9375 21.3062 36.9375 18.9744ZM22 43.4119H21C20.4823 43.4119 20.0625 42.9921 20.0625 42.4744C20.0625 41.9566 20.4823 41.5369 21 41.5369H22C22.5177 41.5369 22.9375 41.9566 22.9375 42.4744C22.9375 42.9921 22.5177 43.4119 22 43.4119ZM22 39.9119H21C20.4823 39.9119 20.0625 39.4921 20.0625 38.9744C20.0625 38.4566 20.4823 38.0369 21 38.0369H22C22.5177 38.0369 22.9375 38.4566 22.9375 38.9744C22.9375 39.4921 22.5177 39.9119 22 39.9119ZM22 36.4119H21C20.4823 36.4119 20.0625 35.9921 20.0625 35.4744C20.0625 34.9566 20.4823 34.5369 21 34.5369H22C22.5177 34.5369 22.9375 34.9566 22.9375 35.4744C22.9375 35.9921 22.5177 36.4119 22 36.4119ZM27 43.4119H26C25.4823 43.4119 25.0625 42.9921 25.0625 42.4744C25.0625 41.9566 25.4823 41.5369 26 41.5369H27C27.5177 41.5369 27.9375 41.9566 27.9375 42.4744C27.9375 42.9921 27.5177 43.4119 27 43.4119ZM27 39.9119H26C25.4823 39.9119 25.0625 39.4921 25.0625 38.9744C25.0625 38.4566 25.4823 38.0369 26 38.0369H27C27.5177 38.0369 27.9375 38.4566 27.9375 38.9744C27.9375 39.4921 27.5177 39.9119 27 39.9119ZM27 36.4119H26C25.4823 36.4119 25.0625 35.9921 25.0625 35.4744C25.0625 34.9566 25.4823 34.5369 26 34.5369H27C27.5177 34.5369 27.9375 34.9566 27.9375 35.4744C27.9375 35.9921 27.5177 36.4119 27 36.4119ZM32 43.4119H31C30.4823 43.4119 30.0625 42.9921 30.0625 42.4744C30.0625 41.9566 30.4823 41.5369 31 41.5369H32C32.5177 41.5369 32.9375 41.9566 32.9375 42.4744C32.9375 42.9921 32.5177 43.4119 32 43.4119ZM32 39.9119H31C30.4823 39.9119 30.0625 39.4921 30.0625 38.9744C30.0625 38.4566 30.4823 38.0369 31 38.0369H32C32.5177 38.0369 32.9375 38.4566 32.9375 38.9744C32.9375 39.4921 32.5177 39.9119 32 39.9119ZM32 36.4119H31C30.4823 36.4119 30.0625 35.9921 30.0625 35.4744C30.0625 34.9566 30.4823 34.5369 31 34.5369H32C32.5177 34.5369 32.9375 34.9566 32.9375 35.4744C32.9375 35.9921 32.5177 36.4119 32 36.4119ZM32.9375 31.4744C32.9375 31.9921 32.5177 32.4119 32 32.4119H21C20.4823 32.4119 20.0625 31.9921 20.0625 31.4744V26.9744C20.0625 26.4566 20.4823 26.0369 21 26.0369H32C32.5177 26.0369 32.9375 26.4566 32.9375 26.9744V31.4744Z" fill="#6583FE"/>
</g>
<defs>
<clipPath id="clip0">
<rect width="32" height="32" fill="white" transform="translate(16 14.9744)"/>
</clipPath>
</defs>
</svg>
