<svg width="24" height="18" viewBox="0 0 24 18" fill="none" xmlns="http://www.w3.org/2000/svg">
<path d="M22.75 10.1251C23.3713 10.1251 23.875 9.62139 23.875 9.00006C23.875 8.37875 23.3713 7.87506 22.75 7.87506V10.1251ZM0.454505 8.20453C0.0151662 8.64386 0.0151641 9.35617 0.454504 9.79552L7.61395 16.9549C8.05328 17.3944 8.7656 17.3944 9.20493 16.9549C9.64428 16.5156 9.64428 15.8034 9.20494 15.364L2.84099 9.00003L9.20497 2.63607C9.6443 2.19674 9.6443 1.48442 9.20497 1.04508C8.76563 0.605742 8.05332 0.60574 7.61398 1.04508L0.454505 8.20453ZM22.75 7.87506L1.25 7.87502L1.25 10.125L22.75 10.1251V7.87506Z" fill="#ABB3BD"/>
<path d="M22.75 10.1251C23.3713 10.1251 23.875 9.62139 23.875 9.00006C23.875 8.37875 23.3713 7.87506 22.75 7.87506V10.1251ZM0.454505 8.20453C0.0151662 8.64386 0.0151641 9.35617 0.454504 9.79552L7.61395 16.9549C8.05328 17.3944 8.7656 17.3944 9.20493 16.9549C9.64428 16.5156 9.64428 15.8034 9.20494 15.364L2.84099 9.00003L9.20497 2.63607C9.6443 2.19674 9.6443 1.48442 9.20497 1.04508C8.76563 0.605742 8.05332 0.60574 7.61398 1.04508L0.454505 8.20453ZM22.75 7.87506L1.25 7.87502L1.25 10.125L22.75 10.1251V7.87506Z" fill="white" fill-opacity="0.2"/>
</svg>
