<svg width="400" height="450" viewBox="0 0 400 450" fill="none" xmlns="http://www.w3.org/2000/svg">
<path class="an-d-035" d="M285 230C304.33 230 320 214.33 320 195C320 175.67 304.33 160 285 160C265.67 160 250 175.67 250 195C250 214.33 265.67 230 285 230Z" fill="#F07881"/>
<path class="an-d-040" d="M394.75 0H335.25C332.351 0 330 2.35051 330 5.25V64.75C330 67.6495 332.351 70 335.25 70H394.75C397.649 70 400 67.6495 400 64.75V5.25C400 2.35051 397.649 0 394.75 0Z" fill="#FAC035"/>
<path class="an-d-045" d="M314.75 380H255.25C252.351 380 250 382.351 250 385.25V444.75C250 447.649 252.351 450 255.25 450H314.75C317.649 450 320 447.649 320 444.75V385.25C320 382.351 317.649 380 314.75 380Z" fill="#6CC8C5"/>
<path class="an-d-050" d="M314.75 80H255.25C252.351 80 250 82.3505 250 85.25V144.75C250 147.649 252.351 150 255.25 150H314.75C317.649 150 320 147.649 320 144.75V85.25C320 82.3505 317.649 80 314.75 80Z" fill="white" fill-opacity="0.35"/>
<circle class="an-d-055" cx="285" cy="35" r="35" fill="white" fill-opacity="0.35"/>
<circle class="an-d-060" cx="365" cy="115" r="35" fill="white" fill-opacity="0.35"/>
<path class="an-d-065" d="M0 80C0 118.66 31.3399 150 70 150V85.25C70 82.3505 67.6497 80 64.75 80H0Z" fill="#6CC8C5"/>
<path class="an-d-070" d="M240 380C240 341.34 208.66 310 170 310V374.75C170 377.649 172.35 380 175.25 380H240Z" fill="#F07881"/>
</svg>
