<svg width="80" height="80" viewBox="0 0 80 80" fill="none" xmlns="http://www.w3.org/2000/svg">
<path opacity="0.15" d="M40 80.0003C62.0914 80.0003 80 62.0916 80 40.0002C80 17.9089 62.0914 0.000244141 40 0.000244141C17.9086 0.000244141 0 17.9089 0 40.0002C0 62.0916 17.9086 80.0003 40 80.0003Z" fill="#FBCD5D"/>
<g clip-path="url(#clip0)">
<path d="M62.5931 61.1876H61.0931V33.438C61.0931 32.6614 60.4635 32.0317 59.6869 32.0317H54.062C53.2854 32.0317 52.6558 32.6614 52.6558 33.438V61.1876H49.8433V42.8128C49.8433 42.0362 49.2137 41.4066 48.4371 41.4066H42.8121C42.0355 41.4066 41.4059 42.0362 41.4059 42.8128V61.1876H38.5934V47.969C38.5934 47.1924 37.9638 46.5628 37.1872 46.5628H31.5623C30.7857 46.5628 30.1561 47.1924 30.1561 47.969V61.1876H27.3436V51.344C27.3436 50.5674 26.714 49.9377 25.9374 49.9377H20.3124C19.5358 49.9377 18.9062 50.5674 18.9062 51.344V61.1876H17.4062C16.6296 61.1876 16 61.8172 16 62.5938C16 63.3704 16.6296 64 17.4062 64H62.5931C63.3697 64 63.9993 63.3704 63.9993 62.5938C63.9993 61.8172 63.3697 61.1876 62.5931 61.1876Z" fill="#FBCD5D"/>
<path d="M17.4062 46.2164C26.1828 46.2164 35.7004 43.0643 44.2058 37.3409C50.8671 32.8583 56.4199 27.1318 59.8692 21.2681L61.2349 26.365C61.4033 26.9933 62.2161 27.5361 62.9571 27.3593C63.7126 27.1791 64.1524 26.3872 63.9514 25.637L61.6487 17.0431C61.4476 16.293 60.6769 15.8477 59.9264 16.0488L51.3325 18.3515C50.5823 18.5525 50.1372 19.3236 50.3382 20.0738C50.5393 20.824 51.31 21.2693 52.0604 21.0681L57.5968 19.5846C54.3788 25.1763 49.0607 30.6839 42.6356 35.0075C34.5893 40.422 25.6294 43.4039 17.4062 43.4039C16.6296 43.4039 16 44.0335 16 44.8101C16 45.5868 16.6296 46.2164 17.4062 46.2164Z" fill="#EAB657"/>
</g>
<defs>
<clipPath id="clip0">
<rect width="48" height="48" fill="white" transform="translate(16 16.0002)"/>
</clipPath>
</defs>
</svg>
