<svg width="80" height="80" viewBox="0 0 80 80" fill="none" xmlns="http://www.w3.org/2000/svg">
<path opacity="0.15" d="M40 80.0003C62.0914 80.0003 80 62.0916 80 40.0002C80 17.9089 62.0914 0.000244141 40 0.000244141C17.9086 0.000244141 0 17.9089 0 40.0002C0 62.0916 17.9086 80.0003 40 80.0003Z" fill="#FBCD5D"/>
<g clip-path="url(#clip0)">
<path d="M28.75 52.7502C31.8566 52.7502 34.375 50.2318 34.375 47.1252C34.375 44.0186 31.8566 41.5002 28.75 41.5002C25.6434 41.5002 23.125 44.0186 23.125 47.1252C23.125 50.2318 25.6434 52.7502 28.75 52.7502Z" fill="#FBCD5D"/>
<path d="M18.9062 62.594C18.9062 63.3713 19.5352 64.0002 20.3125 64.0002H37.1875C37.9648 64.0002 38.5938 63.3713 38.5938 62.594C38.5938 57.1667 34.1773 52.7502 28.75 52.7502C23.3227 52.7502 18.9062 57.1667 18.9062 62.594Z" fill="#EAB657"/>
<path d="M51.25 52.7502C54.3566 52.7502 56.875 50.2318 56.875 47.1252C56.875 44.0186 54.3566 41.5002 51.25 41.5002C48.1434 41.5002 45.625 44.0186 45.625 47.1252C45.625 50.2318 48.1434 52.7502 51.25 52.7502Z" fill="#FAC035"/>
<path d="M41.4062 62.594C41.4062 63.3713 42.0352 64.0002 42.8125 64.0002H59.6875C60.4648 64.0002 61.0938 63.3713 61.0938 62.594C61.0938 57.1667 56.6773 52.7502 51.25 52.7502C45.8227 52.7502 41.4062 57.1667 41.4062 62.594Z" fill="#FAC035"/>
<path d="M59.7812 16.0002H20.2188C17.8924 16.0002 16 17.8927 16 20.219V31.469C16 33.7953 17.8924 35.6877 20.2188 35.6877H25.2615L27.6619 38.0882C28.2112 38.6375 29.1012 38.6375 29.6505 38.0882L32.051 35.6877H47.949L50.3494 38.0882C50.8987 38.6375 51.7886 38.6376 52.338 38.0882L54.7385 35.6877H59.7812C62.1076 35.6877 64 33.7953 64 31.469V20.219C64 17.8927 62.1076 16.0002 59.7812 16.0002ZM34.2812 30.0627H23.0312C22.254 30.0627 21.625 29.4338 21.625 28.6565C21.625 27.8792 22.254 27.2502 23.0312 27.2502H34.2812C35.0585 27.2502 35.6875 27.8792 35.6875 28.6565C35.6875 29.4338 35.0585 30.0627 34.2812 30.0627ZM34.2812 24.4377H23.0312C22.254 24.4377 21.625 23.8088 21.625 23.0315C21.625 22.2542 22.254 21.6252 23.0312 21.6252H34.2812C35.0585 21.6252 35.6875 22.2542 35.6875 23.0315C35.6875 23.8088 35.0585 24.4377 34.2812 24.4377ZM56.9688 30.0627H45.7188C44.9415 30.0627 44.3125 29.4338 44.3125 28.6565C44.3125 27.8792 44.9415 27.2502 45.7188 27.2502H56.9688C57.746 27.2502 58.375 27.8792 58.375 28.6565C58.375 29.4338 57.746 30.0627 56.9688 30.0627ZM56.9688 24.4377H45.7188C44.9415 24.4377 44.3125 23.8088 44.3125 23.0315C44.3125 22.2542 44.9415 21.6252 45.7188 21.6252H56.9688C57.746 21.6252 58.375 22.2542 58.375 23.0315C58.375 23.8088 57.746 24.4377 56.9688 24.4377Z" fill="#EAB657"/>
</g>
<defs>
<clipPath id="clip0">
<rect width="48" height="48" fill="white" transform="translate(16 16.0002)"/>
</clipPath>
</defs>
</svg>
