<svg width="16" height="16" viewBox="0 0 16 16" fill="none" xmlns="http://www.w3.org/2000/svg">
<path d="M8.00304 5.05198C9.67653 5.05198 11.0347 6.38812 11.0347 8.03444C11.0347 8.42216 10.9559 8.78602 10.8164 9.12602L12.5869 10.8678C13.5025 10.1162 14.2241 9.14391 14.6667 8.03444C13.6177 5.41584 11.0287 3.56075 7.99698 3.56075C7.14811 3.56075 6.33562 3.70988 5.58376 3.9783L6.89345 5.26672C7.23906 5.12952 7.60892 5.05198 8.00304 5.05198ZM1.93968 3.42356L3.32213 4.78356L3.60104 5.05795C2.59452 5.82742 1.80629 6.85338 1.33334 8.03444C2.38231 10.653 4.97136 12.5081 8.00304 12.5081C8.94286 12.5081 9.84024 12.3292 10.6588 12.0071L10.9135 12.2576L12.69 13.9993L13.4601 13.2418L2.70973 2.66602L1.93968 3.42356ZM5.29272 6.72216L6.23254 7.64672C6.20222 7.77198 6.18403 7.90321 6.18403 8.03444C6.18403 9.02461 6.99652 9.82391 8.00304 9.82391C8.13644 9.82391 8.26983 9.80602 8.39716 9.77619L9.33698 10.7008C8.93074 10.8976 8.48205 11.0169 8.00304 11.0169C6.32955 11.0169 4.97136 9.68075 4.97136 8.03444C4.97136 7.56321 5.09263 7.12181 5.29272 6.72216ZM7.90603 6.25689L9.81599 8.13584L9.82811 8.0404C9.82811 7.05023 9.01562 6.25093 8.00911 6.25093L7.90603 6.25689Z" fill="#9898AB"/>
</svg>
