<svg width="416" height="848" viewBox="0 0 416 848" fill="none" xmlns="http://www.w3.org/2000/svg">
<path d="M289.5 400.214L289.5 303.786C289.5 295.897 295.901 289.5 303.8 289.5L400.2 289.5C408.099 289.5 414.5 295.897 414.5 303.786L414.5 400.214C414.5 408.103 408.099 414.5 400.2 414.5L303.8 414.5C295.901 414.5 289.5 408.103 289.5 400.214Z" stroke="white" stroke-opacity="0.35" stroke-width="3"/>
<path d="M-4.90501e-06 303.786L-6.90049e-07 400.214C-3.08946e-07 408.932 7.07374 416 15.7996 416L112.2 416C120.926 416 128 408.932 128 400.214L128 303.786C128 295.068 120.926 288 112.2 288L15.7996 288C7.07374 288 -5.28611e-06 295.068 -4.90501e-06 303.786Z" fill="#1DB2AD"/>
<path d="M79.3838 349.858V361.968C79.3838 369.705 73.0891 376 65.3521 376H62.6484C54.9112 376 48.6168 369.705 48.6168 361.968V349.858H79.3838ZM59.7666 341.558V336.099C59.7666 334.167 61.0682 332.537 62.8391 332.031V328H62.6487C54.9112 328 48.6168 334.295 48.6168 342.032V347.535H62.8389V345.626C61.0679 345.119 59.7666 343.489 59.7666 341.558ZM65.9114 341.558V336.099C65.9114 335.045 65.0542 334.188 64.0002 334.188C62.9462 334.188 62.0889 335.045 62.0889 336.099V341.558C62.0889 342.612 62.9462 343.47 64.0002 343.47C65.0542 343.47 65.9114 342.612 65.9114 341.558ZM65.3521 328H65.1617V332.031C66.9327 332.537 68.2342 334.167 68.2342 336.099V341.558C68.2342 343.49 66.9327 345.12 65.1617 345.626V347.535H79.3838V342.032C79.3838 334.295 73.0891 328 65.3521 328Z" fill="white"/>
<path d="M289.5 112.214L289.5 15.7865C289.5 7.89745 295.901 1.5 303.8 1.5L400.2 1.5C408.099 1.49999 414.5 7.89745 414.5 15.7865L414.5 112.214C414.5 120.103 408.099 126.5 400.2 126.5L303.8 126.5C295.901 126.5 289.5 120.103 289.5 112.214Z" stroke="white" stroke-opacity="0.35" stroke-width="3"/>
<path d="M288 495.947L288 496.053C288 531.37 316.654 560 352 560L352 560C387.346 560 416 531.37 416 496.053L416 495.947C416 460.63 387.346 432 352 432L352 432C316.654 432 288 460.63 288 495.947Z" fill="#E4515C"/>
<path d="M350.594 486.156V489.228C348.96 489.81 347.781 491.357 347.781 493.188C347.781 495.514 349.674 497.406 352 497.406C352.776 497.406 353.406 498.037 353.406 498.812C353.406 499.588 352.776 500.219 352 500.219C351.224 500.219 350.594 499.588 350.594 498.812H347.781C347.781 500.643 348.96 502.19 350.594 502.772V505.844H353.406V502.772C355.04 502.19 356.219 500.643 356.219 498.812C356.219 496.486 354.326 494.594 352 494.594C351.224 494.594 350.594 493.963 350.594 493.188C350.594 492.412 351.224 491.781 352 491.781C352.776 491.781 353.406 492.412 353.406 493.188H356.219C356.219 491.357 355.04 489.81 353.406 489.228V486.156H350.594Z" fill="white"/>
<path d="M353.406 472V483.486C359.25 484.143 363.864 488.758 364.523 494.594H376C375.295 482.519 365.483 472.705 353.406 472Z" fill="white"/>
<path d="M342.156 503.856C340.424 501.69 339.344 498.982 339.344 496C339.344 489.502 344.283 484.196 350.594 483.486V472C338.049 472.732 328 483.272 328 496C328 502.095 330.394 507.64 334.149 511.862L342.156 503.856Z" fill="white"/>
<path d="M375.998 497.406H364.514C363.804 503.717 358.498 508.656 352 508.656C349.018 508.656 346.31 507.576 344.144 505.844L336.138 513.851C340.36 517.606 345.905 520 352 520C364.728 520 375.266 509.951 375.998 497.406Z" fill="white"/>
<path d="M145.509 126.5C146.307 57.8267 201.827 2.30665 270.5 1.50871L270.5 112.213C270.5 120.103 264.097 126.5 256.2 126.5L145.509 126.5Z" stroke="white" stroke-opacity="0.35" stroke-width="3"/>
<path d="M1.5 208.053L1.5 207.947C1.5 173.459 29.481 145.5 63.9999 145.5L64.0001 145.5C98.519 145.5 126.5 173.459 126.5 207.947L126.5 208.053C126.5 242.541 98.519 270.5 64.0001 270.5L63.9999 270.5C29.481 270.5 1.5 242.541 1.5 208.053Z" stroke="white" stroke-opacity="0.35" stroke-width="3"/>
<path d="M145.5 544.214L145.5 447.786C145.5 439.897 151.901 433.5 159.8 433.5L256.2 433.5C264.099 433.5 270.5 439.897 270.5 447.786L270.5 544.214C270.5 552.103 264.099 558.5 256.2 558.5L159.8 558.5C151.901 558.5 145.5 552.103 145.5 544.214Z" stroke="white" stroke-opacity="0.35" stroke-width="3"/>
<path d="M270 208.026C270 242.238 242.241 270 207.999 270C173.757 270 146 242.263 146 208.053L146 146L207.946 146C242.217 146 270 173.786 270 208.026Z" stroke="#5B76E5" stroke-width="4"/>
<path d="M414 845.984C346 844.926 291.074 790 290.016 722L400.2 722C407.824 722 414 728.174 414 735.786L414 845.984Z" stroke="#5B76E5" stroke-width="4"/>
<path d="M-5.59506e-06 576C70.6923 576 128 633.308 128 704L15.7996 704C7.07377 704 -3.08949e-07 696.932 -6.90055e-07 688.213L-5.59506e-06 576Z" fill="#EAB657"/>
<path d="M270.5 640.053L270.5 639.947C270.5 605.459 242.519 577.5 208 577.5L208 577.5C173.481 577.5 145.5 605.459 145.5 639.947L145.5 640.053C145.5 674.541 173.481 702.5 208 702.5L208 702.5C242.519 702.5 270.5 674.541 270.5 640.053Z" stroke="white" stroke-opacity="0.35" stroke-width="3"/>
<path d="M145.5 783.973C145.5 749.485 173.482 721.5 207.999 721.5C242.518 721.5 270.5 749.459 270.5 783.947L270.5 846.5L208.054 846.5C173.505 846.5 145.5 818.491 145.5 783.973Z" stroke="white" stroke-opacity="0.35" stroke-width="3"/>
</svg>
