<svg width="416" height="848" viewBox="0 0 416 848" fill="none" xmlns="http://www.w3.org/2000/svg">
<path d="M289.5 400.214L289.5 303.786C289.5 295.897 295.901 289.5 303.8 289.5L400.2 289.5C408.099 289.5 414.5 295.897 414.5 303.786L414.5 400.214C414.5 408.103 408.099 414.5 400.2 414.5L303.8 414.5C295.901 414.5 289.5 408.103 289.5 400.214Z" stroke="white" stroke-opacity="0.35" stroke-width="3"/>
<path d="M-4.90501e-06 303.786L-6.90049e-07 400.214C-3.08946e-07 408.932 7.07374 416 15.7996 416L112.2 416C120.926 416 128 408.932 128 400.214L128 303.786C128 295.068 120.926 288 112.2 288L15.7996 288C7.07374 288 -5.28611e-06 295.068 -4.90501e-06 303.786Z" fill="#1DB2AD"/>
<path d="M73.6004 342.4H54.4004V361.6H73.6004V342.4Z" fill="white"/>
<path d="M85.6 354.4C87.04 354.4 88 353.44 88 352C88 350.8 87.04 349.6 85.6 349.6H83.2V344.8H85.6C87.04 344.8 88 343.84 88 342.4C88 341.2 87.04 340 85.6 340H83.2V337.6C83.2 334.96 81.04 332.8 78.4 332.8H76V330.4C76 329.2 75.04 328 73.6 328C72.4 328 71.2 328.96 71.2 330.4V332.8H66.4V330.4C66.4 329.2 65.44 328 64 328C62.56 328 61.6 328.96 61.6 330.4V332.8H56.8V330.4C56.8 329.2 55.84 328 54.4 328C52.96 328 52 328.96 52 330.4V332.8H49.6C46.96 332.8 44.8 334.96 44.8 337.6V340H42.4C40.96 340 40 340.96 40 342.4C40 343.6 40.96 344.8 42.4 344.8H44.8V349.6H42.4C40.96 349.6 40 350.56 40 352C40 353.2 40.96 354.4 42.4 354.4H44.8V359.2H42.4C40.96 359.2 40 360.16 40 361.6C40 362.8 40.96 364 42.4 364H44.8V366.4C44.8 369.04 46.96 371.2 49.6 371.2H52V373.6C52 374.8 52.96 376 54.4 376C55.84 376 56.8 375.04 56.8 373.6V371.2H61.6V373.6C61.6 374.8 62.56 376 64 376C65.44 376 66.4 375.04 66.4 373.6V371.2H71.2V373.6C71.2 374.8 72.16 376 73.6 376C74.8 376 76 375.04 76 373.6V371.2H78.4C81.04 371.2 83.2 369.04 83.2 366.4V364H85.6C87.04 364 88 363.04 88 361.6C88 360.4 87.04 359.2 85.6 359.2H83.2V354.4H85.6V354.4ZM78.4 366.4H49.6V337.6H78.4V366.4Z" fill="white"/>
<path d="M289.5 112.214L289.5 15.7865C289.5 7.89745 295.901 1.5 303.8 1.5L400.2 1.5C408.099 1.49999 414.5 7.89745 414.5 15.7865L414.5 112.214C414.5 120.103 408.099 126.5 400.2 126.5L303.8 126.5C295.901 126.5 289.5 120.103 289.5 112.214Z" stroke="white" stroke-opacity="0.35" stroke-width="3"/>
<path d="M288 495.947L288 496.053C288 531.37 316.654 560 352 560L352 560C387.346 560 416 531.37 416 496.053L416 495.947C416 460.63 387.346 432 352 432L352 432C316.654 432 288 460.63 288 495.947Z" fill="#E4515C"/>
<path d="M363.813 478.595C363.79 477.48 362.979 476.598 361.863 476.509C361.488 476.481 361.104 476.505 360.724 476.505H346.38C345.03 476.505 343.68 476.477 342.335 476.505C341.172 476.528 340.216 477.419 340.188 478.591C340.188 478.647 340.188 478.708 340.188 478.764V512.627C340.188 512.875 340.183 513.119 340.188 513.367C340.216 514.525 341.14 515.463 342.297 515.505C342.396 515.509 342.499 515.505 342.602 515.505H361.394C361.507 515.505 361.619 515.509 361.732 515.505C362.89 515.477 363.766 514.563 363.813 513.428C363.813 513.409 363.813 513.391 363.813 513.372V478.825C363.813 478.745 363.813 478.67 363.813 478.595ZM354.297 508.689C354.255 509.716 353.524 510.681 352.488 510.878C351.527 511.061 350.552 510.667 350.037 509.819C349.521 508.975 349.643 507.902 350.257 507.147C350.838 506.434 351.879 506.148 352.741 506.458C353.655 506.781 354.251 507.62 354.297 508.586C354.297 508.591 354.297 508.591 354.297 508.595C354.297 508.609 354.297 508.619 354.297 508.633C354.297 508.652 354.297 508.67 354.297 508.689ZM359.313 489.92V494.805C359.313 495.33 358.882 495.719 358.376 495.742C357.869 495.766 357.438 495.297 357.438 494.805V492.194C356.172 493.464 354.907 494.734 353.637 496.005C353.557 496.084 353.468 496.145 353.374 496.188C353.29 496.225 353.205 496.248 353.116 496.263C353.102 496.263 353.093 496.267 353.079 496.267C353.065 496.267 353.046 496.272 353.027 496.272C352.999 496.272 352.971 496.272 352.943 496.272C352.924 496.272 352.91 496.272 352.891 496.267C352.68 496.248 352.474 496.159 352.315 496C351.658 495.344 351.012 494.697 350.355 494.041C348.991 495.405 347.627 496.773 346.258 498.142C346.146 498.255 346.01 498.33 345.869 498.372C345.682 498.428 345.48 498.419 345.293 498.358C345.162 498.316 345.035 498.241 344.927 498.142C344.66 497.898 344.599 497.505 344.712 497.172C344.716 497.158 344.721 497.144 344.726 497.13C344.73 497.116 344.735 497.102 344.744 497.088C344.749 497.073 344.758 497.059 344.763 497.045C344.768 497.031 344.777 497.017 344.787 497.003C344.796 496.989 344.801 496.975 344.81 496.966C344.819 496.952 344.829 496.942 344.838 496.928C344.847 496.914 344.857 496.905 344.866 496.891C344.876 496.877 344.885 496.867 344.894 496.853V496.844C344.904 496.83 344.913 496.844 344.927 496.797C345.026 496.703 345.124 496.609 345.222 496.516C345.321 496.417 345.419 496.323 345.518 496.225C346.91 494.833 348.302 493.445 349.69 492.053C350.051 491.697 350.66 491.697 351.016 492.058C351.672 492.714 352.324 493.361 352.98 494.017L352.985 494.003C354.035 492.953 355.085 491.922 356.135 490.844H353.515C352.99 490.844 352.601 490.413 352.577 489.906C352.554 489.4 353.022 488.969 353.515 488.969H358.39C358.563 488.969 358.722 489.03 358.863 489.114C358.868 489.114 358.872 489.123 358.877 489.128C358.905 489.147 358.933 489.166 358.962 489.184C358.99 489.208 359.018 489.236 359.046 489.259C359.135 489.339 359.21 489.442 359.257 489.55C359.262 489.559 359.266 489.564 359.266 489.573C359.276 489.592 359.28 489.606 359.285 489.625C359.29 489.639 359.294 489.648 359.294 489.663C359.294 489.672 359.299 489.677 359.299 489.686C359.299 489.691 359.304 489.695 359.304 489.7C359.327 489.77 359.327 489.845 359.313 489.92Z" fill="white"/>
<path d="M145.509 126.5C146.307 57.8267 201.827 2.30665 270.5 1.50871L270.5 112.213C270.5 120.103 264.097 126.5 256.2 126.5L145.509 126.5Z" stroke="white" stroke-opacity="0.35" stroke-width="3"/>
<path d="M1.5 208.053L1.5 207.947C1.5 173.459 29.481 145.5 63.9999 145.5L64.0001 145.5C98.519 145.5 126.5 173.459 126.5 207.947L126.5 208.053C126.5 242.541 98.519 270.5 64.0001 270.5L63.9999 270.5C29.481 270.5 1.5 242.541 1.5 208.053Z" stroke="white" stroke-opacity="0.35" stroke-width="3"/>
<path d="M145.5 544.214L145.5 447.786C145.5 439.897 151.901 433.5 159.8 433.5L256.2 433.5C264.099 433.5 270.5 439.897 270.5 447.786L270.5 544.214C270.5 552.103 264.099 558.5 256.2 558.5L159.8 558.5C151.901 558.5 145.5 552.103 145.5 544.214Z" stroke="white" stroke-opacity="0.35" stroke-width="3"/>
<path d="M270 208.026C270 242.238 242.241 270 207.999 270C173.757 270 146 242.263 146 208.053L146 146L207.946 146C242.217 146 270 173.786 270 208.026Z" stroke="#5B76E5" stroke-width="4"/>
<path d="M414 845.984C346 844.926 291.074 790 290.016 722L400.2 722C407.824 722 414 728.174 414 735.786L414 845.984Z" stroke="#5B76E5" stroke-width="4"/>
<path d="M-5.59506e-06 576C70.6923 576 128 633.308 128 704L15.7996 704C7.07377 704 -3.08949e-07 696.932 -6.90055e-07 688.213L-5.59506e-06 576Z" fill="#EAB657"/>
<path d="M270.5 640.053L270.5 639.947C270.5 605.459 242.519 577.5 208 577.5L208 577.5C173.481 577.5 145.5 605.459 145.5 639.947L145.5 640.053C145.5 674.541 173.481 702.5 208 702.5L208 702.5C242.519 702.5 270.5 674.541 270.5 640.053Z" stroke="white" stroke-opacity="0.35" stroke-width="3"/>
<path d="M145.5 783.973C145.5 749.485 173.482 721.5 207.999 721.5C242.518 721.5 270.5 749.459 270.5 783.947L270.5 846.5L208.054 846.5C173.505 846.5 145.5 818.491 145.5 783.973Z" stroke="white" stroke-opacity="0.35" stroke-width="3"/>
</svg>
