<svg width="480" height="576" viewBox="0 0 480 576" fill="none" xmlns="http://www.w3.org/2000/svg">
<path d="M302.6 201.2H377.4C380.382 201.2 382.8 203.618 382.8 206.6V281.4C382.8 284.382 380.382 286.8 377.4 286.8H302.6C299.618 286.8 297.2 284.382 297.2 281.4V206.6C297.2 203.618 299.618 201.2 302.6 201.2Z" stroke="white" stroke-opacity="0.35" stroke-width="2.4"/>
<path d="M302.6 1.2H377.4C380.382 1.2 382.8 3.61766 382.8 6.6V81.4C382.8 84.3823 380.382 86.8 377.4 86.8H302.6C299.618 86.8 297.2 84.3823 297.2 81.4V6.6C297.2 3.61766 299.618 1.2 302.6 1.2Z" stroke="white" stroke-opacity="0.35" stroke-width="2.4"/>
<path d="M436 297.2C459.638 297.2 478.8 316.362 478.8 340C478.8 363.638 459.638 382.8 436 382.8C412.362 382.8 393.2 363.638 393.2 340C393.2 316.362 412.362 297.2 436 297.2Z" stroke="white" stroke-opacity="0.35" stroke-width="2.4"/>
<path d="M244 201.2C267.638 201.2 286.8 220.362 286.8 244C286.8 267.638 267.638 286.8 244 286.8C220.362 286.8 201.2 267.638 201.2 244C201.2 220.362 220.362 201.2 244 201.2Z" stroke="white" stroke-opacity="0.35" stroke-width="2.4"/>
<path d="M382.792 297.2C382.155 344.186 344.183 382.155 297.2 382.792V302.6C297.2 299.618 299.621 297.2 302.6 297.2H382.792Z" stroke="white" stroke-opacity="0.35" stroke-width="2.4"/>
<path d="M436 9.2C459.638 9.2 478.8 28.3622 478.8 52C478.8 75.6378 459.638 94.8 436 94.8C412.362 94.8 393.2 75.6378 393.2 52C393.2 28.3622 412.362 9.2 436 9.2Z" stroke="white" stroke-opacity="0.35" stroke-width="2.4"/>
<path d="M206.6 97.2H281.4C284.382 97.2 286.8 99.6177 286.8 102.6V177.4C286.8 180.382 284.382 182.8 281.4 182.8H206.6C203.618 182.8 201.2 180.382 201.2 177.4V102.6C201.2 99.6177 203.618 97.2 206.6 97.2Z" stroke="white" stroke-opacity="0.35" stroke-width="2.4"/>
<path d="M392 148C392 172.3 411.701 192 436 192C460.299 192 480 172.3 480 148V104H436C411.701 104 392 123.7 392 148Z" fill="#1DB2AD"/>
<path d="M81.4 374.8H6.6C3.61766 374.8 1.2 372.382 1.2 369.4L1.2 294.6C1.2 291.618 3.61766 289.2 6.6 289.2H81.4C84.3823 289.2 86.8 291.618 86.8 294.6L86.8 369.4C86.8 372.382 84.3823 374.8 81.4 374.8Z" stroke="white" stroke-opacity="0.35" stroke-width="2.4"/>
<path d="M81.4 574.8H6.6C3.61766 574.8 1.2 572.382 1.2 569.4L1.2 494.6C1.2 491.618 3.61766 489.2 6.6 489.2H81.4C84.3823 489.2 86.8 491.618 86.8 494.6L86.8 569.4C86.8 572.382 84.3823 574.8 81.4 574.8Z" stroke="white" stroke-opacity="0.35" stroke-width="2.4"/>
<path d="M148 374.8C124.362 374.8 105.2 355.638 105.2 332C105.2 308.362 124.362 289.2 148 289.2C171.638 289.2 190.8 308.362 190.8 332C190.8 355.638 171.638 374.8 148 374.8Z" stroke="white" stroke-opacity="0.35" stroke-width="2.4"/>
<path d="M1.20813 278.8C1.84478 231.814 39.814 193.845 86.8 193.208V273.4C86.8 276.383 84.3827 278.8 81.4 278.8H1.20813Z" stroke="white" stroke-opacity="0.35" stroke-width="2.4"/>
<path d="M110.6 480H185.4C189.045 480 192 477.045 192 473.4V398.6C192 394.955 189.045 392 185.4 392H110.6C106.955 392 104 394.955 104 398.6L104 473.4C104 477.045 106.955 480 110.6 480Z" fill="#E4515C"/>
<path d="M192 576C192 527.399 231.399 488 280 488V569.4C280 573.045 277.041 576 273.4 576H192Z" fill="#1DB2AD"/>
<path d="M340 393.2C316.362 393.2 297.2 412.362 297.2 436C297.2 459.638 316.362 478.8 340 478.8C363.638 478.8 382.8 459.638 382.8 436C382.8 412.362 363.638 393.2 340 393.2Z" stroke="white" stroke-opacity="0.35" stroke-width="2.4"/>
<path d="M377.4 489.2H302.6C299.618 489.2 297.2 491.618 297.2 494.6V569.4C297.2 572.382 299.618 574.8 302.6 574.8H377.4C380.382 574.8 382.8 572.382 382.8 569.4V494.6C382.8 491.618 380.382 489.2 377.4 489.2Z" stroke="white" stroke-opacity="0.35" stroke-width="2.4"/>
<path d="M392 436C392 460.3 411.701 480 436 480C460.299 480 480 460.3 480 436V392H436C411.701 392 392 411.7 392 436Z" fill="#EAB657"/>
<path d="M192 0C192 48.6013 152.601 88 104 88V6.6C104 2.95493 106.955 0 110.6 0H192Z" fill="#1DB2AD"/>
<path d="M148 182.8C171.638 182.8 190.8 163.638 190.8 140C190.8 116.362 171.638 97.2 148 97.2C124.362 97.2 105.2 116.362 105.2 140C105.2 163.638 124.362 182.8 148 182.8Z" stroke="white" stroke-opacity="0.35" stroke-width="2.4"/>
<path d="M88 140C88 115.7 68.3001 96 44 96C19.6999 96 0 115.7 0 140V184H44C68.3001 184 88 164.3 88 140Z" fill="#EAB657"/>
</svg>
