<svg width="387" height="344" viewBox="0 0 387 344" fill="none" xmlns="http://www.w3.org/2000/svg">
<path d="M63.8457 56.4502C79.3097 56.4502 91.8457 43.9142 91.8457 28.4502C91.8457 12.9862 79.3097 0.450195 63.8457 0.450195C48.3818 0.450195 35.8457 12.9862 35.8457 28.4502C35.8457 43.9142 48.3818 56.4502 63.8457 56.4502Z" fill="#FAC035"/>
<path d="M120 252C120 267.464 107.464 280 91.9998 280C76.5361 280 63.9998 267.464 63.9998 252V224H91.9998C107.464 224 120 236.536 120 252Z" fill="#F07881"/>
<path d="M251 316C251 331.464 263.536 344 279 344C294.464 344 307 331.464 307 316V288H279C263.536 288 251 300.536 251 316Z" fill="#6CC8C5"/>
<path d="M182.8 288H135.2C132.88 288 131 289.88 131 292.2V339.8C131 342.12 132.88 344 135.2 344H182.8C185.119 344 187 342.12 187 339.8V292.2C187 289.88 185.119 288 182.8 288Z" fill="white" fill-opacity="0.35"/>
<circle cx="212" cy="252" r="28" fill="white" fill-opacity="0.35"/>
<circle cx="91.9998" cy="188" r="28" fill="white" fill-opacity="0.35"/>
<path d="M-0.000152588 280C-0.000152588 249.072 25.0717 224 55.9998 224V275.8C55.9998 278.12 54.1196 280 51.7998 280H-0.000152588Z" fill="#6CC8C5"/>
<path d="M387 224C387 254.928 361.928 280 331 280V228.2C331 225.88 332.88 224 335.2 224H387Z" fill="#F07881"/>
</svg>
