<svg width="320" height="360" viewBox="0 0 320 360" fill="none" xmlns="http://www.w3.org/2000/svg">
<path d="M228 184C243.464 184 256 171.464 256 156C256 140.536 243.464 128 228 128C212.536 128 200 140.536 200 156C200 171.464 212.536 184 228 184Z" fill="#F07881"/>
<path d="M315.8 0H268.2C265.88 0 264 1.8804 264 4.2V51.8C264 54.1196 265.88 56 268.2 56H315.8C318.12 56 320 54.1196 320 51.8V4.2C320 1.8804 318.12 0 315.8 0Z" fill="#FAC035"/>
<path d="M251.8 304H204.2C201.88 304 200 305.88 200 308.2V355.8C200 358.12 201.88 360 204.2 360H251.8C254.12 360 256 358.12 256 355.8V308.2C256 305.88 254.12 304 251.8 304Z" fill="#6CC8C5"/>
<path d="M251.8 64H204.2C201.88 64 200 65.8804 200 68.2V115.8C200 118.12 201.88 120 204.2 120H251.8C254.12 120 256 118.12 256 115.8V68.2C256 65.8804 254.12 64 251.8 64Z" fill="white" fill-opacity="0.35"/>
<circle cx="228" cy="28" r="28" fill="white" fill-opacity="0.35"/>
<circle cx="292" cy="92" r="28" fill="white" fill-opacity="0.35"/>
<path d="M0 64C0 94.928 25.0719 120 56 120V68.2C56 65.8804 54.1198 64 51.8 64H0Z" fill="#6CC8C5"/>
<path d="M192 304C192 273.072 166.928 248 136 248V299.8C136 302.12 137.88 304 140.2 304H192Z" fill="#F07881"/>
</svg>
