<svg width="400" height="393" viewBox="0 0 400 393" fill="none" xmlns="http://www.w3.org/2000/svg">
<path d="M224.214 190.886H280.833C290.214 190.886 297.819 183.345 297.819 174.043V117.9C297.819 108.598 290.214 101.057 280.833 101.057L224.214 101.057C214.833 101.057 207.228 108.598 207.228 117.9V174.043C207.228 183.345 214.833 190.886 224.214 190.886Z" fill="#F2F4F7"/>
<path d="M20.3827 190.886H77.0024C86.3834 190.886 93.9883 183.345 93.9883 174.043L93.9883 117.9C93.9883 108.598 86.3834 101.057 77.0024 101.057L20.3827 101.057C11.0016 101.057 3.39676 108.598 3.39676 117.9L3.39676 174.043C3.39676 183.345 11.0016 190.886 20.3827 190.886Z" fill="#F2F4F7"/>
<path d="M105.313 44.9138C105.313 69.7193 125.592 89.8281 150.609 89.8281C175.625 89.8281 195.904 69.7193 195.904 44.9138C195.904 20.1084 175.625 -0.000450134 150.609 -0.000450134C125.592 -0.000450134 105.313 20.1084 105.313 44.9138Z" fill="#F2F4F7"/>
<path d="M297.82 0C247.787 0 207.228 40.2177 207.228 89.8286H280.834C290.216 89.8286 297.82 82.2877 297.82 72.9857V0Z" fill="#FAC035"/>
<path d="M0 202.114C2.18694e-06 251.725 40.5591 291.943 90.5917 291.943V218.957C90.5917 209.655 82.9868 202.114 73.6057 202.114H0Z" fill="#6CC8C5"/>
<path d="M105.313 348.086C105.313 372.891 125.592 393 150.609 393C175.625 393 195.904 372.891 195.904 348.086C195.904 323.28 175.625 303.171 150.609 303.171C125.592 303.171 105.313 323.28 105.313 348.086Z" fill="#F2F4F7"/>
<path d="M326.13 393H382.749C392.13 393 399.735 385.459 399.735 376.157V320.014C399.735 310.712 392.13 303.171 382.749 303.171H326.13C316.749 303.171 309.144 310.712 309.144 320.014V376.157C309.144 385.459 316.749 393 326.13 393Z" fill="#F2F4F7"/>
<path d="M191.374 247.029C191.374 222.223 171.095 202.114 146.078 202.114C121.062 202.114 100.783 222.223 100.783 247.029V291.943H146.078C171.095 291.943 191.374 271.834 191.374 247.029Z" fill="#F07881"/>
</svg>
