<svg width="80" height="80" viewBox="0 0 80 80" fill="none" xmlns="http://www.w3.org/2000/svg">
<path opacity="0.15" d="M40 80C62.0914 80 80 62.0914 80 40C80 17.9086 62.0914 0 40 0C17.9086 0 0 17.9086 0 40C0 62.0914 17.9086 80 40 80Z" fill="#FBCD5D"/>
<path d="M34.576 47.0084C33.808 45.7604 32.512 44.1764 31.216 42.6884C30.064 41.3924 28.864 40.0484 28.048 38.8004C27.472 37.8884 26.368 37.8884 25.6 38.3684C24.64 38.9444 23.968 40.2404 24.976 42.1604C25.504 43.2164 26.752 44.5604 28.096 46.0484C28.192 46.1444 28.24 46.2404 28.336 46.3364C28.624 46.6724 28.576 47.2004 28.192 47.4884C27.904 47.6804 27.472 47.5844 27.232 47.3444C27.184 47.2484 27.088 47.2004 27.04 47.1044C25.984 45.9524 25.072 44.9444 24.4 44.0324C24.112 43.6484 23.872 43.2644 23.68 42.9284C22.912 41.3924 22.864 40.0484 23.296 39.0404C22.576 37.5044 22 36.0644 21.712 35.1524C20.848 32.4644 17.2 33.1364 17.344 36.0164C17.488 38.8964 18.544 48.5924 21.328 51.8564C22.624 53.3444 24.928 55.3604 27.376 57.0884C27.76 57.3764 28 57.8084 28 58.2404V60.2084C28 60.7844 28.48 61.2644 29.056 61.2644H35.968C36.592 61.2644 37.072 60.7844 37.024 60.1604C36.976 58.9604 36.928 57.0404 36.832 55.3124C36.448 51.7124 35.392 48.4004 34.576 47.0084Z" fill="#FAC035"/>
<path d="M58.4317 35.0084C58.1437 35.9204 57.5197 37.3604 56.8477 38.8964C57.2317 39.9524 57.2317 41.2964 56.4637 42.7844C56.2717 43.1204 56.0317 43.5044 55.7437 43.8884C55.0717 44.8484 54.1117 45.8564 53.1037 46.9604C53.0557 47.0564 52.9597 47.1044 52.9117 47.2004C52.6717 47.4884 52.2397 47.5364 51.9517 47.3444C51.5677 47.1044 51.5197 46.5284 51.8077 46.1924C51.9037 46.0964 51.9517 46.0004 52.0477 45.9044C53.3917 44.4644 54.6397 43.0724 55.1677 42.0164C56.1757 40.0484 55.5037 38.7524 54.5437 38.2244C53.7757 37.7444 52.6717 37.7444 52.0957 38.6564C51.2317 39.9524 50.0797 41.2964 48.9277 42.5444C47.5837 44.0324 46.2877 45.6164 45.5677 46.8644C44.7517 48.2564 43.6477 51.5684 43.4557 55.0724C43.3597 56.8004 43.3117 58.7204 43.2637 59.9204C43.2637 60.5444 43.7437 61.0244 44.3197 61.0244H51.2317C51.8077 61.0244 52.2877 60.5444 52.2877 59.9684V58.0004C52.2877 57.5204 52.5277 57.0884 52.9117 56.8484C55.3597 55.1684 57.6637 53.1524 58.9597 51.6164C61.7917 48.3524 62.7997 38.6564 62.9437 35.7764C62.9437 32.9924 59.2957 32.3204 58.4317 35.0084Z" fill="#FAC035"/>
<path d="M46.2403 39.4242C47.7283 39.3282 48.9283 38.1282 49.0243 36.6402L49.1203 35.2002C49.1683 34.5762 49.4083 33.9522 49.8403 33.4722L50.7523 32.3682C51.7123 31.2162 51.7123 29.5362 50.7523 28.4322L49.8403 27.3282C49.4083 26.8482 49.1683 26.2242 49.1203 25.6002L49.0243 24.1602C48.9283 22.6722 47.7283 21.4722 46.2403 21.3762L44.8003 21.2802C44.1763 21.2322 43.5523 20.9922 43.0723 20.5602L41.9683 19.6482C40.8163 18.6882 39.1363 18.6882 38.0323 19.6482L36.9283 20.5602C36.4483 20.9922 35.8243 21.2322 35.2003 21.2802L33.7603 21.3762C32.2723 21.4722 31.0723 22.6722 30.9763 24.1602L30.8803 25.6002C30.8323 26.2242 30.5923 26.8482 30.1603 27.3282L29.2483 28.4322C28.2883 29.5842 28.2883 31.2642 29.2483 32.3682L30.1603 33.4722C30.5923 33.9522 30.8323 34.5762 30.8803 35.2002L30.9763 36.6402C31.0723 38.1282 32.2723 39.3282 33.7603 39.4242L35.2003 39.5202C35.8243 39.5682 36.4483 39.8082 36.9283 40.2402L38.0323 41.1522C39.1843 42.1122 40.8643 42.1122 41.9683 41.1522L43.0723 40.2402C43.5523 39.8082 44.1763 39.5682 44.8003 39.5202L46.2403 39.4242ZM40.0003 36.7842C36.4963 36.7842 33.6163 33.9042 33.6163 30.4002C33.6163 26.8962 36.4963 24.0162 40.0003 24.0162C43.5043 24.0162 46.3843 26.8962 46.3843 30.4002C46.3843 33.9042 43.5043 36.7842 40.0003 36.7842Z" fill="#EAB657"/>
<path d="M42.7835 27.4244C42.6395 27.2804 42.3995 27.2804 42.2555 27.4244L39.2795 30.4004L37.7435 28.8644C37.5995 28.7204 37.3595 28.7204 37.2155 28.8644L35.9195 30.1604C35.7755 30.3044 35.7755 30.5444 35.9195 30.6884L38.9915 33.7604C39.1355 33.9044 39.3755 33.9044 39.5195 33.7604L44.0315 29.2484C44.1755 29.1044 44.1755 28.8644 44.0315 28.7204L42.7835 27.4244Z" fill="#EAB657"/>
</svg>
