<svg width="80" height="80" viewBox="0 0 80 80" fill="none" xmlns="http://www.w3.org/2000/svg">
<path opacity="0.15" d="M40 80C62.0914 80 80 62.0914 80 40C80 17.9086 62.0914 0 40 0C17.9086 0 0 17.9086 0 40C0 62.0914 17.9086 80 40 80Z" fill="#FBCD5D"/>
<path d="M40.4564 19.0058C40.2178 19.032 39.9977 19.1466 39.8395 19.3271C39.6812 19.5076 39.5963 19.7408 39.6014 19.9808V24.7808C39.5996 24.908 39.6231 25.0343 39.6706 25.1523C39.718 25.2704 39.7884 25.3778 39.8778 25.4684C39.9671 25.559 40.0735 25.631 40.1909 25.6801C40.3083 25.7292 40.4342 25.7544 40.5614 25.7544C40.6887 25.7544 40.8146 25.7292 40.932 25.6801C41.0494 25.631 41.1558 25.559 41.2451 25.4684C41.3344 25.3778 41.4049 25.2704 41.4523 25.1523C41.4997 25.0343 41.5232 24.908 41.5214 24.7808V19.9808C41.5244 19.8441 41.4981 19.7084 41.4444 19.5827C41.3907 19.457 41.3107 19.3442 41.2099 19.2519C41.1091 19.1596 40.9897 19.0899 40.8598 19.0475C40.7298 19.005 40.5923 18.9908 40.4564 19.0058ZM33.7814 21.4058C33.607 21.4158 33.4386 21.4733 33.2944 21.5719C33.1502 21.6706 33.0357 21.8068 32.9631 21.9657C32.8906 22.1247 32.8628 22.3004 32.8828 22.474C32.9027 22.6476 32.9697 22.8124 33.0764 22.9508L35.9564 26.7908C36.0291 26.8995 36.1231 26.9922 36.2329 27.0633C36.3426 27.1343 36.4657 27.1822 36.5946 27.204C36.7235 27.2258 36.8555 27.2211 36.9825 27.1901C37.1095 27.159 37.2289 27.1024 37.3332 27.0236C37.4375 26.9449 37.5247 26.8456 37.5893 26.732C37.6539 26.6183 37.6947 26.4927 37.709 26.3627C37.7234 26.2328 37.711 26.1013 37.6728 25.9763C37.6345 25.8513 37.5711 25.7354 37.4864 25.6358L34.6064 21.7958C34.5121 21.6674 34.3873 21.5646 34.2432 21.4965C34.0992 21.4284 33.9405 21.3972 33.7814 21.4058ZM47.2214 21.4058C47.0827 21.4158 46.9478 21.4559 46.8261 21.5232C46.7043 21.5906 46.5987 21.6836 46.5164 21.7958L43.6364 25.6358C43.5518 25.7354 43.4884 25.8513 43.4501 25.9763C43.4119 26.1013 43.3995 26.2328 43.4139 26.3627C43.4282 26.4927 43.4689 26.6183 43.5336 26.732C43.5982 26.8456 43.6854 26.9449 43.7897 27.0236C43.894 27.1024 44.0134 27.159 44.1404 27.1901C44.2674 27.2211 44.3994 27.2258 44.5283 27.204C44.6572 27.1822 44.7803 27.1343 44.89 27.0633C44.9997 26.9922 45.0938 26.8995 45.1664 26.7908L48.0464 22.9508C48.1596 22.8044 48.228 22.6284 48.2435 22.444C48.259 22.2596 48.2209 22.0746 48.1337 21.9114C48.0466 21.7482 47.9141 21.6136 47.7522 21.5239C47.5904 21.4342 47.4061 21.3932 47.2214 21.4058ZM40.5614 28.6208C38.9381 28.6208 37.6814 29.8672 37.6814 31.5008V46.3808L35.7614 42.0608C34.1882 39.142 32.6418 39.4454 31.4414 40.1408C30.0521 41.0673 29.5346 42.0239 30.4814 44.4608L31.9214 47.8208C34.6261 53.5161 37.2022 57.4208 39.6014 60.3008H52.5614C57.1168 56.9261 60.782 41.8383 54.4814 41.1008C53.9036 41.1008 52.9787 41.1934 52.5614 41.5808C52.5614 39.6608 50.8861 39.1688 50.1614 39.1808C49.3301 39.1947 48.7213 39.6608 48.2414 40.6208C48.2414 38.7008 46.6756 38.2208 45.8414 38.2208C44.9231 38.2208 43.8585 38.7937 43.4414 39.6608C43.4284 37.3075 43.4371 34.0195 43.4414 31.5008C43.4443 29.8672 42.1848 28.6208 40.5614 28.6208Z" fill="#FAC035"/>
<path d="M25.4964 37.992C30.2004 37.992 34.0404 34.152 34.0404 29.496C34.0404 24.792 30.2004 21 25.4964 21C20.7924 21 17.0004 24.84 17.0004 29.496C16.9524 34.152 20.7924 37.992 25.4964 37.992ZM24.7764 25.032V23.976C24.7764 23.832 24.8724 23.736 25.0164 23.736H25.9764C26.1204 23.736 26.2164 23.832 26.2164 23.976V25.032C27.5124 25.08 28.6164 26.088 28.7124 27.336C28.7124 27.48 28.6164 27.576 28.4724 27.576H27.5124C27.4164 27.576 27.3204 27.48 27.2724 27.384C27.1764 26.856 26.6964 26.424 26.1204 26.424H24.8244C24.2004 26.424 23.6724 26.904 23.6244 27.528C23.5764 28.2 24.1044 28.728 24.7764 28.728H26.0244C27.4644 28.728 28.6644 29.88 28.6644 31.32C28.6644 32.712 27.5124 33.816 26.1204 33.864V34.92C26.1204 35.064 26.0244 35.16 25.8804 35.16H24.9204C24.7764 35.16 24.6804 35.064 24.6804 34.92V33.864C23.3844 33.816 22.2804 32.808 22.1844 31.56C22.1844 31.416 22.2804 31.32 22.4244 31.32H23.3844C23.4804 31.32 23.5764 31.416 23.6244 31.512C23.7204 32.04 24.2004 32.472 24.7764 32.472H26.0724C26.6964 32.472 27.2244 31.992 27.2724 31.368C27.3204 30.696 26.7924 30.168 26.1204 30.168H24.8724C23.4324 30.168 22.2324 29.016 22.2324 27.576C22.2804 26.184 23.3844 25.032 24.7764 25.032Z" fill="#EAB657"/>
</svg>
