<svg width="80" height="80" viewBox="0 0 80 80" fill="none" xmlns="http://www.w3.org/2000/svg">
<path opacity="0.15" d="M40 80C62.0914 80 80 62.0914 80 40C80 17.9086 62.0914 0 40 0C17.9086 0 0 17.9086 0 40C0 62.0914 17.9086 80 40 80Z" fill="#FBCD5D"/>
<g clip-path="url(#clip0)">
<path fill-rule="evenodd" clip-rule="evenodd" d="M35.2956 39.6809C38.0066 40.3188 40.3986 37.9268 39.7608 35.2158L35.774 31.3885L36.4119 31.2291C41.8338 29.9533 46.299 35.2158 44.5448 40.3188L62.7242 57.5414C66.2325 60.8902 60.9701 66.1527 57.6212 62.6444L40.5581 44.3055C35.4551 46.3786 30.0332 41.754 31.3089 36.3321L31.4684 35.6942L35.2956 39.6809ZM58.897 60.5713C60.0133 61.6876 61.7674 59.9334 60.6511 58.8171C59.5348 57.7008 57.7807 59.455 58.897 60.5713Z" fill="#FAC035"/>
<path fill-rule="evenodd" clip-rule="evenodd" d="M16.1595 35.0563L21.7409 33.6211C22.2193 32.1859 22.6977 30.9102 23.495 29.6344L20.4651 24.6909C21.7409 23.0962 23.0166 21.8205 24.6113 20.5447L29.5548 23.5746C30.8306 22.7773 32.1063 22.2989 33.5415 21.8205L34.9767 16.2391C35.9336 16.0796 36.8904 16.0796 37.8472 16.0796C38.9635 16.0796 39.9203 16.0796 40.8771 16.2391L42.3123 21.8205C43.7475 22.2989 45.0233 22.7773 46.299 23.5746L51.2425 20.5447C52.8372 21.8205 54.113 23.0962 55.3887 24.6909L52.3588 29.6344C53.1561 30.9102 53.6346 32.1859 54.113 33.6211L59.6944 35.0563C59.6944 36.0131 59.8538 36.97 59.8538 37.9268C59.8538 39.043 59.6944 39.9999 59.6944 40.9567L54.113 42.3919C53.794 43.5082 53.3156 44.6244 52.8372 45.5813L48.2126 41.2756C48.691 40.3188 48.8505 39.2025 48.8505 37.9268C48.8505 32.0264 43.907 27.0829 37.8472 27.0829C31.9468 27.0829 27.0033 32.0264 27.0033 37.9268C27.0033 43.9866 31.9468 48.9301 37.8472 48.9301C39.2824 48.9301 40.3987 48.6111 41.6744 48.2922L45.8206 52.7573C44.7043 53.3952 43.588 53.8736 42.3123 54.1925L40.8771 59.7739C39.9203 59.7739 38.9635 59.9334 37.8472 59.9334C36.8904 59.9334 35.9336 59.7739 34.9767 59.7739L33.5415 54.1925C32.1063 53.7141 30.8306 53.2357 29.5548 52.4384L24.6113 55.4683C23.0166 54.1925 21.7409 52.9168 20.4651 51.3221L23.495 46.3786C22.6977 45.1028 22.2193 43.8271 21.7409 42.3919L16.1595 40.9567C16 39.9999 16 39.043 16 37.9268C16 36.97 16 36.0131 16.1595 35.0563Z" fill="#EAB657"/>
</g>
<defs>
<clipPath id="clip0">
<rect width="48" height="48" fill="white" transform="translate(16 16)"/>
</clipPath>
</defs>
</svg>
