<svg width="80" height="80" viewBox="0 0 80 80" fill="none" xmlns="http://www.w3.org/2000/svg">
<path opacity="0.15" d="M40 80C62.0914 80 80 62.0914 80 40C80 17.9086 62.0914 0 40 0C17.9086 0 0 17.9086 0 40C0 62.0914 17.9086 80 40 80Z" fill="#FBCD5D"/>
<g clip-path="url(#clip0)">
<path d="M31.8708 41.4062H48.7458C49.5232 41.4062 50.152 40.777 50.152 39.9999V23.0312C50.152 22.2541 49.5232 21.625 48.7458 21.625H44.527V20.2187C44.527 17.8926 42.6345 16 40.3083 16C37.9821 16 36.0896 17.8926 36.0896 20.2187V21.625H31.8708C31.0937 21.625 30.4646 22.2541 30.4646 23.0312V39.9999C30.4646 40.777 31.0937 41.4062 31.8708 41.4062ZM38.9021 20.2187C38.9021 19.4427 39.5338 18.8125 40.3083 18.8125C41.0828 18.8125 41.7146 19.4427 41.7146 20.2187V21.625H38.9021V20.2187Z" fill="#FBCD5D"/>
<path d="M60.7951 39.272C60.5424 38.8519 60.0836 38.5938 59.5921 38.5938C57.1143 38.5938 54.8413 39.9689 53.691 42.1636L49.3774 50.396C48.6443 51.7912 47.2131 52.6562 45.6395 52.6562H36.0895C35.3124 52.6562 34.6833 52.0271 34.6833 51.25C34.6833 50.4729 35.3124 49.8437 36.0895 49.8437H45.6392C46.164 49.8437 46.6419 49.5555 46.8865 49.0897C47.13 48.6246 47.8657 47.2202 48.4982 46.0132C48.6974 45.633 48.6835 45.1764 48.4612 44.8091C48.2385 44.4421 47.8405 44.2187 47.4113 44.2187H32.7936C30.915 44.2187 29.1517 44.9508 27.8224 46.2787L19.5057 54.5953C18.9564 55.1446 18.9564 56.0345 19.5057 56.5838L26.537 63.5879C26.8116 63.8626 27.1716 64.0003 27.5312 64.0003C27.8908 64.0003 28.2508 63.8626 28.5255 63.5879L33.8593 58.2812H45.6392C49.3115 58.2812 52.6539 56.2597 54.3597 53.0063L60.8361 40.6537C61.0668 40.2183 61.0504 39.6938 60.7951 39.272Z" fill="#EAB657"/>
</g>
<defs>
<clipPath id="clip0">
<rect width="48" height="48" fill="white" transform="translate(16 16)"/>
</clipPath>
</defs>
</svg>
