<svg width="80" height="80" viewBox="0 0 80 80" fill="none" xmlns="http://www.w3.org/2000/svg">
<path opacity="0.15" d="M40 80C62.0914 80 80 62.0914 80 40C80 17.9086 62.0914 0 40 0C17.9086 0 0 17.9086 0 40C0 62.0914 17.9086 80 40 80Z" fill="#FBCD5D"/>
<path d="M47.5 31C56.6127 31 64 27.6421 64 23.5C64 19.3579 56.6127 16 47.5 16C38.3873 16 31 19.3579 31 23.5C31 27.6421 38.3873 31 47.5 31Z" fill="#FBCD5D"/>
<path d="M32.5 31C23.386 31 16 38.386 16 47.5C16 56.614 23.386 64 32.5 64C41.614 64 49 56.614 49 47.5C49 38.386 41.614 31 32.5 31ZM32.5 46C34.981 46 37 48.019 37 50.5C37 52.453 35.743 54.103 34 54.724V56.5C34 57.328 33.328 58 32.5 58C31.672 58 31 57.328 31 56.5V55H29.5C28.672 55 28 54.328 28 53.5C28 52.672 28.672 52 29.5 52H32.5C33.328 52 34 51.325 34 50.5C34 49.675 33.328 49 32.5 49C30.019 49 28 46.981 28 44.5C28 42.547 29.257 40.897 31 40.276V38.5C31 37.672 31.672 37 32.5 37C33.328 37 34 37.672 34 38.5V40H35.5C36.328 40 37 40.672 37 41.5C37 42.328 36.328 43 35.5 43H32.5C31.672 43 31 43.675 31 44.5C31 45.325 31.672 46 32.5 46Z" fill="#EAB657"/>
<path d="M50.446 39.8735C50.842 40.8065 51.148 41.7815 51.397 42.7805C53.872 42.5075 56.101 41.9675 58 41.2535V38.2715C55.864 39.0725 53.284 39.6395 50.446 39.8735Z" fill="#FAC035"/>
<path d="M51.5139 51.766C51.2739 52.837 50.9529 53.872 50.5449 54.868C53.3469 54.631 55.8879 54.064 57.9999 53.272V50.251C56.1309 50.956 53.9439 51.49 51.5139 51.766Z" fill="#FAC035"/>
<path d="M51.9099 45.7206C51.9639 46.3086 51.9999 46.8996 51.9999 47.4996C51.9999 47.9106 51.9639 48.3126 51.9369 48.7176C54.2019 48.4296 56.2389 47.9136 57.9999 47.2476V44.2476C56.2329 44.9136 54.1869 45.4326 51.9099 45.7206Z" fill="#FAC035"/>
<path d="M47.5 33.9996C47.167 33.9996 46.846 33.9846 46.519 33.9756C47.404 34.8906 48.193 35.8926 48.886 36.9666C52.351 36.8376 55.474 36.2016 58 35.2476V32.2866C55.147 33.3576 51.49 33.9996 47.5 33.9996Z" fill="#FAC035"/>
<path d="M48.9249 57.967C48.2349 59.047 47.4429 60.055 46.5579 60.979C46.8729 60.985 47.1819 61 47.4999 61C51.4899 61 55.1469 60.358 57.9999 59.287V56.251C55.4829 57.199 52.3749 57.835 48.9249 57.967Z" fill="#FAC035"/>
<path d="M61 30.8059V33.7729C62.866 32.5579 64 31.0969 64 29.5039V26.5039C64 28.1029 62.884 29.5849 61 30.8059Z" fill="#FAC035"/>
<path d="M61 36.763V39.766C62.863 38.554 64 37.093 64 35.5V32.5C64 34.09 62.86 35.551 61 36.763Z" fill="#FAC035"/>
<path d="M61 42.772V45.772C62.869 44.557 64 43.093 64 41.5V38.5C64 40.093 62.869 41.56 61 42.772Z" fill="#FAC035"/>
<path d="M61 48.766V51.763C62.86 50.551 64 49.09 64 47.5V44.5C64 46.093 62.866 47.554 61 48.766Z" fill="#FAC035"/>
<path d="M61 54.7681V57.8011C62.884 56.5831 64 55.1011 64 53.4961V50.4961C64 52.0921 62.866 53.5561 61 54.7681Z" fill="#FAC035"/>
</svg>
