<svg width="80" height="80" viewBox="0 0 80 80" fill="none" xmlns="http://www.w3.org/2000/svg">
<path opacity="0.15" d="M40 80C62.0914 80 80 62.0914 80 40C80 17.9086 62.0914 0 40 0C17.9086 0 0 17.9086 0 40C0 62.0914 17.9086 80 40 80Z" fill="#FBCD5D"/>
<path d="M32.5 60.25H20.5C20.3011 60.25 20.1103 60.171 19.9697 60.0303C19.829 59.8897 19.75 59.6989 19.75 59.5V56.8075C19.7508 56.6107 19.8289 56.4222 19.9675 56.2825L21.7825 54.4675C21.9222 54.3289 22.1107 54.2508 22.3075 54.25H30.6925C30.8893 54.2508 31.0778 54.3289 31.2175 54.4675L33.0325 56.2825C33.1711 56.4222 33.2492 56.6107 33.25 56.8075V59.5C33.25 59.6989 33.171 59.8897 33.0303 60.0303C32.8897 60.171 32.6989 60.25 32.5 60.25Z" fill="#FAC035"/>
<path d="M46 60.25H34C33.8011 60.25 33.6103 60.171 33.4697 60.0303C33.329 59.8897 33.25 59.6989 33.25 59.5V56.8075C33.2508 56.6107 33.3289 56.4222 33.4675 56.2825L35.2825 54.4675C35.4222 54.3289 35.6107 54.2508 35.8075 54.25H44.1925C44.3893 54.2508 44.5778 54.3289 44.7175 54.4675L46.5325 56.2825C46.6711 56.4222 46.7492 56.6107 46.75 56.8075V59.5C46.75 59.6989 46.671 59.8897 46.5303 60.0303C46.3897 60.171 46.1989 60.25 46 60.25Z" fill="#FAC035"/>
<path d="M46 46.75H34C33.8011 46.75 33.6103 46.671 33.4697 46.5303C33.329 46.3897 33.25 46.1989 33.25 46V43.3075C33.2508 43.1107 33.3289 42.9222 33.4675 42.7825L35.2825 40.9675C35.4222 40.8289 35.6107 40.7508 35.8075 40.75H44.1925C44.3893 40.7508 44.5778 40.8289 44.7175 40.9675L46.5325 42.7825C46.6711 42.9222 46.7492 43.1107 46.75 43.3075V46C46.75 46.1989 46.671 46.3897 46.5303 46.5303C46.3897 46.671 46.1989 46.75 46 46.75Z" fill="#FAC035"/>
<path d="M39.25 53.5H27.25C27.0511 53.5 26.8603 53.421 26.7197 53.2803C26.579 53.1397 26.5 52.9489 26.5 52.75V50.0575C26.5008 49.8607 26.5789 49.6722 26.7175 49.5325L28.5325 47.7175C28.6722 47.5789 28.8607 47.5008 29.0575 47.5H37.4425C37.6393 47.5008 37.8278 47.5789 37.9675 47.7175L39.7825 49.5325C39.9211 49.6722 39.9992 49.8607 40 50.0575V52.75C40 52.9489 39.921 53.1397 39.7803 53.2803C39.6397 53.421 39.4489 53.5 39.25 53.5Z" fill="#FAC035"/>
<path d="M52.75 53.5H40.75C40.5511 53.5 40.3603 53.421 40.2197 53.2803C40.079 53.1397 40 52.9489 40 52.75V50.0575C40.0008 49.8607 40.0789 49.6722 40.2175 49.5325L42.0325 47.7175C42.1722 47.5789 42.3607 47.5008 42.5575 47.5H50.9425C51.1393 47.5008 51.3278 47.5789 51.4675 47.7175L53.2825 49.5325C53.4211 49.6722 53.4992 49.8607 53.5 50.0575V52.75C53.5 52.9489 53.421 53.1397 53.2803 53.2803C53.1397 53.421 52.9489 53.5 52.75 53.5Z" fill="#FAC035"/>
<path d="M59.5 60.25H47.5C47.3011 60.25 47.1103 60.171 46.9697 60.0303C46.829 59.8897 46.75 59.6989 46.75 59.5V56.8075C46.7508 56.6107 46.8289 56.4222 46.9675 56.2825L48.7825 54.4675C48.9222 54.3289 49.1107 54.2508 49.3075 54.25H57.6925C57.8893 54.2508 58.0778 54.3289 58.2175 54.4675L60.0325 56.2825C60.1711 56.4222 60.2492 56.6107 60.25 56.8075V59.5C60.25 59.6989 60.171 59.8897 60.0303 60.0303C59.8897 60.171 59.6989 60.25 59.5 60.25Z" fill="#FAC035"/>
<path d="M52.75 28H51.25C51.0511 28 50.8603 27.921 50.7197 27.7803C50.579 27.6397 50.5 27.4489 50.5 27.25C50.5 27.0511 50.579 26.8603 50.7197 26.7197C50.8603 26.579 51.0511 26.5 51.25 26.5H52.75C52.9489 26.5 53.1397 26.579 53.2803 26.7197C53.421 26.8603 53.5 27.0511 53.5 27.25C53.5 27.4489 53.421 27.6397 53.2803 27.7803C53.1397 27.921 52.9489 28 52.75 28Z" fill="#EAB657"/>
<path d="M49.7504 22.3751C49.5843 22.3763 49.4225 22.3223 49.2905 22.2216C49.1584 22.121 49.0635 21.9793 49.0206 21.8189C48.9777 21.6585 48.9892 21.4883 49.0534 21.3352C49.1177 21.182 49.2309 21.0545 49.3754 20.9726L50.6729 20.2226C50.8459 20.1232 51.0514 20.0965 51.2441 20.1486C51.4368 20.2006 51.6009 20.3271 51.7004 20.5001C51.7998 20.6732 51.8265 20.8787 51.7744 21.0714C51.7224 21.2641 51.5959 21.4282 51.4229 21.5276L50.1254 22.2776C50.0111 22.3424 49.8817 22.3761 49.7504 22.3751Z" fill="#EAB657"/>
<path d="M51.0403 34.3751C50.9089 34.376 50.7796 34.3424 50.6653 34.2776L49.3678 33.5276C49.2821 33.4784 49.207 33.4128 49.1467 33.3345C49.0863 33.2562 49.042 33.1668 49.0163 33.0714C48.9905 32.976 48.9838 32.8764 48.9965 32.7784C49.0092 32.6804 49.0411 32.5858 49.0903 32.5001C49.1396 32.4145 49.2052 32.3393 49.2835 32.279C49.3618 32.2187 49.4512 32.1744 49.5466 32.1486C49.642 32.1228 49.7416 32.1161 49.8396 32.1288C49.9376 32.1415 50.0321 32.1734 50.1178 32.2226L51.4153 32.9726C51.5598 33.0545 51.673 33.182 51.7372 33.3352C51.8014 33.4883 51.813 33.6585 51.7701 33.8189C51.7272 33.9793 51.6323 34.121 51.5002 34.2216C51.3681 34.3223 51.2064 34.3763 51.0403 34.3751Z" fill="#EAB657"/>
<path d="M28.75 28H27.25C27.0511 28 26.8603 27.921 26.7197 27.7803C26.579 27.6397 26.5 27.4489 26.5 27.25C26.5 27.0511 26.579 26.8603 26.7197 26.7197C26.8603 26.579 27.0511 26.5 27.25 26.5H28.75C28.9489 26.5 29.1397 26.579 29.2803 26.7197C29.421 26.8603 29.5 27.0511 29.5 27.25C29.5 27.4489 29.421 27.6397 29.2803 27.7803C29.1397 27.921 28.9489 28 28.75 28Z" fill="#EAB657"/>
<path d="M30.2503 22.3751C30.1189 22.376 29.9896 22.3424 29.8753 22.2776L28.5778 21.5276C28.4921 21.4784 28.4169 21.4128 28.3566 21.3345C28.2963 21.2562 28.252 21.1668 28.2262 21.0714C28.2005 20.976 28.1937 20.8764 28.2064 20.7784C28.2191 20.6804 28.251 20.5858 28.3003 20.5001C28.3495 20.4145 28.4152 20.3393 28.4935 20.279C28.5717 20.2187 28.6611 20.1744 28.7566 20.1486C28.852 20.1228 28.9515 20.1161 29.0495 20.1288C29.1475 20.1415 29.2421 20.1734 29.3278 20.2226L30.6253 20.9726C30.7698 21.0545 30.883 21.182 30.9472 21.3352C31.0114 21.4883 31.023 21.6585 30.9801 21.8189C30.9372 21.9793 30.8422 22.121 30.7102 22.2216C30.5781 22.3223 30.4163 22.3763 30.2503 22.3751Z" fill="#EAB657"/>
<path d="M28.9603 34.3751C28.7943 34.3763 28.6325 34.3223 28.5004 34.2216C28.3684 34.121 28.2734 33.9793 28.2305 33.8189C28.1876 33.6585 28.1992 33.4883 28.2634 33.3352C28.3276 33.182 28.4408 33.0545 28.5853 32.9726L29.8828 32.2226C30.0559 32.1232 30.2614 32.0966 30.454 32.1486C30.6467 32.2006 30.8109 32.3271 30.9103 32.5001C31.0098 32.6732 31.0364 32.8787 30.9844 33.0714C30.9323 33.2641 30.8059 33.4282 30.6328 33.5276L29.3353 34.2776C29.221 34.3424 29.0917 34.3761 28.9603 34.3751Z" fill="#EAB657"/>
<path d="M40 19C38.3683 19 36.7733 19.4839 35.4165 20.3904C34.0598 21.2969 33.0024 22.5854 32.378 24.0929C31.7536 25.6004 31.5902 27.2592 31.9085 28.8595C32.2269 30.4598 33.0126 31.9298 34.1664 33.0836C35.3202 34.2374 36.7902 35.0232 38.3905 35.3415C39.9909 35.6598 41.6497 35.4964 43.1571 34.872C44.6646 34.2476 45.9531 33.1902 46.8596 31.8335C47.7661 30.4768 48.25 28.8817 48.25 27.25C48.25 25.062 47.3808 22.9635 45.8336 21.4164C44.2865 19.8692 42.188 19 40 19ZM39.625 26.5H40.375C40.8723 26.4503 41.369 26.6001 41.7557 26.9166C42.1425 27.2331 42.3878 27.6902 42.4375 28.1875C42.4872 28.6848 42.3374 29.1814 42.0209 29.5682C41.7044 29.955 41.2473 30.2003 40.75 30.25C40.75 30.4489 40.671 30.6397 40.5303 30.7803C40.3897 30.921 40.1989 31 40 31C39.8011 31 39.6103 30.921 39.4697 30.7803C39.329 30.6397 39.25 30.4489 39.25 30.25H38.5C38.3011 30.25 38.1103 30.171 37.9697 30.0303C37.829 29.8897 37.75 29.6989 37.75 29.5C37.75 29.3011 37.829 29.1103 37.9697 28.9697C38.1103 28.829 38.3011 28.75 38.5 28.75H40.375C40.4745 28.75 40.5698 28.7105 40.6402 28.6402C40.7105 28.5698 40.75 28.4745 40.75 28.375C40.75 28.2755 40.7105 28.1802 40.6402 28.1098C40.5698 28.0395 40.4745 28 40.375 28H39.625C39.16 28.0005 38.7115 27.8281 38.3664 27.5165C38.0213 27.2048 37.8043 26.7761 37.7576 26.3134C37.7109 25.8508 37.8377 25.3873 38.1135 25.0129C38.3893 24.6386 38.7943 24.38 39.25 24.2875V24.25C39.25 24.0511 39.329 23.8603 39.4697 23.7197C39.6103 23.579 39.8011 23.5 40 23.5C40.1989 23.5 40.3897 23.579 40.5303 23.7197C40.671 23.8603 40.75 24.0511 40.75 24.25H41.5C41.6989 24.25 41.8897 24.329 42.0303 24.4697C42.171 24.6103 42.25 24.8011 42.25 25C42.25 25.1989 42.171 25.3897 42.0303 25.5303C41.8897 25.671 41.6989 25.75 41.5 25.75H39.625C39.5255 25.75 39.4302 25.7895 39.3598 25.8598C39.2895 25.9302 39.25 26.0255 39.25 26.125C39.25 26.2245 39.2895 26.3198 39.3598 26.3902C39.4302 26.4605 39.5255 26.5 39.625 26.5Z" fill="#EAB657"/>
</svg>
