<svg width="80" height="80" viewBox="0 0 80 80" fill="none" xmlns="http://www.w3.org/2000/svg">
<path opacity="0.15" d="M40 80C62.0914 80 80 62.0914 80 40C80 17.9086 62.0914 0 40 0C17.9086 0 0 17.9086 0 40C0 62.0914 17.9086 80 40 80Z" fill="#FBCD5D"/>
<path d="M60.2658 48.2986L51.3378 58.6906C50.6802 59.4446 49.8687 60.0489 48.9579 60.4629C48.0471 60.8769 47.0582 61.0909 46.0578 61.0906H32.1378L29.6994 63.5194L19.0098 54.7594L25.149 48.7114C26.7895 47.0923 28.8673 45.9877 31.127 45.5332C33.3867 45.0787 35.73 45.2941 37.869 46.153H45.4242C46.1765 46.153 46.8981 46.4519 47.4301 46.9839C47.9621 47.5159 48.261 48.2374 48.261 48.9898C48.261 49.7422 47.9621 50.4637 47.4301 50.9957C46.8981 51.5277 46.1765 51.8266 45.4242 51.8266H39.5682C39.3537 51.8729 39.1615 51.9913 39.0237 52.162C38.8858 52.3327 38.8107 52.5456 38.8107 52.765C38.8107 52.9844 38.8858 53.1972 39.0237 53.368C39.1615 53.5387 39.3537 53.6571 39.5682 53.7034H46.2066C46.6778 53.7024 47.1435 53.6023 47.5735 53.4097C48.0035 53.217 48.3882 52.936 48.7026 52.585L55.8402 44.4106C56.0958 44.1206 56.406 43.8839 56.7531 43.7138C57.1002 43.5437 57.4774 43.4437 57.8632 43.4194C58.249 43.3951 58.6357 43.447 59.0014 43.5722C59.3671 43.6974 59.7046 43.8934 59.9946 44.149C60.2845 44.4046 60.5213 44.7148 60.6914 45.0619C60.8614 45.409 60.9615 45.7862 60.9858 46.172C61.0101 46.5578 60.9581 46.9446 60.8329 47.3103C60.7078 47.676 60.5118 48.0134 60.2562 48.3034L60.2658 48.2986Z" fill="#EAB657"/>
<path d="M58.5712 27.798C58.3925 24.8546 57.1427 22.0783 55.0575 19.9932C52.9724 17.9081 50.1962 16.6582 47.2528 16.4796C47.1588 16.4744 47.0648 16.4884 46.9765 16.5208C46.8881 16.5531 46.8073 16.6032 46.739 16.6679C46.6707 16.7326 46.6163 16.8106 46.5792 16.8971C46.5421 16.9836 46.523 17.0767 46.5232 17.1708V28.1484C46.5232 28.249 46.5631 28.3454 46.6342 28.4165C46.7053 28.4876 46.8018 28.5276 46.9024 28.5276H57.88C57.9741 28.5277 58.0672 28.5087 58.1537 28.4715C58.2401 28.4344 58.3181 28.3801 58.3828 28.3118C58.4475 28.2434 58.4976 28.1626 58.53 28.0743C58.5624 27.986 58.5764 27.8919 58.5712 27.798ZM54.5152 38.1132C55.686 36.3609 56.3746 34.3313 56.512 32.2284C56.5179 32.1277 56.5031 32.0269 56.4686 31.9322C56.4341 31.8375 56.3806 31.7508 56.3113 31.6775C56.2421 31.6042 56.1586 31.5459 56.066 31.5061C55.9734 31.4663 55.8736 31.4458 55.7728 31.446H47.0656C47.0059 31.4456 46.9475 31.4633 46.8979 31.4965C46.8484 31.5298 46.81 31.5772 46.7877 31.6326C46.7655 31.688 46.7604 31.7488 46.7731 31.8071C46.7859 31.8654 46.8158 31.9185 46.8592 31.9596L53.3968 38.2284C53.4741 38.3021 53.5666 38.3582 53.6677 38.3928C53.7688 38.4273 53.8762 38.4396 53.9825 38.4286C54.0888 38.4177 54.1915 38.3838 54.2835 38.3293C54.3754 38.2749 54.4545 38.2011 54.5152 38.1132ZM42.2944 19.8732H42.232C39.1693 20.0994 36.3081 21.4849 34.2313 23.7472C32.1545 26.0096 31.0184 28.9786 31.0545 32.0495C31.0907 35.1203 32.2962 38.0618 34.4256 40.2747C36.555 42.4876 39.448 43.8054 42.5152 43.9596C42.7264 43.9596 42.9376 43.9596 43.1488 43.9596C46.0334 43.9681 48.8246 42.9371 51.0112 41.0556C51.0993 40.9776 51.1703 40.8823 51.2198 40.7756C51.2694 40.6689 51.2963 40.5531 51.299 40.4355C51.3017 40.3179 51.2801 40.201 51.2355 40.0921C51.191 39.9832 51.1244 39.8847 51.04 39.8028L43.1488 31.9068V20.7324C43.1494 20.6196 43.1278 20.5077 43.0852 20.4032C43.0426 20.2987 42.9799 20.2037 42.9005 20.1234C42.8212 20.0432 42.7268 19.9794 42.6228 19.9356C42.5188 19.8919 42.4072 19.869 42.2944 19.8684V19.8732Z" fill="#EAB657"/>
</svg>
