<svg width="80" height="80" viewBox="0 0 80 80" fill="none" xmlns="http://www.w3.org/2000/svg">
<path opacity="0.15" d="M40 80C62.0914 80 80 62.0914 80 40C80 17.9086 62.0914 0 40 0C17.9086 0 0 17.9086 0 40C0 62.0914 17.9086 80 40 80Z" fill="#FBCD5D"/>
<path d="M58.6721 61.5041H40.0001H21.3281C21.4241 53.7281 21.1361 49.6001 26.1281 47.7761C30.6881 46.0481 33.4241 44.2241 33.4241 44.2241L36.9761 55.3601L37.4561 56.8481L39.0401 52.3841C35.3921 47.3441 39.3281 47.1041 40.0001 47.1041C40.6721 47.1041 44.5601 47.3441 40.9601 52.3841L42.5441 56.8481L43.0241 55.3601L46.5281 44.2241C46.5281 44.2241 49.2641 46.0001 53.8241 47.7761C58.9121 49.5521 58.5761 53.7281 58.6721 61.5041Z" fill="#FAC035"/>
<path d="M52.2398 30.7361C52.2398 37.5041 46.7678 42.9761 39.9998 42.9761C33.2318 42.9761 27.7598 37.5041 27.7598 30.7361C27.7598 23.9681 33.2318 18.4961 39.9998 18.4961C46.7678 18.4961 52.2398 24.0161 52.2398 30.7361ZM42.3518 29.9681C41.6798 29.5841 41.0078 29.3441 40.2878 29.0561C39.9038 28.9121 39.5198 28.6721 39.1838 28.4321C38.5118 27.9041 38.6558 27.0401 39.4238 26.7041C39.6638 26.6081 39.8558 26.5601 40.0958 26.5601C41.0078 26.5121 41.8718 26.6561 42.6878 27.0881C43.1198 27.2801 43.2158 27.2321 43.3598 26.8001C43.5038 26.3681 43.6478 25.8881 43.7438 25.4561C43.8398 25.1681 43.7438 24.9281 43.4558 24.8321C42.9278 24.5921 42.3998 24.4481 41.8238 24.3521C41.1038 24.2561 41.1038 24.2561 41.1038 23.4881C41.1038 22.4321 41.1038 22.4321 40.0478 22.4321C39.9038 22.4321 39.7598 22.4321 39.5678 22.4321C39.0878 22.4321 38.9918 22.5281 38.9918 23.0081C38.9918 23.2481 38.9918 23.4401 38.9918 23.6801C38.9918 24.3521 38.9918 24.3521 38.3678 24.5441C36.8318 25.1201 35.9198 26.1281 35.8238 27.8081C35.7278 29.2961 36.4958 30.2561 37.6958 30.9761C38.4638 31.4081 39.2798 31.6961 40.0478 32.0321C40.3358 32.1761 40.6718 32.3201 40.9118 32.5601C41.6798 33.1841 41.5358 34.2401 40.6238 34.6241C40.1438 34.8161 39.6158 34.8641 39.1358 34.8161C38.3198 34.7201 37.5518 34.4801 36.8318 34.1441C36.3998 33.9041 36.3038 34.0001 36.1598 34.4321C36.0158 34.8161 35.9198 35.2481 35.8238 35.6321C35.6798 36.1601 35.7278 36.3041 36.2558 36.5441C36.9278 36.8801 37.5998 37.0241 38.3198 37.1201C38.8958 37.2161 38.8958 37.2161 38.8958 37.7921C38.8958 38.0321 38.8958 38.3201 38.8958 38.6081C38.8958 38.9441 39.0398 39.1361 39.4238 39.1361C39.8078 39.1361 40.1918 39.1361 40.5758 39.1361C40.9118 39.1361 41.0558 38.9441 41.0558 38.6561C41.0558 38.2721 41.0558 37.9361 41.0558 37.5521C41.0558 37.1681 41.1998 36.9761 41.5358 36.8801C42.3518 36.6401 43.0238 36.2081 43.5998 35.5841C44.9918 33.7601 44.4158 31.1681 42.3518 29.9681Z" fill="#EAB657"/>
</svg>
