<svg width="80" height="80" viewBox="0 0 80 80" fill="none" xmlns="http://www.w3.org/2000/svg">
<path opacity="0.15" d="M40 80C62.0914 80 80 62.0914 80 40C80 17.9086 62.0914 0 40 0C17.9086 0 0 17.9086 0 40C0 62.0914 17.9086 80 40 80Z" fill="#FBCD5D"/>
<path d="M47.5 22V19C47.5 17.347 46.156 16 44.5 16H20.5C18.847 16 17.5 17.347 17.5 19V61C17.5 62.656 18.847 64 20.5 64H44.5C46.156 64 47.5 62.656 47.5 61V55H20.5V22H47.5Z" fill="#FBCD5D"/>
<path d="M49 25C41.545 25 35.5 31.045 35.5 38.5C35.5 45.955 41.545 52 49 52C56.455 52 62.5 45.955 62.5 38.5C62.5 31.045 56.455 25 49 25ZM50.5 44.269V46C50.5 46.828 49.828 47.5 49 47.5C48.172 47.5 47.5 46.828 47.5 46V44.293C47.017 44.155 46.564 43.948 46.156 43.678C45.466 43.216 45.283 42.286 45.742 41.593C46.204 40.906 47.134 40.726 47.824 41.179C48.136 41.389 48.544 41.5 49 41.5C49.918 41.5 50.5 41.008 50.5 40.75C50.5 40.492 49.918 40 49 40C46.519 40 44.5 38.317 44.5 36.25C44.5 34.621 45.757 33.247 47.5 32.731V31C47.5 30.172 48.172 29.5 49 29.5C49.828 29.5 50.5 30.172 50.5 31V32.707C50.983 32.845 51.436 33.052 51.844 33.322C52.531 33.781 52.717 34.714 52.258 35.404C51.799 36.091 50.869 36.274 50.176 35.818C49.864 35.611 49.456 35.5 49 35.5C48.082 35.5 47.5 35.992 47.5 36.25C47.5 36.508 48.082 37 49 37C51.481 37 53.5 38.683 53.5 40.75C53.5 42.379 52.243 43.753 50.5 44.269Z" fill="#EAB657"/>
</svg>
