<svg width="80" height="80" viewBox="0 0 80 80" fill="none" xmlns="http://www.w3.org/2000/svg">
<path opacity="0.15" d="M40 80C62.0914 80 80 62.0914 80 40C80 17.9086 62.0914 0 40 0C17.9086 0 0 17.9086 0 40C0 62.0914 17.9086 80 40 80Z" fill="#FBCD5D"/>
<path d="M50.0319 37.4079C50.4639 35.0559 52.5279 33.2799 55.0239 33.2799H56.0319C53.5359 27.0879 47.6799 22.6239 40.7679 21.9999C39.9519 21.9039 39.2319 22.5759 39.2319 23.3919V38.7039C39.2319 39.4719 38.6079 40.0959 37.8399 40.0959H22.5279C21.7119 40.0959 21.0879 40.8159 21.1359 41.6319C21.9519 51.1839 30.1599 58.6239 39.9999 58.1919C42.1119 58.0959 44.1279 57.6639 45.9519 56.8959C45.7599 56.3199 45.6159 55.6959 45.5679 55.0719C45.4239 53.6799 45.9039 52.2879 46.8639 51.2319C46.0479 49.9359 45.4719 48.4959 45.3279 46.9119C44.9919 42.9759 46.8639 39.3279 50.0319 37.4079Z" fill="#FBCD5D"/>
<path d="M35.2479 34.7198V19.4558C35.2479 18.6398 34.5279 17.9678 33.7119 18.0638C24.9279 18.7838 17.9679 25.7918 17.1999 34.5758C17.1519 35.3918 17.7759 36.1118 18.5919 36.1118H33.8079C34.6239 36.1118 35.2479 35.4878 35.2479 34.7198Z" fill="#EAB657"/>
<path d="M61.3117 49.5519C60.2077 48.3519 58.6237 47.6319 56.9917 47.6319H55.3117C54.8317 47.6319 54.3517 47.4399 54.0157 47.0559C53.6797 46.6719 53.5357 46.1919 53.5837 45.6639C53.6797 44.7519 54.4957 44.0799 55.4557 44.0799H57.4237C57.9517 44.0799 58.3837 44.4639 58.4797 44.9439C58.5757 45.3279 58.9117 45.6159 59.3437 45.6159H61.5997C61.8397 45.6159 62.1277 45.5199 62.2717 45.3279C62.4157 45.1359 62.5117 44.8959 62.5117 44.6559C62.2717 42.3039 60.4957 40.4799 58.1437 40.0959V38.2719C58.1437 37.7919 57.7597 37.3599 57.2317 37.3599H54.9757C54.4957 37.3599 54.0637 37.7439 54.0637 38.2719V40.1439C51.1357 40.7199 49.1677 43.4079 49.4557 46.3839C49.7437 49.3119 52.3837 51.6159 55.4557 51.6159H56.8957C57.3757 51.6159 57.8557 51.8079 58.1917 52.1919C58.5277 52.5759 58.6717 53.0559 58.6237 53.5839C58.5277 54.4479 57.7117 55.1679 56.7517 55.1679H54.8797C54.3517 55.1679 53.9197 54.8319 53.8237 54.3039C53.7277 53.9199 53.3917 53.6319 52.9597 53.6319H50.7037C50.4637 53.6319 50.1757 53.7279 50.0317 53.9199C49.8877 54.1119 49.7917 54.3519 49.7917 54.5919C50.0317 56.9439 51.8077 58.7679 54.1597 59.1519V60.9759C54.1597 61.4559 54.5437 61.8879 55.0717 61.8879H57.2797C57.7597 61.8879 58.1917 61.5039 58.1917 60.9759V59.0559C60.7357 58.4799 62.5597 56.4639 62.7997 54.0159C62.9437 52.3839 62.4157 50.7999 61.3117 49.5519Z" fill="#EAB657"/>
</svg>
