<svg width="80" height="80" viewBox="0 0 80 80" fill="none" xmlns="http://www.w3.org/2000/svg">
<path opacity="0.15" d="M40 80C62.0914 80 80 62.0914 80 40C80 17.9086 62.0914 0 40 0C17.9086 0 0 17.9086 0 40C0 62.0914 17.9086 80 40 80Z" fill="#FBCD5D"/>
<path d="M49.9992 22.1895H42.0012C41.4492 22.1895 41.0022 22.6515 41.0022 23.2215C41.0022 23.7915 41.4462 24.2505 42.0012 24.2505H50.0022C50.5542 24.2505 51.0012 23.7885 51.0012 23.2185C51.0012 22.6485 50.5542 22.1895 49.9992 22.1895Z" fill="#FBCD5D"/>
<path d="M52.8793 16.543C52.7083 16.21 52.3693 16 52.0003 16H40.0003C39.6313 16 39.2923 16.21 39.1183 16.546C38.9443 16.879 38.9653 17.287 39.1693 17.602L41.2603 20.839C41.4973 20.764 41.7373 20.686 41.9983 20.686H49.9993C50.2633 20.686 50.5033 20.761 50.7403 20.839L52.8313 17.602C53.0353 17.287 53.0563 16.879 52.8793 16.543Z" fill="#EAB657"/>
<path d="M20.5002 40H17.5002C16.6722 40 16.0002 40.672 16.0002 41.5V62.5C16.0002 63.328 16.6722 64 17.5002 64H20.5002C21.3282 64 22.0002 63.328 22.0002 62.5V41.5C22.0002 40.672 21.3282 40 20.5002 40Z" fill="#FAC035"/>
<path d="M63.0522 43.2378C61.5282 41.2728 58.6962 40.9218 56.7402 42.4488L45.6762 51.0528C44.8842 51.6678 43.9122 52.0008 42.9132 52.0008H32.5002C36.6432 52.0008 40.0002 48.6438 40.0002 44.5008C40.0002 43.6728 39.3282 43.0008 38.5002 43.0008H25.0002V52.0008V61.0008H44.9682C46.6362 61.0008 48.2562 60.4458 49.5732 59.4198L62.2632 49.5498C64.2252 48.0258 64.5762 45.1998 63.0522 43.2378Z" fill="#FAC035"/>
<path d="M56.8962 37.4163L50.4792 25.6533C50.3202 25.6863 50.1732 25.7493 50.0022 25.7493H42.0012C41.8332 25.7493 41.6862 25.6833 41.5272 25.6533L35.1072 37.4163C34.6692 38.2203 34.4022 39.0993 34.2222 39.9993H38.5002C40.9812 39.9993 43.0002 42.0183 43.0002 44.4993C43.0002 46.1073 42.6342 47.6343 41.9862 48.9993H42.9132C43.2492 48.9993 43.5672 48.8913 43.8342 48.6843L54.8982 40.0803C55.6632 39.4833 56.5272 39.0573 57.4362 38.7963C57.2742 38.3283 57.1332 37.8513 56.8962 37.4163Z" fill="#EAB657"/>
</svg>
