<svg width="353" height="440" viewBox="0 0 353 440" fill="none" xmlns="http://www.w3.org/2000/svg">
<path class="an-d-035" d="M164 360H96C92.6863 360 90 362.686 90 366V434C90 437.314 92.6863 440 96 440H164C167.314 440 170 437.314 170 434V366C170 362.686 167.314 360 164 360Z" fill="#EAEBF5"/>
<path class="an-d-040" d="M260 400C260 377.909 242.091 360 220 360C197.909 360 180 377.909 180 400C180 422.091 197.909 440 220 440C242.091 440 260 422.091 260 400Z" fill="#FAC035"/>
<path class="an-d-045" d="M189 170H257C260.314 170 263 167.314 263 164V96C263 92.6863 260.314 90 257 90L189 90C185.686 90 183 92.6863 183 96V164C183 167.314 185.686 170 189 170Z" fill="#EAEBF5"/>
<path class="an-d-055" d="M9 170H77C80.3137 170 83 167.314 83 164L83 96C83 92.6863 80.3137 90 77 90L9 90C5.68629 90 3 92.6863 3 96L3 164C3 167.314 5.68629 170 9 170Z" fill="#EAEBF5"/>
<path class="an-d-060" d="M93 40C93 62.0914 110.909 80 133 80C155.091 80 173 62.0914 173 40C173 17.9086 155.091 0 133 0C110.909 0 93 17.9086 93 40Z" fill="#EAEBF5"/>
<path class="an-d-065" d="M263 0C218.817 0 183 35.8172 183 80H257C260.314 80 263 77.3137 263 74V0Z" fill="#F07881"/>
<path class="an-d-070" d="M0 180C1.93129e-06 224.183 35.8172 260 80 260V186C80 182.686 77.3137 180 74 180H0Z" fill="#FAC035"/>
<path class="an-d-075" d="M89 310C89 332.091 106.909 350 129 350C151.091 350 169 332.091 169 310C169 287.909 151.091 270 129 270C106.909 270 89 287.909 89 310Z" fill="#EAEBF5"/>
<path class="an-d-080" d="M279 350H347C350.314 350 353 347.314 353 344V276C353 272.686 350.314 270 347 270H279C275.686 270 273 272.686 273 276V344C273 347.314 275.686 350 279 350Z" fill="#EAEBF5"/>
<path class="an-d-085" d="M6 270H74C77.3137 270 80 272.686 80 276V344C80 347.314 77.3137 350 74 350H6C2.68629 350 0 347.314 0 344V276C0 272.686 2.68629 270 6 270Z" fill="#EAEBF5"/>
<path class="an-d-090" d="M169 220C169 197.909 151.091 180 129 180C106.909 180 89 197.909 89 220V260H129C151.091 260 169 242.091 169 220Z" fill="#6CC8C5"/>
</svg>
