<svg width="80" height="80" viewBox="0 0 80 80" fill="none" xmlns="http://www.w3.org/2000/svg">
<path opacity="0.15" d="M40 80C62.0914 80 80 62.0914 80 40C80 17.9086 62.0914 0 40 0C17.9086 0 0 17.9086 0 40C0 62.0914 17.9086 80 40 80Z" fill="#FBCD5D"/>
<path d="M35.5 52H23.5C21.8425 52 20.875 53.3125 20.5 55L19 61H40L38.5 55C38.032 52.984 37.1575 52 35.5 52Z" fill="#FBCD5D"/>
<path d="M59.5 52H47.5C45.8425 52 44.875 53.3125 44.5 55L43 61H64L62.5 55C62.032 52.984 61.1575 52 59.5 52Z" fill="#EAB657"/>
<path d="M35.5 40H23.5C21.8425 40 20.875 41.3125 20.5 43L19 49H40L38.5 43C38.032 40.984 37.1575 40 35.5 40Z" fill="#FAC035"/>
<path d="M44.5 43L43 49H64L62.5 43C62.032 40.984 61.1575 40 59.5 40H47.5C45.8425 40 44.875 41.3125 44.5 43Z" fill="#FAC035"/>
<path d="M50.5 31C50.032 28.984 49.1575 28 47.5 28H35.5C33.8425 28 32.875 29.3125 32.5 31L31 37H52L50.5 31Z" fill="#FAC035"/>
<path d="M32.5 25C33.3265 25 34 24.3325 34 23.5V20.5C34 19.6735 33.3265 19 32.5 19C31.6675 19 31 19.6735 31 20.5V23.5C31 24.3325 31.6675 25 32.5 25Z" fill="#EAB657"/>
<path d="M26.8449 25.885C27.4254 26.4655 28.3629 26.4655 28.9374 25.885C29.5179 25.3045 29.5179 24.367 28.9374 23.7925L26.8449 21.7015C26.2704 21.121 25.3329 21.121 24.7524 21.7015C24.1779 22.276 24.1779 23.2135 24.7524 23.794L26.8449 25.885Z" fill="#EAB657"/>
<path d="M23.5 31H26.5C27.3265 31 28 30.3325 28 29.5C28 28.6735 27.3265 28 26.5 28H23.5C22.6675 28 22 28.6735 22 29.5C22 30.3325 22.6675 31 23.5 31Z" fill="#EAB657"/>
</svg>
