<svg width="416" height="848" viewBox="0 0 416 848" fill="none" xmlns="http://www.w3.org/2000/svg">
<path d="M289.5 400.214L289.5 303.786C289.5 295.897 295.901 289.5 303.8 289.5L400.2 289.5C408.099 289.5 414.5 295.897 414.5 303.786L414.5 400.214C414.5 408.103 408.099 414.5 400.2 414.5L303.8 414.5C295.901 414.5 289.5 408.103 289.5 400.214Z" stroke="white" stroke-opacity="0.35" stroke-width="3"/>
<path d="M-4.90501e-06 303.786L-6.90049e-07 400.214C-3.08946e-07 408.932 7.07374 416 15.7996 416L112.2 416C120.926 416 128 408.932 128 400.214L128 303.786C128 295.068 120.926 288 112.2 288L15.7996 288C7.07374 288 -5.28611e-06 295.068 -4.90501e-06 303.786Z" fill="#1DB2AD"/>
<path d="M80.368 337.216C75.088 336.784 70.144 334.528 66.4 330.784L65.44 329.776C65.056 329.392 64.528 329.2 64 329.2C63.472 329.2 62.944 329.392 62.56 329.776L61.6 330.784C57.856 334.528 52.912 336.784 47.632 337.216C46.576 337.312 45.76 338.176 45.76 339.232V345.04C45.76 357.232 52.384 368.56 62.992 374.56C63.28 374.752 63.664 374.8 64 374.8C64.336 374.8 64.672 374.704 65.008 374.56C75.616 368.56 82.24 357.232 82.24 345.04V339.232C82.24 338.176 81.424 337.312 80.368 337.216ZM72.784 348.112L63.808 357.856C63.424 358.24 62.896 358.48 62.368 358.528H62.32C61.792 358.528 61.264 358.336 60.88 357.952L55.84 352.816C55.072 352.048 55.072 350.752 55.84 349.984C56.608 349.216 57.904 349.216 58.672 349.984L62.272 353.584L69.808 345.376C70.576 344.56 71.824 344.512 72.64 345.232C73.456 346 73.504 347.296 72.784 348.112Z" fill="white"/>
<path d="M289.5 112.214L289.5 15.7865C289.5 7.89745 295.901 1.5 303.8 1.5L400.2 1.5C408.099 1.49999 414.5 7.89745 414.5 15.7865L414.5 112.214C414.5 120.103 408.099 126.5 400.2 126.5L303.8 126.5C295.901 126.5 289.5 120.103 289.5 112.214Z" stroke="white" stroke-opacity="0.35" stroke-width="3"/>
<path d="M288 495.947L288 496.053C288 531.37 316.654 560 352 560L352 560C387.346 560 416 531.37 416 496.053L416 495.947C416 460.63 387.346 432 352 432L352 432C316.654 432 288 460.63 288 495.947Z" fill="#E4515C"/>
<path d="M338.814 518.757L328.48 508.682L335.882 501.323C337.386 499.829 339.28 498.788 341.348 498.321C343.416 497.853 345.574 497.977 347.574 498.679L349.202 499.25H359.2C359.622 499.25 360.039 499.335 360.428 499.5C360.816 499.665 361.168 499.906 361.461 500.209C361.755 500.512 361.985 500.871 362.137 501.264C362.29 501.658 362.362 502.078 362.349 502.499C362.302 503.334 361.934 504.119 361.322 504.688C360.71 505.258 359.902 505.569 359.066 505.557H353.066C352.741 505.557 352.43 505.686 352.2 505.915C351.971 506.145 351.842 506.456 351.842 506.781C351.842 507.106 351.971 507.417 352.2 507.646C352.43 507.876 352.741 508.005 353.066 508.005H359.075C360.546 508.01 361.961 507.449 363.028 506.437C364.095 505.424 364.73 504.04 364.802 502.571C364.802 502.547 364.802 502.519 364.802 502.495L369.712 497.023C370.038 496.656 370.437 496.363 370.883 496.161C371.33 495.959 371.814 495.854 372.304 495.851C373.043 495.847 373.76 496.102 374.33 496.571C374.667 496.85 374.945 497.193 375.147 497.58C375.35 497.968 375.472 498.392 375.508 498.828C375.544 499.264 375.492 499.702 375.356 500.118C375.219 500.533 375.001 500.917 374.714 501.247L364.269 513.189C363.538 514.027 362.637 514.698 361.625 515.159C360.613 515.619 359.515 515.857 358.403 515.858H341.714L338.814 518.757ZM360.314 495.76C360.497 496.001 360.734 496.196 361.005 496.33C361.277 496.465 361.576 496.535 361.878 496.535C362.181 496.535 362.48 496.465 362.751 496.33C363.023 496.196 363.26 496.001 363.443 495.76L368.243 489.429C368.416 489.203 368.522 488.933 368.549 488.649C368.577 488.366 368.524 488.08 368.398 487.825C368.272 487.57 368.076 487.355 367.835 487.205C367.593 487.055 367.313 486.976 367.029 486.976H364.96L364.696 478.072C364.688 477.695 364.533 477.336 364.264 477.073C363.995 476.809 363.633 476.661 363.256 476.661H360.501C360.124 476.661 359.762 476.809 359.493 477.073C359.223 477.336 359.068 477.695 359.061 478.072L358.787 486.976H356.704C356.419 486.976 356.14 487.055 355.898 487.205C355.656 487.355 355.461 487.57 355.335 487.825C355.208 488.08 355.156 488.366 355.183 488.649C355.211 488.933 355.317 489.203 355.49 489.429L360.314 495.76ZM343.878 482.8H345.957L346.24 491.68C346.24 492.062 346.392 492.428 346.662 492.698C346.932 492.968 347.298 493.12 347.68 493.12H350.43C350.807 493.12 351.169 492.972 351.439 492.709C351.708 492.445 351.863 492.086 351.87 491.709L352.134 482.805H354.213C354.497 482.805 354.777 482.726 355.019 482.576C355.26 482.426 355.456 482.211 355.582 481.956C355.708 481.701 355.761 481.415 355.733 481.132C355.706 480.849 355.6 480.578 355.427 480.352L350.627 474.021C350.444 473.78 350.207 473.585 349.935 473.451C349.664 473.316 349.365 473.246 349.062 473.246C348.76 473.246 348.461 473.316 348.189 473.451C347.918 473.585 347.681 473.78 347.498 474.021L342.698 480.352C342.528 480.576 342.423 480.842 342.395 481.121C342.367 481.401 342.417 481.682 342.538 481.935C342.66 482.188 342.849 482.403 343.084 482.555C343.32 482.708 343.593 482.793 343.874 482.8H343.878Z" fill="white"/>
<path d="M145.509 126.5C146.307 57.8267 201.827 2.30665 270.5 1.50871L270.5 112.213C270.5 120.103 264.097 126.5 256.2 126.5L145.509 126.5Z" stroke="white" stroke-opacity="0.35" stroke-width="3"/>
<path d="M1.5 208.053L1.5 207.947C1.5 173.459 29.481 145.5 63.9999 145.5L64.0001 145.5C98.519 145.5 126.5 173.459 126.5 207.947L126.5 208.053C126.5 242.541 98.519 270.5 64.0001 270.5L63.9999 270.5C29.481 270.5 1.5 242.541 1.5 208.053Z" stroke="white" stroke-opacity="0.35" stroke-width="3"/>
<path d="M145.5 544.214L145.5 447.786C145.5 439.897 151.901 433.5 159.8 433.5L256.2 433.5C264.099 433.5 270.5 439.897 270.5 447.786L270.5 544.214C270.5 552.103 264.099 558.5 256.2 558.5L159.8 558.5C151.901 558.5 145.5 552.103 145.5 544.214Z" stroke="white" stroke-opacity="0.35" stroke-width="3"/>
<path d="M270 208.026C270 242.238 242.241 270 207.999 270C173.757 270 146 242.263 146 208.053L146 146L207.946 146C242.217 146 270 173.786 270 208.026Z" stroke="#5B76E5" stroke-width="4"/>
<path d="M414 845.984C346 844.926 291.074 790 290.016 722L400.2 722C407.824 722 414 728.174 414 735.786L414 845.984Z" stroke="#5B76E5" stroke-width="4"/>
<path d="M-5.59506e-06 576C70.6923 576 128 633.308 128 704L15.7996 704C7.07377 704 -3.08949e-07 696.932 -6.90055e-07 688.213L-5.59506e-06 576Z" fill="#EAB657"/>
<path d="M270.5 640.053L270.5 639.947C270.5 605.459 242.519 577.5 208 577.5L208 577.5C173.481 577.5 145.5 605.459 145.5 639.947L145.5 640.053C145.5 674.541 173.481 702.5 208 702.5L208 702.5C242.519 702.5 270.5 674.541 270.5 640.053Z" stroke="white" stroke-opacity="0.35" stroke-width="3"/>
<path d="M145.5 783.973C145.5 749.485 173.482 721.5 207.999 721.5C242.518 721.5 270.5 749.459 270.5 783.947L270.5 846.5L208.054 846.5C173.505 846.5 145.5 818.491 145.5 783.973Z" stroke="white" stroke-opacity="0.35" stroke-width="3"/>
</svg>
