<svg width="80" height="80" viewBox="0 0 80 80" fill="none" xmlns="http://www.w3.org/2000/svg">
<path opacity="0.15" d="M40 80C62.0914 80 80 62.0914 80 40C80 17.9086 62.0914 0 40 0C17.9086 0 0 17.9086 0 40C0 62.0914 17.9086 80 40 80Z" fill="#FBCD5D"/>
<path d="M60.3036 17.2002H28.7676C27.9996 17.2002 27.4236 17.8242 27.4236 18.5442V53.3442C27.4236 54.6402 26.9916 55.8402 26.2236 56.8002H38.0796V52.7682C36.0636 50.9922 34.7676 48.3522 34.7676 45.4242C34.7676 40.0482 39.1356 35.6802 44.5116 35.6802C49.8876 35.6802 54.3036 40.0482 54.3036 45.4242C54.3036 48.3522 53.0076 50.9442 50.9916 52.7682V56.8002H58.3836C60.2076 56.8002 61.6476 55.3602 61.6476 53.5362V18.5442C61.6956 17.8242 61.0716 17.2002 60.3036 17.2002ZM54.9276 31.1202H34.1916C33.5676 31.1202 33.0876 30.6402 33.0876 30.0162C33.0876 29.3922 33.5676 28.9122 34.1916 28.9122H54.9756C55.5996 28.9122 56.0796 29.3922 56.0796 30.0162C56.0316 30.6402 55.5516 31.1202 54.9276 31.1202ZM54.9276 24.9762H34.1916C33.5676 24.9762 33.0876 24.4962 33.0876 23.8722C33.0876 23.2482 33.5676 22.7682 34.1916 22.7682H54.9756C55.5996 22.7682 56.0796 23.2482 56.0796 23.8722C56.0316 24.4962 55.5516 24.9762 54.9276 24.9762Z" fill="#FAC035"/>
<path d="M18.3037 47.2001V53.3441C18.3037 55.3601 20.0317 56.9921 22.0957 56.8001C23.8717 56.6081 25.2157 55.0241 25.2157 53.2001V45.8081H19.6957C18.9277 45.8081 18.3037 46.4321 18.3037 47.2001Z" fill="#FAC035"/>
<path d="M44.5596 37.8882C40.3836 37.8882 36.9756 41.2962 36.9756 45.4722C36.9756 48.0642 38.3196 50.3682 40.2876 51.7602V61.7442C40.2876 62.1282 40.4796 62.5122 40.8156 62.7042C40.9596 62.8002 41.1516 62.8482 41.3436 62.8482C41.5356 62.8482 41.7276 62.8002 41.9196 62.7042L44.5116 61.1682L47.1036 62.7042C47.4396 62.8962 47.8716 62.8962 48.2076 62.7042C48.5436 62.5122 48.7356 62.1282 48.7356 61.7442V51.7122C50.7516 50.3682 52.0476 48.0642 52.0476 45.4242C52.1436 41.2482 48.7356 37.8882 44.5596 37.8882ZM48.3996 44.7522L47.0076 46.0482C46.9116 46.1442 46.8636 46.2882 46.9116 46.3842L47.2956 48.2562C47.3916 48.7362 46.8636 49.1202 46.4316 48.8802L44.7516 47.9202C44.6556 47.8722 44.5116 47.8722 44.3676 47.9202L42.6876 48.8802C42.2556 49.1202 41.7276 48.7362 41.8236 48.2562L42.2076 46.3842C42.2556 46.2402 42.2076 46.1442 42.1116 46.0482L40.7196 44.7522C40.3356 44.4162 40.5276 43.7922 41.0556 43.7442L42.9756 43.5522C43.1196 43.5522 43.2156 43.4562 43.2636 43.3602L44.0316 41.6322C44.2236 41.1522 44.8956 41.1522 45.0876 41.6322L45.9036 43.3602C45.9516 43.4562 46.0476 43.5522 46.1916 43.5522L48.1116 43.7442C48.5916 43.7922 48.7836 44.4162 48.3996 44.7522Z" fill="#EAB657"/>
</svg>
