<svg width="64" height="64" viewBox="0 0 64 64" fill="none" xmlns="http://www.w3.org/2000/svg">
<path opacity="0.15" d="M32 64C49.6731 64 64 49.6731 64 32C64 14.3269 49.6731 0 32 0C14.3269 0 0 14.3269 0 32C0 49.6731 14.3269 64 32 64Z" fill="#849CFE"/>
<path d="M21.3333 22.6663C21.3333 22.3127 21.4738 21.9736 21.7239 21.7235C21.9739 21.4735 22.3131 21.333 22.6667 21.333H25.5373C25.853 21.3332 26.1583 21.4452 26.399 21.6494C26.6397 21.8535 26.8003 22.1363 26.852 22.4477L27.8387 28.361C27.8858 28.6426 27.8413 28.932 27.7117 29.1864C27.5821 29.4408 27.3742 29.6469 27.1187 29.7743L25.0547 30.805C25.7948 32.6392 26.8971 34.3054 28.2957 35.704C29.6943 37.1026 31.3605 38.2049 33.1947 38.945L34.2267 36.881C34.354 36.6257 34.5599 36.418 34.8141 36.2884C35.0682 36.1588 35.3573 36.1142 35.6387 36.161L41.552 37.1477C41.8633 37.1994 42.1462 37.36 42.3503 37.6007C42.5544 37.8414 42.6665 38.1467 42.6667 38.4623V41.333C42.6667 41.6866 42.5262 42.0258 42.2762 42.2758C42.0261 42.5259 41.687 42.6663 41.3333 42.6663H38.6667C29.0933 42.6663 21.3333 34.9063 21.3333 25.333V22.6663Z" fill="#6583FE"/>
</svg>
