<svg width="48" height="18" viewBox="0 0 48 18" fill="none" xmlns="http://www.w3.org/2000/svg">
<path d="M1.11906 7.88116C0.50103 7.88116 1.52841e-05 8.38218 1.52588e-05 9.00021C1.52334e-05 9.61823 0.50103 10.1193 1.11906 10.1193V7.88116ZM47.6722 9.7915C48.1092 9.35448 48.1092 8.64594 47.6722 8.20892L40.5506 1.08734C40.1136 0.650329 39.4052 0.650329 38.9681 1.08734C38.5311 1.52436 38.5311 2.2329 38.9681 2.66992L45.2984 9.00021L38.9681 15.3305C38.5311 15.7675 38.5311 16.476 38.9681 16.9131C39.4052 17.3501 40.1136 17.3501 40.5506 16.9131L47.6722 9.7915ZM1.11906 10.1193H46.881V7.88116H1.11906V10.1193Z" fill="#EAEBF5"/>
</svg>
