<svg width="314" height="157" viewBox="0 0 314 157" fill="none" xmlns="http://www.w3.org/2000/svg">
<rect width="314" height="157" fill="#3093D9" fill-opacity="0.14"/>
<path d="M179.67 75.6392C179.995 75.9281 179.996 76.4293 179.689 76.7369C178.175 78.2541 176.672 79.7598 175.164 81.2703C174.864 81.5711 174.381 81.5729 174.052 81.3032C173.676 80.9941 173.273 80.7121 172.843 80.4659C169.812 78.7235 165.834 79.1618 163.251 81.5196C162.022 82.5316 160.449 83.9089 159.023 84.6496C157.606 85.38 156.117 85.9329 154.544 86.2354C151.118 86.8928 147.817 86.5067 144.63 85.0773C144.276 84.9209 143.942 84.7331 143.588 84.5558C143.547 84.5349 143.495 84.514 143.443 84.4827C142.839 86.7676 141.568 88.5517 139.558 89.7932C138.204 90.6278 136.736 91.0243 135.132 91.0347C135.132 90.9513 135.132 90.8887 135.132 90.8365C135.132 83.9401 135.111 77.0438 135.142 70.1476C135.163 66.0265 136.59 62.4165 139.339 59.3596C141.672 56.7722 144.557 55.1133 147.962 54.3621C149.545 54.0178 151.16 53.924 152.774 54.0596C154.982 54.2474 157.075 54.8629 159.033 55.9167C161.335 57.1478 163.23 58.838 164.719 60.9872C165.959 62.7608 166.802 64.7118 167.261 66.8402C167.511 67.9879 167.625 69.1459 167.625 70.3249C167.625 70.3562 167.625 70.377 167.625 70.4292C166.115 70.5335 164.647 70.8257 163.22 71.316C161.793 71.8063 160.449 72.4637 159.158 73.3192C159.231 73.1001 159.304 72.9019 159.356 72.7141C160.22 69.4902 159.523 66.642 157.148 64.2841C155.482 62.6252 153.409 61.874 151.056 61.947C147.723 62.0409 144.651 64.2424 143.568 67.4141C142.412 70.7735 143.109 73.7679 145.609 76.3031C146.952 77.6594 148.629 78.421 150.524 78.5983C153.076 78.8384 155.305 78.0663 157.169 76.2927C158.512 75.0198 159.97 73.9034 161.637 73.1001C163.334 72.2759 165.115 71.7542 166.99 71.5456C170 71.2222 172.874 71.6916 175.623 72.9645C177.073 73.637 178.462 74.5639 179.67 75.6392Z" fill="url(#paint0_linear_2_23)"/>
<path d="M145.609 76.3031C150.704 81.3758 152.774 82.4668 163.251 81.5196C162.022 82.5316 160.449 83.9089 159.023 84.6496C157.606 85.38 156.117 85.9329 154.544 86.2354C151.118 86.8928 147.817 86.5067 144.63 85.0773C144.276 84.9209 143.797 84.6601 143.443 84.4827C142.839 86.7676 141.568 88.5517 139.558 89.7932C138.428 90.4899 137.218 90.8813 135.916 90.9977C135.485 91.0362 135.132 90.6819 135.132 90.2484C135.13 83.6 135.112 76.782 135.142 70.1476C135.163 66.0265 136.59 62.4165 139.339 59.3596C141.672 56.7722 144.557 55.1133 147.962 54.3621C149.545 54.0178 151.16 53.924 152.774 54.0596C154.982 54.2474 157.075 54.8629 159.033 55.9167C161.335 57.1478 163.23 58.838 164.719 60.9872C165.959 62.7608 166.802 64.7118 167.261 66.8402C167.511 67.9879 167.625 69.1459 167.625 70.3249C167.625 70.3562 167.625 70.377 167.625 70.4292C166.115 70.5335 164.647 70.8257 163.22 71.316C161.793 71.8063 160.449 72.4637 159.158 73.3192C159.231 73.1001 159.304 72.9019 159.356 72.7141C160.22 69.4902 159.523 66.642 157.148 64.2841C155.482 62.6252 153.409 61.874 151.056 61.9471C147.723 62.0409 144.651 64.2424 143.568 67.4141C142.412 70.7735 143.07 73.7754 145.609 76.3031Z" fill="#3093D9"/>
<path d="M152.545 87.5709C155.638 87.3517 158.471 86.3815 161.074 84.6391C160.251 86.8614 160.283 89.042 161.251 91.1703C161.97 92.7666 163.105 94.0082 164.625 94.895C167.559 96.5977 171.298 96.3767 174.028 94.1388C174.359 93.8674 174.846 93.8663 175.149 94.1693C176.66 95.6831 178.165 97.1913 179.676 98.7051C179.976 99.0055 179.983 99.4922 179.674 99.7821C175.846 103.363 169.396 105.356 163.032 102.939C155.94 100.237 152.42 93.5073 152.545 87.5709Z" fill="#E3535E"/>
<path d="M151.356 73.9219C153.375 73.9219 155.011 72.2823 155.011 70.2598C155.011 68.2372 153.375 66.5977 151.356 66.5977C149.337 66.5977 147.7 68.2372 147.7 70.2598C147.7 72.2823 149.337 73.9219 151.356 73.9219Z" fill="#E3535E"/>
<path d="M168.61 91.4023C170.629 91.4023 172.265 89.7628 172.265 87.7402C172.265 85.7177 170.629 84.0781 168.61 84.0781C166.591 84.0781 164.954 85.7177 164.954 87.7402C164.954 89.7628 166.591 91.4023 168.61 91.4023Z" fill="#3093D9"/>
<defs>
<linearGradient id="paint0_linear_2_23" x1="157.686" y1="54" x2="157.686" y2="91.0347" gradientUnits="userSpaceOnUse">
<stop offset="0.859375" stop-color="#E9B661"/>
<stop offset="1" stop-color="#E9B661" stop-opacity="0"/>
</linearGradient>
</defs>
</svg>
