<svg width="32" height="32" viewBox="0 0 32 32" fill="none" xmlns="http://www.w3.org/2000/svg">
<path fill-rule="evenodd" clip-rule="evenodd" d="M8.39063 8.39045C8.64066 8.14049 8.97974 8.00007 9.33329 8.00007C9.68684 8.00007 10.0259 8.14049 10.276 8.39045L16 14.1144L21.724 8.39045C21.847 8.2631 21.9941 8.16153 22.1568 8.09165C22.3194 8.02177 22.4944 7.98499 22.6714 7.98345C22.8485 7.98191 23.024 8.01565 23.1879 8.08269C23.3518 8.14973 23.5006 8.24873 23.6258 8.37392C23.751 8.49911 23.85 8.64798 23.9171 8.81184C23.9841 8.97571 24.0178 9.15128 24.0163 9.32832C24.0148 9.50536 23.978 9.68032 23.9081 9.84299C23.8382 10.0057 23.7366 10.1528 23.6093 10.2758L17.8853 15.9998L23.6093 21.7238C23.8522 21.9753 23.9866 22.3121 23.9835 22.6616C23.9805 23.0112 23.8403 23.3457 23.5931 23.5929C23.3458 23.8401 23.0114 23.9803 22.6618 23.9833C22.3122 23.9864 21.9754 23.852 21.724 23.6091L16 17.8851L10.276 23.6091C10.0245 23.852 9.68769 23.9864 9.33809 23.9833C8.9885 23.9803 8.65408 23.8401 8.40687 23.5929C8.15966 23.3457 8.01943 23.0112 8.01639 22.6616C8.01336 22.3121 8.14775 21.9753 8.39063 21.7238L14.1146 15.9998L8.39063 10.2758C8.14066 10.0257 8.00024 9.68667 8.00024 9.33312C8.00024 8.97956 8.14066 8.64049 8.39063 8.39045Z" fill="#8993A1"/>
</svg>
