<svg width="390" height="410" viewBox="0 0 390 410" fill="none" xmlns="http://www.w3.org/2000/svg">
<path class="an-d-035" d="M170 375C170 355.67 185.67 340 205 340C224.33 340 240 355.67 240 375C240 394.33 224.33 410 205 410H170V375Z" fill="#FAC035"/>
<path class="an-d-040" d="M10 260H45C64.3299 260 79.9999 275.67 79.9999 294.999C79.9999 314.329 64.3299 329.999 45 329.999C25.67 329.999 10 314.329 10 294.999V260Z" fill="#6CC8C5"/>
<rect class="an-d-045" x="320" y="260" width="69.9999" height="69.9999" rx="4.99999" fill="#F07881"/>
<rect class="an-d-050" x="170" y="260" width="69.9999" height="69.9999" rx="4.99999" fill="white" fill-opacity="0.35"/>
<rect class="an-d-055" x="90" y="260" width="69.9999" height="69.9999" rx="35" fill="white" fill-opacity="0.35"/>
<rect class="an-d-060" x="90" y="340" width="69.9999" height="69.9999" rx="4.99999" fill="white" fill-opacity="0.35"/>
<rect class="an-d-065" y="0.000488281" width="69.9999" height="69.9999" rx="4.99999" fill="#FAC035"/>
</svg>
