<svg width="80" height="80" viewBox="0 0 80 80" fill="none" xmlns="http://www.w3.org/2000/svg">
<path opacity="0.15" d="M40 80C62.0914 80 80 62.0914 80 40C80 17.9086 62.0914 0 40 0C17.9086 0 0 17.9086 0 40C0 62.0914 17.9086 80 40 80Z" fill="#FBCD5D"/>
<path d="M20.8 25.5999H16V59.1999C16 61.8518 18.148 63.9999 20.8 63.9999H54.4V59.1999H20.8V25.5999Z" fill="#FBCD5D"/>
<path d="M59.2 16H30.4C27.748 16 25.5999 18.148 25.5999 20.8V49.6C25.5999 52.252 27.7479 54.4 30.4 54.4H59.2C61.8519 54.4 64 52.2521 64 49.6V20.8C64 18.148 61.8519 16 59.2 16ZM56.8 37.6H47.2V47.1999H42.4V37.6H32.8001V32.7999H42.4V23.2H47.2V32.7999H56.8V37.6Z" fill="#EAB657"/>
</svg>
