<svg width="80" height="80" viewBox="0 0 80 80" fill="none" xmlns="http://www.w3.org/2000/svg">
<path opacity="0.15" d="M40 80C62.0914 80 80 62.0914 80 40C80 17.9086 62.0914 0 40 0C17.9086 0 0 17.9086 0 40C0 62.0914 17.9086 80 40 80Z" fill="#FBCD5D"/>
<path d="M39.9999 36.6399C44.7039 36.6399 48.5439 32.7999 48.5439 28.1439C48.5439 23.4399 44.7039 19.6479 39.9999 19.6479C35.2959 19.6479 31.5039 23.4879 31.5039 28.1439C31.4559 32.7999 35.2959 36.6399 39.9999 36.6399ZM39.2799 23.6799V22.6239C39.2799 22.4799 39.3759 22.3839 39.5199 22.3839H40.4799C40.6239 22.3839 40.7199 22.4799 40.7199 22.6239V23.6799C42.0159 23.7279 43.1199 24.7359 43.2159 25.9839C43.2159 26.1279 43.1199 26.2239 42.9759 26.2239H42.0159C41.9199 26.2239 41.8239 26.1279 41.7759 26.0319C41.6799 25.5039 41.1999 25.0719 40.6239 25.0719H39.3279C38.7039 25.0719 38.1759 25.5519 38.1279 26.1759C38.0799 26.8479 38.6079 27.3759 39.2799 27.3759H40.5279C41.9679 27.3759 43.1679 28.5279 43.1679 29.9679C43.1679 31.3599 42.0159 32.4639 40.6239 32.5119V33.5679C40.6239 33.7119 40.5279 33.8079 40.3839 33.8079H39.4239C39.2799 33.8079 39.1839 33.7119 39.1839 33.5679V32.5119C37.8879 32.4639 36.7839 31.4559 36.6879 30.2079C36.6879 30.0639 36.7839 29.9679 36.9279 29.9679H37.8879C37.9839 29.9679 38.0799 30.0639 38.1279 30.1599C38.2239 30.6879 38.7039 31.1199 39.2799 31.1199H40.5759C41.1999 31.1199 41.7279 30.6399 41.7759 30.0159C41.8239 29.3439 41.2959 28.8159 40.6239 28.8159H39.3759C37.9359 28.8159 36.7359 27.6639 36.7359 26.2239C36.7839 24.8319 37.8879 23.6799 39.2799 23.6799Z" fill="#EAB657"/>
<path d="M30.976 47.9197L28.528 47.3438L26.416 53.0557L25.744 49.7917H25.84C26.128 49.7917 26.416 49.5517 26.416 49.2157V48.4957C26.416 48.2077 26.176 47.9197 25.84 47.9197H24.544C24.256 47.9197 23.968 48.1597 23.968 48.4957V49.2157C23.968 49.5037 24.208 49.7917 24.544 49.7917H24.64L23.968 53.0557L21.856 47.3438L19.408 47.9197C18.16 48.2077 17.248 49.3597 17.248 50.6557L17.2 55.9357C17.2 56.8477 17.968 57.6157 18.88 57.6157H30.16L30.208 53.4397C30.208 51.6157 31.216 50.0317 32.8 49.2637C32.416 48.5917 31.744 48.1117 30.976 47.9197Z" fill="#FAC035"/>
<path d="M62.752 50.6079C62.752 49.3119 61.84 48.2079 60.592 47.8719L58.144 47.2959L56.032 53.0079L55.36 49.7919H55.456C55.744 49.7919 56.032 49.5519 56.032 49.2159V48.4959C56.032 48.2079 55.792 47.9199 55.456 47.9199H54.16C53.872 47.9199 53.584 48.1599 53.584 48.4959V49.2159C53.584 49.5039 53.824 49.7919 54.16 49.7919H54.256L53.584 53.0559L51.472 47.3439L49.024 47.9199C48.256 48.1119 47.584 48.5919 47.248 49.2639C48.784 50.0319 49.84 51.6159 49.84 53.4399L49.888 57.6159H61.12C62.032 57.6159 62.8 56.8479 62.8 55.9359L62.752 50.6079Z" fill="#FAC035"/>
<path d="M45.8079 50.7039L43.3599 50.1279L41.1999 55.8399L40.5279 52.5759H40.6239C40.9119 52.5759 41.1999 52.3359 41.1999 51.9999V51.2799C41.1999 50.9919 40.9599 50.7039 40.6239 50.7039H39.3279C39.0399 50.7039 38.7519 50.9439 38.7519 51.2799V51.9999C38.7519 52.2879 38.9919 52.5759 39.3279 52.5759H39.4239L38.7999 55.8399L36.6399 50.1279L34.1919 50.7039C32.9439 50.9919 32.0319 52.1439 32.0319 53.4399L31.9839 58.7199C31.9839 59.6319 32.7519 60.3999 33.6639 60.3999H46.2879C47.1999 60.3999 47.9679 59.6319 47.9679 58.7199L47.9199 53.4399C47.9199 52.1439 47.0559 50.9919 45.8079 50.7039Z" fill="#FAC035"/>
<path d="M40 49.5522C42.7835 49.5522 45.04 47.2957 45.04 44.5122C45.04 41.7287 42.7835 39.4722 40 39.4722C37.2164 39.4722 34.96 41.7287 34.96 44.5122C34.96 47.2957 37.2164 49.5522 40 49.5522Z" fill="#FAC035"/>
<path d="M25.1679 46.7201C27.9514 46.7201 30.2079 44.4637 30.2079 41.6801C30.2079 38.8966 27.9514 36.6401 25.1679 36.6401C22.3844 36.6401 20.1279 38.8966 20.1279 41.6801C20.1279 44.4637 22.3844 46.7201 25.1679 46.7201Z" fill="#FAC035"/>
<path d="M54.832 46.7201C57.6155 46.7201 59.872 44.4637 59.872 41.6801C59.872 38.8966 57.6155 36.6401 54.832 36.6401C52.0485 36.6401 49.792 38.8966 49.792 41.6801C49.792 44.4637 52.0485 46.7201 54.832 46.7201Z" fill="#FAC035"/>
</svg>
