<svg width="416" height="840" viewBox="0 0 416 840" fill="none" xmlns="http://www.w3.org/2000/svg">
<path d="M290 392.214L290 295.786C290 288.174 296.177 282 303.8 282L400.2 282C407.823 282 414 288.174 414 295.786L414 392.214C414 399.826 407.823 406 400.2 406L303.8 406C296.177 406 290 399.826 290 392.214Z" stroke="#5B76E5" stroke-width="4"/>
<path d="M1.5 392.214L1.5 295.786C1.49999 287.897 7.90099 281.5 15.7996 281.5L112.2 281.5C120.099 281.5 126.5 287.897 126.5 295.786L126.5 392.214C126.5 400.103 120.099 406.5 112.2 406.5L15.7996 406.5C7.90099 406.5 1.5 400.103 1.5 392.214Z" stroke="white" stroke-opacity="0.35" stroke-width="3"/>
<path d="M289.5 112.214L289.5 15.7865C289.5 7.89745 295.901 1.5 303.8 1.5L400.2 1.5C408.099 1.49999 414.5 7.89745 414.5 15.7865L414.5 112.214C414.5 120.103 408.099 126.5 400.2 126.5L303.8 126.5C295.901 126.5 289.5 120.103 289.5 112.214Z" stroke="white" stroke-opacity="0.35" stroke-width="3"/>
<path d="M289.5 488.053L289.5 487.947C289.5 453.459 317.481 425.5 352 425.5L352 425.5C386.519 425.5 414.5 453.459 414.5 487.947L414.5 488.053C414.5 522.541 386.519 550.5 352 550.5L352 550.5C317.481 550.5 289.5 522.541 289.5 488.053Z" stroke="white" stroke-opacity="0.35" stroke-width="3"/>
<path d="M272 -2.99507e-06C201.308 9.49908e-08 144 57.3078 144 128L256.2 128C264.924 128 272 120.933 272 112.213L272 -2.99507e-06Z" fill="#EAB657"/>
<path d="M1.5 200.053L1.5 199.947C1.5 165.459 29.481 137.5 63.9999 137.5L64.0001 137.5C98.519 137.5 126.5 165.459 126.5 199.947L126.5 200.053C126.5 234.541 98.519 262.5 64.0001 262.5L63.9999 262.5C29.481 262.5 1.5 234.541 1.5 200.053Z" stroke="white" stroke-opacity="0.35" stroke-width="3"/>
<path d="M145.5 536.214L145.5 439.786C145.5 431.897 151.901 425.5 159.8 425.5L256.2 425.5C264.099 425.5 270.5 431.897 270.5 439.786L270.5 536.214C270.5 544.103 264.099 550.5 256.2 550.5L159.8 550.5C151.901 550.5 145.5 544.103 145.5 536.214Z" stroke="white" stroke-opacity="0.35" stroke-width="3"/>
<path d="M207.999 264C243.345 264 272 235.343 272 200.026C272 164.681 243.321 136 207.946 136L144 136L144 200.053C144 235.369 172.653 264 207.999 264Z" fill="#1DB2AD"/>
<path d="M414.5 838.491C345.826 837.693 290.307 782.174 289.509 713.5L400.2 713.5C408.1 713.5 414.5 719.897 414.5 727.786L414.5 838.491Z" stroke="white" stroke-opacity="0.35" stroke-width="3"/>
<path d="M-5.59506e-06 568C70.6923 568 128 625.308 128 696L15.7996 696C7.07377 696 -3.08949e-07 688.932 -6.90055e-07 680.213L-5.59506e-06 568Z" fill="#1DB2AD"/>
<path d="M270 632.053L270 631.947C270 597.736 242.243 570 208 570L208 570C173.757 570 146 597.736 146 631.947L146 632.053C146 666.264 173.757 694 208 694L208 694C242.243 694 270 666.264 270 632.053Z" stroke="#5B76E5" stroke-width="4"/>
<path d="M207.999 712C172.653 712 144 740.656 144 775.973C144 811.319 172.677 840 208.054 840L272 840L272 775.947C272 740.63 243.345 712 207.999 712Z" fill="#EAB657"/>
</svg>
