<svg width="24" height="18" viewBox="0 0 24 18" fill="none" xmlns="http://www.w3.org/2000/svg">
<path d="M22.75 10.1253C23.3714 10.1253 23.875 9.62163 23.875 9.0003C23.875 8.37899 23.3714 7.8753 22.75 7.8753V10.1253ZM0.45452 8.20477C0.0151815 8.64411 0.0151794 9.35641 0.454519 9.79576L7.61396 16.9552C8.0533 17.3946 8.76561 17.3946 9.20495 16.9552C9.64429 16.5159 9.64429 15.8036 9.20496 15.3642L2.841 9.00027L9.20498 2.63631C9.64432 2.19698 9.64432 1.48466 9.20498 1.04533C8.76565 0.605986 8.05333 0.605985 7.614 1.04532L0.45452 8.20477ZM22.75 7.8753L1.25002 7.87526L1.25001 10.1253L22.75 10.1253V7.8753Z" fill="#EAEBF5"/>
</svg>
