<svg width="24" height="24" viewBox="0 0 24 24" fill="none" xmlns="http://www.w3.org/2000/svg">
<rect x="0.5" y="0.5" width="23" height="23" rx="1.5" fill="#E4515C" stroke="#E4515C"/>
<path d="M8.56584 11.5915C8.25342 11.2791 7.74689 11.2791 7.43447 11.5915C7.12205 11.904 7.12205 12.4105 7.43447 12.7229L8.56584 11.5915ZM10.8286 14.9857L10.2629 15.5513C10.5753 15.8638 11.0818 15.8638 11.3943 15.5513L10.8286 14.9857ZM17.0511 9.89448C17.3635 9.58207 17.3635 9.07553 17.0511 8.76311C16.7387 8.45069 16.2322 8.45069 15.9197 8.76311L17.0511 9.89448ZM7.43447 12.7229L10.2629 15.5513L11.3943 14.42L8.56584 11.5915L7.43447 12.7229ZM11.3943 15.5513L17.0511 9.89448L15.9197 8.76311L10.2629 14.42L11.3943 15.5513Z" fill="white"/>
</svg>
