<svg preserveAspectRatio="none" width="1440" height="260" viewBox="0 0 1440 260" fill="none" xmlns="http://www.w3.org/2000/svg">
<mask id="mask0" mask-type="alpha" maskUnits="userSpaceOnUse" x="0" y="0" width="1440" height="260">
<rect width="1440" height="260" fill="url(#paint0_linear)"/>
</mask>
<g mask="url(#mask0)">
<g opacity="0.64">
<path opacity="0.25" d="M0.000123024 159.851L3.54926 158.566L0.000123024 158.947V157.662L14.149 156.115L0.000123024 161.231V159.851Z" fill="white" fill-opacity="0.35"/>
<path opacity="0.25" d="M-0.000244141 254.628L40.9222 234.807L-0.000244141 202.47V200.805L43.3518 235.069L-0.000244141 256.08V254.628Z" fill="white" fill-opacity="0.35"/>
<path opacity="0.25" d="M0.000736237 200.801L40.5421 232.829L8.50437 158.161L0.000736237 161.231V159.851L8.62351 156.734L9.19517 156.52L43.7578 237.017L0.000736237 202.467V200.801Z" fill="white" fill-opacity="0.35"/>
<path opacity="0.48" d="M218.974 81.4018L217.521 163.041L228.907 153.547L228.073 152.548L218.878 160.234L220.141 88.8734L229.55 148.622L230.836 148.408L220.26 81.3066L218.974 81.4018Z" fill="white" fill-opacity="0.35"/>
<path opacity="0.03" d="M227.265 148.837C227.527 150.431 229.028 151.526 230.624 151.288C232.22 151.026 233.315 149.527 233.077 147.933C232.815 146.338 231.315 145.244 229.719 145.482C228.099 145.72 227.003 147.219 227.265 148.837Z" fill="white" fill-opacity="0.35"/>
<path opacity="0.32" d="M226.478 150.906C227.716 149.859 229.574 150.026 230.622 151.263C231.67 152.5 231.504 154.356 230.265 155.38C229.027 156.427 227.169 156.26 226.121 155.023C225.073 153.785 225.239 151.929 226.478 150.906Z" fill="white" fill-opacity="0.35"/>
<path opacity="0.38" d="M273.285 0L218.69 25.9362L218.142 24.7465L270.26 0H273.285Z" fill="white" fill-opacity="0.35"/>
<path opacity="0.38" d="M217.879 0L216.688 23.7947L215.378 23.7233L216.593 0H217.879Z" fill="white" fill-opacity="0.35"/>
<path opacity="0.02" d="M213.118 23.4627C213.046 25.0807 214.285 26.4608 215.905 26.5322C217.525 26.6036 218.906 25.3663 218.978 23.7482C219.049 22.1302 217.81 20.7501 216.191 20.6787C214.571 20.6073 213.189 21.8447 213.118 23.4627Z" fill="white" fill-opacity="0.35"/>
<path opacity="0.42" d="M219.809 27.9339C218.356 28.6239 216.593 28.0052 215.902 26.5538C215.211 25.1023 215.831 23.3415 217.284 22.6514C218.737 21.9614 220.499 22.5801 221.19 24.0315C221.881 25.483 221.262 27.2438 219.809 27.9339Z" fill="white" fill-opacity="0.35"/>
<path opacity="0.3" d="M-0.000183105 256.077V254.626L41.8751 234.353L42.5182 234.02L71.5308 317.967L70.316 318.395L41.7798 235.828L-0.000183105 256.077Z" fill="white" fill-opacity="0.35"/>
<path opacity="0.4" d="M54.4285 77.5469L8.02747 157.449L8.38475 157.806L102.473 250.939L57.7156 77.999L56.4532 78.3321L100.02 246.679L9.67104 157.235L55.548 78.2131L54.4285 77.5469Z" fill="white" fill-opacity="0.35"/>
<path opacity="0.64" d="M59.9536 77.5695C59.5487 75.999 57.9528 75.071 56.3807 75.4755C54.8086 75.88 53.8797 77.4743 54.2846 79.0447C54.6895 80.6152 56.2854 81.5432 57.8575 81.1387C59.4057 80.7341 60.3585 79.1399 59.9536 77.5695Z" fill="white" fill-opacity="0.35"/>
<path opacity="0.06" d="M52.3799 76.5487C53.1898 75.1448 55.0001 74.6689 56.3817 75.478C57.7871 76.287 58.2635 78.0954 57.4536 79.4755C56.6438 80.8794 54.8334 81.3552 53.4518 80.5462C52.0464 79.7372 51.5701 77.9288 52.3799 76.5487Z" fill="white" fill-opacity="0.35"/>
<path opacity="0.29" d="M56.4549 78.3306L100.855 249.89L219.406 161.541L59.1465 76.2129L58.5272 77.355L217 161.731L101.641 247.701L57.7173 77.9975L56.4549 78.3306Z" fill="white" fill-opacity="0.35"/>
<path opacity="0.57" d="M60.358 74.2655C58.9289 73.5041 57.1424 74.0514 56.3801 75.479C55.6179 76.9067 56.1658 78.6913 57.5949 79.4528C59.0241 80.2142 60.8105 79.6669 61.5728 78.2392C62.3112 76.8116 61.7872 75.0269 60.358 74.2655Z" fill="white" fill-opacity="0.35"/>
<path opacity="0.06" d="M54.2846 79.0472C53.8796 77.4767 54.8324 75.8825 56.3807 75.4779C57.9528 75.0734 59.5487 76.0252 59.9536 77.5719C60.3585 79.1423 59.4057 80.7366 57.8575 81.1411C56.2854 81.5456 54.6895 80.6176 54.2846 79.0472Z" fill="white" fill-opacity="0.35"/>
<path opacity="0.11" d="M99.2797 248.987L208.637 276.351L212.543 201.207L211.257 201.136L207.422 274.709L103.21 248.63L209.78 200.16L209.232 198.971L99.2797 248.987Z" fill="white" fill-opacity="0.35"/>
<path opacity="0.39" d="M210.592 202.28C212.069 201.614 212.712 199.877 212.045 198.402C211.379 196.927 209.64 196.284 208.163 196.95C206.686 197.617 206.043 199.354 206.71 200.829C207.377 202.304 209.116 202.947 210.592 202.28Z" fill="white" fill-opacity="0.35"/>
<path opacity="0.16" d="M208.969 201.185C209.065 199.567 210.422 198.33 212.042 198.401C213.662 198.497 214.901 199.853 214.829 201.471C214.758 203.089 213.376 204.326 211.756 204.255C210.113 204.183 208.874 202.803 208.969 201.185Z" fill="white" fill-opacity="0.35"/>
<path opacity="0.36" d="M95.9925 251.914L209.78 200.161L209.232 198.971L106.497 245.704L217.283 163.136L211.876 195.545L213.138 195.759L219.117 160.162L95.9925 251.914Z" fill="white" fill-opacity="0.35"/>
<path opacity="0.53" d="M210.592 202.28C212.069 201.614 212.712 199.877 212.045 198.402C211.379 196.927 209.64 196.284 208.163 196.95C206.686 197.617 206.043 199.354 206.71 200.829C207.377 202.304 209.116 202.947 210.592 202.28Z" fill="white" fill-opacity="0.35"/>
<path opacity="0.34" d="M215.425 195.996C215.163 197.591 213.639 198.661 212.043 198.4C210.447 198.138 209.375 196.615 209.637 195.021C209.899 193.427 211.424 192.356 213.02 192.617C214.616 192.879 215.687 194.402 215.425 195.996Z" fill="white" fill-opacity="0.35"/>
<path opacity="0.5" d="M328.118 0L317.637 55.8461L316.351 55.6082L326.784 0H328.118Z" fill="white" fill-opacity="0.35"/>
<path opacity="0.5" d="M273.284 0L217.665 26.4121L314.016 56.9883L313.635 58.2494L214.14 26.6738L270.259 0H273.284Z" fill="white" fill-opacity="0.35"/>
<path opacity="0.65" d="M312.802 60.3691C314.351 60.8687 315.994 60.0121 316.495 58.4655C316.995 56.9188 316.137 55.277 314.589 54.7773C313.041 54.2776 311.397 55.1342 310.897 56.6809C310.397 58.2275 311.254 59.8694 312.802 60.3691Z" fill="white" fill-opacity="0.35"/>
<path opacity="0.13" d="M319.899 56.131C319.589 57.7253 318.065 58.7722 316.469 58.4629C314.873 58.1536 313.825 56.6307 314.134 55.0364C314.444 53.4422 315.969 52.3952 317.565 52.7046C319.16 52.9901 320.209 54.5368 319.899 56.131Z" fill="white" fill-opacity="0.35"/>
<path opacity="0.26" d="M328.12 0L317.448 56.7979L335.647 41.5931L336.48 42.5925L315.519 60.1292L326.786 0H328.12Z" fill="white" fill-opacity="0.35"/>
<path opacity="0.26" d="M335.786 0L338.645 37.4766L337.358 37.5718L334.476 0H335.786Z" fill="white" fill-opacity="0.35"/>
<path opacity="0.6" d="M335.075 37.6172C335.194 39.2352 336.599 40.4487 338.219 40.306C339.839 40.187 341.053 38.7831 340.91 37.1651C340.791 35.547 339.386 34.3335 337.766 34.4763C336.147 34.5952 334.932 35.9991 335.075 37.6172Z" fill="white" fill-opacity="0.35"/>
<path opacity="0.67" d="M334.071 39.9277C335.31 38.8807 337.168 39.0472 338.216 40.2846C339.264 41.5219 339.097 43.3779 337.859 44.4248C336.62 45.4718 334.762 45.3053 333.714 44.0679C332.666 42.8306 332.833 40.9746 334.071 39.9277Z" fill="white" fill-opacity="0.35"/>
<path opacity="0.3" d="M214.95 25.5566L226.383 65.5079L313.754 59.2975L313.659 58.1078L314.016 56.9894L214.95 25.5566ZM227.336 64.1516L216.855 27.5316L313.04 58.0602L227.336 64.1516Z" fill="white" fill-opacity="0.35"/>
<path opacity="0.28" d="M313.753 61.6037C315.373 61.4848 316.588 60.0809 316.469 58.4628C316.349 56.8448 314.944 55.6313 313.324 55.7502C311.705 55.8692 310.49 57.2731 310.609 58.8911C310.728 60.4854 312.133 61.6989 313.753 61.6037Z" fill="white" fill-opacity="0.35"/>
<path opacity="0.68" d="M314.564 54.7761C316.112 55.2758 316.97 56.9176 316.47 58.4643C315.969 60.0109 314.326 60.8675 312.778 60.3678C311.229 59.8681 310.372 58.2263 310.872 56.6797C311.372 55.1568 313.016 54.3002 314.564 54.7761Z" fill="white" fill-opacity="0.35"/>
<path opacity="0.03" d="M382.906 0H385.55L390.98 3.06951L390.337 4.21166L382.906 0Z" fill="white" fill-opacity="0.35"/>
<path opacity="0.03" d="M361.871 0L372.542 11.0407L390.216 5.25863L390.621 6.49595L372.185 12.516L360.084 0H361.871Z" fill="white" fill-opacity="0.35"/>
<path opacity="0.14" d="M389.075 6.11677C390.48 6.92579 392.267 6.4261 393.076 5.02221C393.886 3.61832 393.386 1.83372 391.981 1.0247C390.575 0.215683 388.789 0.715372 387.979 2.11926C387.169 3.52315 387.669 5.33154 389.075 6.11677Z" fill="white" fill-opacity="0.35"/>
<path opacity="0.63" d="M389.382 3.141C390.931 2.64131 392.574 3.47413 393.074 5.02078C393.575 6.56744 392.741 8.20927 391.193 8.70896C389.644 9.20865 388.001 8.37583 387.501 6.82918C387 5.30632 387.834 3.64069 389.382 3.141Z" fill="white" fill-opacity="0.35"/>
<path opacity="0.06" d="M385.549 0L390.861 2.99813L388.717 0H390.313L392.004 2.37947L390.956 3.09331L390.336 4.21166L382.905 0H385.549Z" fill="white" fill-opacity="0.35"/>
<path opacity="0.63" d="M389.075 6.11677C390.48 6.92579 392.267 6.4261 393.076 5.02221C393.886 3.61832 393.386 1.83372 391.981 1.0247C390.575 0.215683 388.789 0.715372 387.979 2.11926C387.169 3.52315 387.669 5.33154 389.075 6.11677Z" fill="white" fill-opacity="0.35"/>
<path opacity="0.13" d="M408.176 0L395.909 4.63996L395.457 3.42644L404.508 0H408.176Z" fill="white" fill-opacity="0.35"/>
<path opacity="0.17" d="M396.861 6.70962C395.336 7.28069 393.645 6.51926 393.073 4.9964C392.502 3.47354 393.264 1.78412 394.788 1.21304C396.313 0.64197 398.004 1.4034 398.576 2.92626C399.148 4.44912 398.385 6.13854 396.861 6.70962Z" fill="white" fill-opacity="0.35"/>
<path opacity="0.43" d="M346.937 0H348.39L358.133 19.1547L340.554 38.6664L339.601 37.8098L356.561 18.9406L346.937 0Z" fill="white" fill-opacity="0.35"/>
<path opacity="0.43" d="M335.786 0L338.645 37.4766L337.358 37.5718L334.476 0H335.786Z" fill="white" fill-opacity="0.35"/>
<path opacity="0.47" d="M335.075 37.6172C335.194 39.2352 336.599 40.4487 338.219 40.306C339.839 40.187 341.053 38.7831 340.91 37.1651C340.791 35.547 339.386 34.3335 337.766 34.4763C336.147 34.5952 334.932 35.9991 335.075 37.6172Z" fill="white" fill-opacity="0.35"/>
<path opacity="0.05" d="M342.36 40.094C341.288 41.3076 339.43 41.4027 338.216 40.3082C337.001 39.2374 336.905 37.3814 338.001 36.1679C339.073 34.9544 340.931 34.8592 342.146 35.9537C343.337 37.0245 343.432 38.8805 342.36 40.094Z" fill="white" fill-opacity="0.35"/>
<path opacity="0.06" d="M348.391 0L356.656 16.2756L355.513 16.8704L346.938 0H348.391Z" fill="white" fill-opacity="0.35"/>
<path opacity="0.06" d="M360.082 0H361.869L373.445 11.9687L360.13 18.4171L359.558 17.2511L371.278 11.588L360.082 0Z" fill="white" fill-opacity="0.35"/>
<path opacity="0.39" d="M353.414 17.774C354.152 19.2255 355.915 19.7966 357.368 19.0589C358.821 18.3213 359.393 16.5605 358.654 15.109C357.916 13.6575 356.153 13.0865 354.7 13.8241C353.247 14.5617 352.675 16.3225 353.414 17.774Z" fill="white" fill-opacity="0.35"/>
<path opacity="0.69" d="M361.277 20.4156C359.824 21.1294 358.061 20.5108 357.347 19.0593C356.632 17.6078 357.251 15.847 358.704 15.1332C360.157 14.4193 361.92 15.038 362.635 16.4895C363.326 17.9409 362.73 19.7017 361.277 20.4156Z" fill="white" fill-opacity="0.35"/>
<path opacity="0.23" d="M101.403 248.18L100.998 249.393L197.992 291.605L198.516 290.415L108.715 251.344L207.139 275.972L201.327 289.297L202.518 289.82L208.949 275.091L208.187 274.901L101.403 248.18Z" fill="white" fill-opacity="0.35"/>
<path opacity="0.24" d="M217.783 160.139L211.875 195.545L213.138 195.759L218.616 163.137L230.312 177.128L213.424 195.902L214.4 196.759L232.051 177.152L217.783 160.139Z" fill="white" fill-opacity="0.35"/>
<path opacity="0.3" d="M209.637 195.021C209.375 196.615 210.447 198.138 212.043 198.4C213.639 198.661 215.163 197.591 215.425 195.996C215.687 194.402 214.616 192.879 213.02 192.617C211.424 192.356 209.899 193.427 209.637 195.021Z" fill="white" fill-opacity="0.35"/>
<path opacity="0.03" d="M216.19 198.188C215.119 199.401 213.261 199.496 212.046 198.402C210.831 197.331 210.736 195.475 211.831 194.262C212.927 193.048 214.761 192.953 215.976 194.047C217.167 195.118 217.286 196.974 216.19 198.188Z" fill="white" fill-opacity="0.35"/>
<path opacity="0.12" d="M217.283 161.566L228.907 175.438L229.884 174.605L219.117 161.732L230.003 152.643L230.479 174.367L231.766 174.343L231.242 149.906L217.283 161.566Z" fill="white" fill-opacity="0.35"/>
<path opacity="0.58" d="M227.051 176.769C228.099 178.006 229.933 178.173 231.172 177.126C232.41 176.079 232.577 174.247 231.529 172.986C230.481 171.748 228.647 171.582 227.408 172.629C226.169 173.676 226.003 175.532 227.051 176.769Z" fill="white" fill-opacity="0.35"/>
<path opacity="0.32" d="M234.054 174.154C234.078 175.772 232.815 177.104 231.196 177.152C229.576 177.199 228.242 175.914 228.194 174.296C228.17 172.678 229.433 171.346 231.053 171.298C232.672 171.251 234.03 172.535 234.054 174.154Z" fill="white" fill-opacity="0.35"/>
<path opacity="0.48" d="M58.0946 73.1921L58.9283 74.1915L96.7065 42.6397L214.567 158.972L59.1427 76.214L58.5233 77.3562L221.832 164.302L96.778 40.8789L58.0946 73.1921Z" fill="white" fill-opacity="0.35"/>
<path opacity="0.32" d="M60.358 74.2655C58.9289 73.5041 57.1424 74.0514 56.3801 75.479C55.6179 76.9067 56.1658 78.6913 57.5949 79.4528C59.0241 80.2142 60.8105 79.6669 61.5728 78.2392C62.3112 76.8116 61.7872 75.0269 60.358 74.2655Z" fill="white" fill-opacity="0.35"/>
<path opacity="0.22" d="M60.5268 75.8347C59.2882 76.8816 57.4303 76.7151 56.3822 75.4777C55.3342 74.2404 55.5009 72.3844 56.7395 71.3612C57.9781 70.3143 59.8361 70.4808 60.8842 71.7182C61.9322 72.9555 61.7654 74.8115 60.5268 75.8347Z" fill="white" fill-opacity="0.35"/>
<path opacity="0.28" d="M94.3505 40.3066L215.76 160.137L216.665 159.232L99.1383 43.2096L218.952 81.876L217.594 158.852L218.904 158.876L220.286 80.9242L219.809 80.7814L94.3505 40.3066Z" fill="white" fill-opacity="0.35"/>
<path opacity="0.25" d="M215.331 158.665C215.307 160.283 216.594 161.615 218.213 161.639C219.833 161.663 221.167 160.378 221.191 158.76C221.215 157.142 219.928 155.809 218.309 155.785C216.689 155.762 215.355 157.047 215.331 158.665Z" fill="white" fill-opacity="0.35"/>
<path opacity="0.57" d="M218.165 157.499C219.309 158.641 219.332 160.497 218.189 161.639C217.046 162.782 215.188 162.805 214.045 161.663C212.901 160.521 212.877 158.665 214.021 157.523C215.164 156.381 217.022 156.357 218.165 157.499Z" fill="white" fill-opacity="0.35"/>
<path opacity="0.15" d="M0.00134277 157.64L7.07578 156.879L0.00134277 151.858V150.264L10.625 157.807L0.00134277 158.949V157.64Z" fill="white" fill-opacity="0.35"/>
<path opacity="0.43" d="M0.00219727 150.265L8.64874 156.404L54.9783 76.5964L0.00219727 94.1807V92.8006L56.1932 74.8594L57.7891 74.3359L9.41099 157.665L9.0537 158.284L0.00219727 151.859V150.265Z" fill="white" fill-opacity="0.35"/>
<path opacity="0.03" d="M229.958 150.787L230.482 174.367L231.768 174.344L231.292 151.739L258.256 143.648L232.459 174.582L233.459 175.414L262.02 141.174L229.958 150.787Z" fill="white" fill-opacity="0.35"/>
<path opacity="0.28" d="M228.194 174.271C228.218 175.889 229.575 177.174 231.195 177.126C232.815 177.079 234.101 175.746 234.053 174.128C234.03 172.51 232.672 171.225 231.052 171.273C229.432 171.32 228.146 172.653 228.194 174.271Z" fill="white" fill-opacity="0.35"/>
<path opacity="0.07" d="M235.318 176.771C234.27 178.008 232.436 178.174 231.197 177.151C229.958 176.104 229.792 174.272 230.816 173.035C231.864 171.797 233.698 171.631 234.937 172.654C236.175 173.677 236.342 175.533 235.318 176.771Z" fill="white" fill-opacity="0.35"/>
<path opacity="0.3" d="M218.524 78.5703L230.1 152.096L257.66 143.839L257.279 142.602L231.148 150.43L220.715 84.2335L258.065 140.46L259.137 139.746L218.524 78.5703Z" fill="white" fill-opacity="0.35"/>
<path opacity="0.6" d="M258.182 146.076C259.73 145.6 260.611 143.982 260.159 142.435C259.682 140.889 258.063 140.008 256.514 140.46C254.966 140.936 254.085 142.554 254.537 144.101C254.99 145.648 256.61 146.528 258.182 146.076Z" fill="white" fill-opacity="0.35"/>
<path opacity="0.01" d="M260.969 138.341C261.875 139.697 261.493 141.506 260.136 142.41C258.778 143.314 256.968 142.933 256.063 141.577C255.158 140.221 255.539 138.412 256.896 137.508C258.254 136.628 260.064 137.009 260.969 138.341Z" fill="white" fill-opacity="0.35"/>
<path opacity="0.48" d="M226.837 63.1992L218.857 81.4735L219.048 81.7591L258.041 140.461L258.803 139.961L259.637 139.604L226.837 63.1992ZM220.358 81.3308L226.837 66.4591L256.707 136.082L220.358 81.3308Z" fill="white" fill-opacity="0.35"/>
<path opacity="0.1" d="M256.064 141.601C256.97 142.957 258.78 143.314 260.138 142.434C261.496 141.529 261.853 139.721 260.971 138.365C260.066 137.008 258.256 136.652 256.898 137.532C255.54 138.436 255.183 140.245 256.064 141.601Z" fill="white" fill-opacity="0.35"/>
<path opacity="0.22" d="M261.685 138.557C262.328 140.056 261.638 141.769 260.137 142.411C258.636 143.054 256.921 142.364 256.278 140.865C255.635 139.366 256.326 137.652 257.826 137.01C259.327 136.391 261.042 137.081 261.685 138.557Z" fill="white" fill-opacity="0.35"/>
<path opacity="0.04" d="M225.885 64.2463L258.446 140.104L259.637 139.604L227.814 65.4122L315.209 59.2018L261.162 139.747L262.234 140.461L317.758 57.7266L225.885 64.2463Z" fill="white" fill-opacity="0.35"/>
<path opacity="0.24" d="M256.28 140.89C256.923 142.389 258.638 143.055 260.139 142.436C261.616 141.794 262.306 140.081 261.687 138.582C261.068 137.082 259.329 136.416 257.828 137.035C256.351 137.677 255.661 139.391 256.28 140.89Z" fill="white" fill-opacity="0.35"/>
<path opacity="0.08" d="M264.208 141.603C263.302 142.935 261.492 143.316 260.134 142.412C258.777 141.508 258.419 139.699 259.325 138.343C260.23 137.01 262.04 136.63 263.398 137.534C264.755 138.438 265.113 140.27 264.208 141.603Z" fill="white" fill-opacity="0.35"/>
<path opacity="0.54" d="M72.1279 242.943L71.1751 321.537L98.1391 318.587L97.9962 317.302L72.4852 320.086L73.3427 249.582L99.211 315.303L100.426 314.827L72.1279 242.943Z" fill="white" fill-opacity="0.35"/>
<path opacity="0.19" d="M41.0906 233.854L70.3175 318.396L71.3894 318.015L72.5327 318.039L73.4141 245.822L72.9853 245.656L41.0906 233.854ZM71.2227 317.064L43.2106 236.019L72.0802 246.726L71.2227 317.064Z" fill="white" fill-opacity="0.35"/>
<path opacity="0.64" d="M71.747 245.537L99.2111 315.303L100.307 314.875H101.498L101.879 248.226L71.747 245.537ZM100.211 314.28L73.724 247.012L100.593 249.416L100.211 314.28Z" fill="white" fill-opacity="0.35"/>
<path opacity="0.03" d="M5.90723 152.119L40.4459 232.617L41.6369 232.117L11.7907 162.565L70.9591 244.918L44.9955 235.282L44.5429 236.495L74.5083 247.607L5.90723 152.119Z" fill="white" fill-opacity="0.35"/>
<path opacity="0.37" d="M43.8766 238.709C42.3522 238.138 41.5899 236.448 42.1378 234.949C42.7094 233.426 44.4007 232.665 45.9013 233.212C47.4257 233.783 48.188 235.473 47.6401 236.972C47.0923 238.495 45.4011 239.256 43.8766 238.709Z" fill="white" fill-opacity="0.35"/>
<path opacity="0.69" d="M9.95648 159.972L72.3882 246.87L102.997 249.583L101.71 248.322L11.2904 158.83L10.671 159.449L9.95648 159.972ZM73.1028 245.657L13.9106 163.28L99.519 248.013L73.1028 245.657Z" fill="white" fill-opacity="0.35"/>
<path opacity="0.42" d="M13.0067 157.33C11.8633 156.188 10.0053 156.188 8.862 157.354C7.71864 158.52 7.71867 160.352 8.88584 161.494C10.0292 162.636 11.8871 162.636 13.0305 161.47C14.15 160.328 14.15 158.472 13.0067 157.33Z" fill="white" fill-opacity="0.35"/>
<path opacity="0.37" d="M8.17021 161.422C7.2174 160.113 7.52706 158.281 8.83717 157.329C10.1473 156.377 11.9814 156.687 12.9342 157.995C13.887 159.304 13.5774 161.136 12.2673 162.088C10.9572 163.04 9.12301 162.754 8.17021 161.422Z" fill="white" fill-opacity="0.35"/>
<path opacity="0.62" d="M217.879 0L216.688 23.7947L215.378 23.7233L216.593 0H217.879Z" fill="white" fill-opacity="0.35"/>
<path opacity="0.62" d="M190.868 0L214.426 24.104L213.497 25.0082L189.058 0H190.868Z" fill="white" fill-opacity="0.35"/>
<path opacity="0.26" d="M213.118 23.4627C213.046 25.0807 214.285 26.4608 215.905 26.5322C217.525 26.6036 218.906 25.3663 218.978 23.7482C219.049 22.1302 217.81 20.7501 216.191 20.6787C214.571 20.6073 213.189 21.8447 213.118 23.4627Z" fill="white" fill-opacity="0.35"/>
<path opacity="0.49" d="M215.95 22.3893C217.093 23.5552 217.07 25.4112 215.903 26.5295C214.735 27.6717 212.877 27.6479 211.758 26.482C210.614 25.316 210.638 23.46 211.805 22.3417C212.949 21.2233 214.807 21.2471 215.95 22.3893Z" fill="white" fill-opacity="0.35"/>
<path opacity="0.31" d="M115.647 0L97.8772 40.7841L177.721 20.0827L153.83 0H155.855L180.484 20.7014L95.6143 42.7115L114.241 0H115.647Z" fill="white" fill-opacity="0.35"/>
<path opacity="0.68" d="M100.425 39.879C98.8767 39.3794 97.2332 40.236 96.733 41.7588C96.2327 43.3055 97.0903 44.9473 98.6147 45.447C100.163 45.9467 101.807 45.0901 102.307 43.5672C102.831 42.0206 101.973 40.3549 100.425 39.879Z" fill="white" fill-opacity="0.35"/>
<path opacity="0.48" d="M100.33 43.8535C98.758 44.258 97.1621 43.33 96.7571 41.7596C96.3522 40.1891 97.2812 38.5949 98.8533 38.1904C100.425 37.7859 102.021 38.7139 102.426 40.2843C102.831 41.8548 101.878 43.449 100.33 43.8535Z" fill="white" fill-opacity="0.35"/>
<path opacity="0.13" d="M155.851 0L178.432 18.9882L178.408 0H179.718L179.742 21.7959L153.826 0H155.851Z" fill="white" fill-opacity="0.35"/>
<path opacity="0.49" d="M175.503 16.1816L217.545 79.4517L218.617 78.7379L182.673 24.6288L226.073 64.9845L220.142 78.5951L221.333 79.1186L227.621 64.6752L175.503 16.1816Z" fill="white" fill-opacity="0.35"/>
<path opacity="0.52" d="M218.094 77.5486C217.451 79.0239 218.118 80.7609 219.619 81.4034C221.095 82.0458 222.834 81.3796 223.477 79.8805C224.121 78.4052 223.454 76.6682 221.953 76.0258C220.476 75.3833 218.737 76.0734 218.094 77.5486Z" fill="white" fill-opacity="0.35"/>
<path opacity="0.48" d="M220.452 77.3332C221.357 78.6895 220.976 80.4979 219.619 81.4021C218.261 82.3063 216.451 81.9256 215.545 80.5693C214.64 79.213 215.021 77.4046 216.379 76.5004C217.713 75.62 219.547 76.0007 220.452 77.3332Z" fill="white" fill-opacity="0.35"/>
<path opacity="0.22" d="M177.075 19.3926L224.357 63.4127L225.238 62.461L181.124 21.3913L215.377 27.1259L225.453 62.342L226.691 61.9613L216.401 25.9599L215.996 25.9123L177.075 19.3926Z" fill="white" fill-opacity="0.35"/>
<path opacity="0.24" d="M223.217 62.8188C223.67 64.3655 225.289 65.2697 226.838 64.8414C228.386 64.3893 229.291 62.7712 228.862 61.2246C228.41 59.6779 226.79 58.7737 225.242 59.202C223.67 59.6303 222.765 61.2484 223.217 62.8188Z" fill="white" fill-opacity="0.35"/>
<path opacity="0.29" d="M226.693 60.6766C227.884 61.7712 227.955 63.6272 226.836 64.8169C225.74 66.0067 223.882 66.078 222.691 64.9597C221.5 63.8651 221.429 62.0091 222.548 60.8194C223.644 59.6535 225.502 59.5821 226.693 60.6766Z" fill="white" fill-opacity="0.35"/>
<path opacity="0.55" d="M179.721 0L179.745 19.8448L214.046 25.5793L189.059 0H190.869L217.762 27.5067L178.435 20.9393L178.411 0H179.721Z" fill="white" fill-opacity="0.35"/>
<path opacity="0.49" d="M100.591 247.037V248.798L100.21 314.852L101.52 314.876L101.877 250.583L167.12 328.486L103.711 317.493L103.473 318.754L170.383 330.39L100.591 247.037Z" fill="white" fill-opacity="0.35"/>
<path opacity="0.09" d="M98.9695 247.107L166.451 327.724L167.451 326.891L103.519 250.51L199.751 292.365L170.072 326.891L171.048 327.748L201.871 291.865L201.061 291.508L98.9695 247.107Z" fill="white" fill-opacity="0.35"/>
<path opacity="0.25" d="M63.6248 14.1581L64.1011 15.6572L64.0297 17.2514L133.25 20.4399L86.9681 6.87695L86.7062 6.94834L63.6248 14.1581ZM118.339 17.9415L65.3636 15.4906L86.992 8.73294L118.339 17.9415Z" fill="white" fill-opacity="0.35"/>
<path opacity="0.68" d="M64.4339 12.3006C62.1949 12.2054 60.2893 13.9424 60.194 16.1791C60.0988 18.4158 61.8138 20.3194 64.0766 20.4146C66.3157 20.5098 68.2212 18.7728 68.3165 16.5361C68.4118 14.2994 66.6968 12.3958 64.4339 12.3006Z" fill="white" fill-opacity="0.35"/>
<path opacity="0.4" d="M65.2905 18.8444C63.1468 19.5106 60.8601 18.3209 60.1931 16.1794C59.5262 14.0379 60.7171 11.7536 62.8609 11.0873C65.0047 10.4211 67.2915 11.6108 67.9584 13.7523C68.6254 15.8939 67.4343 18.1781 65.2905 18.8444Z" fill="white" fill-opacity="0.35"/>
<path opacity="0.35" d="M0 153.308L10.4092 142.815L0 130.846V128.086L12.8627 142.91L0 155.878V153.308Z" fill="white" fill-opacity="0.35"/>
<path opacity="0.64" d="M-0.000549316 128.088L11.3377 141.151L58.5486 17.9419L-0.000549316 45.3534V43.3546L61.8358 14.3965L12.481 143.197L11.9331 144.577L-0.000549316 130.848V128.088Z" fill="white" fill-opacity="0.35"/>
<path opacity="0.25" d="M60.0486 14.0391L59.3578 15.8475L12.1707 138.937L13.8619 139.58L60.3344 18.2983L125.624 135.392L15.4579 141.745L15.5532 143.53L128.578 137.01L60.0486 14.0391Z" fill="white" fill-opacity="0.35"/>
<path opacity="0.01" d="M9.28834 137.63C8.47848 139.724 9.52649 142.079 11.6226 142.865C13.7187 143.674 16.0769 142.627 16.8629 140.533C17.6728 138.439 16.6247 136.083 14.5286 135.298C12.4563 134.465 10.0982 135.512 9.28834 137.63Z" fill="white" fill-opacity="0.35"/>
<path opacity="0.6" d="M15.9365 146.694C13.6974 146.813 11.768 145.124 11.6489 142.863C11.5298 140.626 13.2211 138.699 15.484 138.58C17.723 138.461 19.6524 140.151 19.7715 142.411C19.8906 144.624 18.1755 146.551 15.9365 146.694Z" fill="white" fill-opacity="0.35"/>
<path opacity="0.25" d="M64.0986 15.4434L64.0033 17.2518L124.887 20.0595L126.173 132.656L62.86 19.1077L61.2878 19.9881L128.031 139.747L126.673 18.3225L125.816 18.2987L64.0986 15.4434Z" fill="white" fill-opacity="0.35"/>
<path opacity="0.16" d="M64.4339 12.3006C62.1949 12.2054 60.2893 13.9424 60.194 16.1791C60.0988 18.4158 61.8138 20.3194 64.0766 20.4146C66.3157 20.5098 68.2212 18.7728 68.3165 16.5361C68.4118 14.2994 66.6968 12.3958 64.4339 12.3006Z" fill="white" fill-opacity="0.35"/>
<path opacity="0.57" d="M58.6209 21.7003C57.5252 19.7492 58.2398 17.2745 60.193 16.18C62.1463 15.0854 64.6235 15.7993 65.7192 17.7504C66.8149 19.7016 66.1003 22.1762 64.1471 23.2708C62.1939 24.3653 59.7166 23.6515 58.6209 21.7003Z" fill="white" fill-opacity="0.35"/>
<path opacity="0.48" d="M435.188 33.5977L389.882 137.366L409.486 131.251L408.962 129.538L393.098 134.463L432.71 43.8056L412.94 125.279L414.703 125.707L436.903 34.1687L435.188 33.5977Z" fill="white" fill-opacity="0.35"/>
<path opacity="0.03" d="M409.915 124.327C409.391 126.516 410.725 128.706 412.916 129.229C415.108 129.753 417.299 128.42 417.823 126.231C418.347 124.042 417.013 121.853 414.822 121.329C412.631 120.806 410.439 122.162 409.915 124.327Z" fill="white" fill-opacity="0.35"/>
<path opacity="0.32" d="M407.819 126.562C409.963 125.896 412.249 127.085 412.916 129.227C413.583 131.368 412.392 133.653 410.248 134.319C408.105 134.985 405.818 133.796 405.151 131.654C404.484 129.512 405.675 127.228 407.819 126.562Z" fill="white" fill-opacity="0.35"/>
<path opacity="0.3" d="M9.71796 142.077L116.121 259.647L117.455 258.433L13.5768 143.648L126.149 137.152L118.717 257.981L120.504 258.1L128.055 135.248L127.054 135.296L9.71796 142.077Z" fill="white" fill-opacity="0.35"/>
<path opacity="0.7" d="M113.642 261.623C115.143 263.289 117.716 263.408 119.383 261.909C121.05 260.41 121.169 257.84 119.669 256.174C118.168 254.509 115.596 254.39 113.928 255.889C112.261 257.388 112.118 259.958 113.642 261.623Z" fill="white" fill-opacity="0.35"/>
<path opacity="0.09" d="M123.697 258.1C123.554 260.337 121.625 262.05 119.386 261.907C117.147 261.765 115.432 259.837 115.575 257.601C115.718 255.364 117.647 253.651 119.886 253.793C122.125 253.936 123.816 255.864 123.697 258.1Z" fill="white" fill-opacity="0.35"/>
<path opacity="0.01" d="M-0.00134277 260.646L1.47547 261.621L10.5508 145.241L-0.00134277 155.878V153.308L12.7422 140.482L3.02374 264.81L-0.00134277 262.811V260.646Z" fill="white" fill-opacity="0.35"/>
<path opacity="0.4" d="M152.473 0L126.89 19.4878L194.943 181.982L220.74 0H222.574L195.801 188.716L124.961 19.5354L124.675 18.893L149.495 0H152.473Z" fill="white" fill-opacity="0.35"/>
<path opacity="0.29" d="M222.572 0L196.442 184.147L389.883 135.392L278.644 0H280.979L393.098 136.439L194.274 186.55L220.738 0H222.572Z" fill="white" fill-opacity="0.35"/>
<path opacity="0.11" d="M192.749 184.551L318.184 277.684L363.18 183.576L361.56 182.79L317.493 274.947L197.965 186.169L360.202 180.744L360.131 178.936L192.749 184.551Z" fill="white" fill-opacity="0.35"/>
<path opacity="0.39" d="M360.107 183.909C362.346 183.838 364.108 181.958 364.037 179.721C363.966 177.484 362.084 175.724 359.845 175.795C357.606 175.866 355.843 177.746 355.914 179.983C355.986 182.22 357.868 183.98 360.107 183.909Z" fill="white" fill-opacity="0.35"/>
<path opacity="0.16" d="M358.607 181.625C359.584 179.603 362.014 178.746 364.038 179.722C366.063 180.697 366.921 183.124 365.944 185.147C364.967 187.169 362.538 188.026 360.513 187.05C358.512 186.075 357.655 183.648 358.607 181.625Z" fill="white" fill-opacity="0.35"/>
<path opacity="0.36" d="M186.983 186.549L360.201 180.743L360.13 178.935L203.729 184.17L389.523 137.342L365.322 175.96L366.847 176.912L393.43 134.486L186.983 186.549Z" fill="white" fill-opacity="0.35"/>
<path opacity="0.53" d="M360.107 183.909C362.346 183.838 364.108 181.958 364.037 179.721C363.966 177.484 362.084 175.724 359.845 175.795C357.606 175.866 355.843 177.746 355.914 179.983C355.986 182.22 357.868 183.98 360.107 183.909Z" fill="white" fill-opacity="0.35"/>
<path opacity="0.34" d="M369.636 178.412C368.445 180.315 365.944 180.886 364.039 179.696C362.133 178.507 361.561 176.008 362.752 174.105C363.943 172.201 366.445 171.63 368.35 172.82C370.256 174.009 370.827 176.508 369.636 178.412Z" fill="white" fill-opacity="0.35"/>
<path opacity="0.5" d="M610.004 0L575.108 53.3239L573.583 52.3245L607.836 0H610.004Z" fill="white" fill-opacity="0.35"/>
<path opacity="0.5" d="M507.194 0L569.84 52.8718L568.697 54.2519L504.383 0H507.194Z" fill="white" fill-opacity="0.35"/>
<path opacity="0.65" d="M566.483 56.5366C568.198 57.9881 570.77 57.7739 572.223 56.0607C573.676 54.3475 573.462 51.7776 571.747 50.3262C570.032 48.8747 567.459 49.0889 566.006 50.8021C564.553 52.5153 564.768 55.0851 566.483 56.5366Z" fill="white" fill-opacity="0.35"/>
<path opacity="0.13" d="M577.845 54.8703C576.606 56.7501 574.105 57.2736 572.223 56.0363C570.342 54.7989 569.818 52.3005 571.056 50.4207C572.295 48.5409 574.796 48.0175 576.678 49.2548C578.559 50.4921 579.083 52.9906 577.845 54.8703Z" fill="white" fill-opacity="0.35"/>
<path opacity="0.26" d="M625.246 0L611.764 40.9744L610.049 40.4272L623.365 0H625.246Z" fill="white" fill-opacity="0.35"/>
<path opacity="0.26" d="M610.004 0L574.346 54.4422L605.764 44.6626L606.288 46.3758L570.106 57.6545L607.836 0H610.004Z" fill="white" fill-opacity="0.35"/>
<path opacity="0.6" d="M607.12 39.2378C606.429 41.3794 607.572 43.6637 609.716 44.3775C611.86 45.0675 614.147 43.9254 614.861 41.7839C615.552 39.6424 614.409 37.3581 612.265 36.6442C610.121 35.9542 607.811 37.0963 607.12 39.2378Z" fill="white" fill-opacity="0.35"/>
<path opacity="0.67" d="M604.62 41.6869C606.764 41.0207 609.05 42.2104 609.717 44.3519C610.384 46.4935 609.193 48.7778 607.049 49.444C604.906 50.1103 602.619 48.9205 601.952 46.779C601.285 44.6375 602.476 42.3532 604.62 41.6869Z" fill="white" fill-opacity="0.35"/>
<path opacity="0.34" d="M845.531 0L837.194 29.2437L835.455 28.744L843.649 0H845.531Z" fill="white" fill-opacity="0.35"/>
<path opacity="0.34" d="M797.916 0L832.907 29.5292L831.74 30.9093L795.105 0H797.916Z" fill="white" fill-opacity="0.35"/>
<path opacity="0.46" d="M832.48 27.6978C831.86 29.8632 833.123 32.0999 835.266 32.7185C837.434 33.3372 839.673 32.0761 840.292 29.9345C840.912 27.7692 839.649 25.5325 837.506 24.9139C835.338 24.2714 833.099 25.5325 832.48 27.6978Z" fill="white" fill-opacity="0.35"/>
<path opacity="0.2" d="M834.79 26.9844C836.505 28.4359 836.72 31.0057 835.266 32.7189C833.813 34.4321 831.241 34.6463 829.526 33.1948C827.811 31.7433 827.597 29.1735 829.05 27.4603C830.503 25.7471 833.075 25.5329 834.79 26.9844Z" fill="white" fill-opacity="0.35"/>
<path opacity="0.02" d="M845.532 0L836.862 30.4096L877.975 0H881L833.694 35.002L843.651 0H845.532Z" fill="white" fill-opacity="0.35"/>
<path opacity="0.3" d="M456.934 0L455.076 15.9662L568.053 53.7046L504.383 0H507.194L569.84 52.8718L568.792 54.1329L568.268 55.6796L453.123 17.2036L455.124 0H456.934Z" fill="white" fill-opacity="0.35"/>
<path opacity="0.28" d="M567.08 58.629C569.2 59.3428 571.51 58.2007 572.225 56.0591C572.939 53.9414 571.796 51.6333 569.652 50.9195C567.532 50.2056 565.222 51.3478 564.507 53.4893C563.793 55.607 564.936 57.9151 567.08 58.629Z" fill="white" fill-opacity="0.35"/>
<path opacity="0.68" d="M571.747 50.3262C573.462 51.7776 573.676 54.3475 572.223 56.0607C570.77 57.7739 568.198 57.9881 566.483 56.5366C564.768 55.0851 564.553 52.5153 566.006 50.8021C567.459 49.0889 570.032 48.8747 571.747 50.3262Z" fill="white" fill-opacity="0.35"/>
<path opacity="0.03" d="M677.792 0L697.062 24.7465L695.657 25.841L675.506 0H677.792Z" fill="white" fill-opacity="0.35"/>
<path opacity="0.03" d="M659.378 0L669.24 25.1272L694.941 27.1259L694.798 28.9343L667.977 26.8404L657.425 0H659.378Z" fill="white" fill-opacity="0.35"/>
<path opacity="0.14" d="M693.015 27.6267C694.397 29.3875 696.945 29.7206 698.732 28.3405C700.494 26.9604 700.828 24.4144 699.446 22.6298C698.065 20.869 695.516 20.5359 693.73 21.916C691.967 23.2961 691.657 25.8421 693.015 27.6267Z" fill="white" fill-opacity="0.35"/>
<path opacity="0.63" d="M694.99 23.9607C697.229 24.1273 698.897 26.1022 698.73 28.3389C698.563 30.5756 696.61 32.2412 694.371 32.0747C692.132 31.9081 690.465 29.957 690.631 27.6965C690.798 25.4598 692.751 23.7941 694.99 23.9607Z" fill="white" fill-opacity="0.35"/>
<path opacity="0.06" d="M677.793 0L696.968 24.5799L691.371 0H693.229L698.755 24.3658L697.04 24.7703L695.658 25.841L675.507 0H677.793Z" fill="white" fill-opacity="0.35"/>
<path opacity="0.63" d="M693.015 27.6267C694.397 29.3875 696.945 29.7206 698.732 28.3405C700.494 26.9604 700.828 24.4144 699.446 22.6298C698.065 20.869 695.516 20.5359 693.73 21.916C691.967 23.2961 691.657 25.8421 693.015 27.6267Z" fill="white" fill-opacity="0.35"/>
<path opacity="0.24" d="M701.804 23.4623C702.304 25.6514 700.923 27.8167 698.731 28.3164C696.54 28.8161 694.372 27.436 693.872 25.2469C693.372 23.0577 694.753 20.8924 696.945 20.3927C699.136 19.9168 701.304 21.2969 701.804 23.4623Z" fill="white" fill-opacity="0.35"/>
<path opacity="0.13" d="M832.719 31.7183L795.107 0H797.918L837.84 33.6933L702.567 29.3626L702.639 27.5542L832.719 31.7183Z" fill="white" fill-opacity="0.35"/>
<path opacity="0.13" d="M693.229 0L698.755 24.3658L696.992 24.7703L691.371 0H693.229Z" fill="white" fill-opacity="0.35"/>
<path opacity="0.44" d="M693.872 25.2689C694.372 27.458 696.54 28.8381 698.731 28.3384C700.923 27.8387 702.304 25.6734 701.804 23.4843C701.304 21.2952 699.136 19.9151 696.945 20.4148C694.753 20.9145 693.372 23.0798 693.872 25.2689Z" fill="white" fill-opacity="0.35"/>
<path opacity="0.17" d="M702.661 32.5282C700.422 32.4568 698.659 30.577 698.73 28.3403C698.802 26.1036 700.684 24.3428 702.923 24.4142C705.162 24.4856 706.924 26.3654 706.853 28.6021C706.782 30.8388 704.9 32.5996 702.661 32.5282Z" fill="white" fill-opacity="0.35"/>
<path opacity="0.43" d="M642.538 0H644.349L646.469 27.8636L613.574 43.5205L612.811 41.8787L644.563 26.769L642.538 0Z" fill="white" fill-opacity="0.35"/>
<path opacity="0.43" d="M625.246 0L611.764 40.9744L610.049 40.4272L623.365 0H625.246Z" fill="white" fill-opacity="0.35"/>
<path opacity="0.47" d="M607.12 39.2378C606.429 41.3794 607.572 43.6637 609.716 44.3775C611.86 45.0675 614.147 43.9254 614.861 41.7839C615.552 39.6424 614.409 37.3581 612.265 36.6442C610.121 35.9542 607.811 37.0963 607.12 39.2378Z" fill="white" fill-opacity="0.35"/>
<path opacity="0.05" d="M615.125 46.2825C613.1 47.2581 610.67 46.3776 609.694 44.3551C608.717 42.3325 609.598 39.9055 611.623 38.9299C613.648 37.9543 616.077 38.8347 617.054 40.8573C618.031 42.9036 617.149 45.3307 615.125 46.2825Z" fill="white" fill-opacity="0.35"/>
<path opacity="0.06" d="M644.351 0L646.137 23.3902L644.327 23.5329L642.54 0H644.351Z" fill="white" fill-opacity="0.35"/>
<path opacity="0.06" d="M657.429 0H659.382L669.91 26.8166L649.425 28.0063L649.33 26.198L667.314 25.151L657.429 0Z" fill="white" fill-opacity="0.35"/>
<path opacity="0.39" d="M641.159 23.5788C641.326 25.8155 643.279 27.4811 645.518 27.3146C647.757 27.148 649.425 25.1968 649.258 22.9601C649.091 20.7234 647.138 19.0578 644.899 19.2244C642.66 19.3909 640.993 21.3421 641.159 23.5788Z" fill="white" fill-opacity="0.35"/>
<path opacity="0.69" d="M649.805 31.1472C647.566 31.2662 645.637 29.5768 645.517 27.3163C645.398 25.0796 647.09 23.1522 649.352 23.0333C651.592 22.9143 653.521 24.6037 653.64 26.8642C653.783 29.1009 652.068 31.0045 649.805 31.1472Z" fill="white" fill-opacity="0.35"/>
<path opacity="0.23" d="M195.894 184.646L194.727 185.979L296.438 291.532L297.724 290.295L203.564 192.57L316.447 276.399L301.916 290.366L303.155 291.675L319.233 276.232L318.376 275.59L195.894 184.646Z" fill="white" fill-opacity="0.35"/>
<path opacity="0.24" d="M391.763 133.775L365.323 175.963L366.847 176.915L391.215 138.058L398.742 162.186L367.133 177.248L367.919 178.866L400.934 163.138L391.763 133.775Z" fill="white" fill-opacity="0.35"/>
<path opacity="0.3" d="M362.752 174.105C361.561 176.008 362.133 178.507 364.039 179.696C365.944 180.886 368.445 180.315 369.636 178.412C370.827 176.508 370.256 174.009 368.35 172.82C366.445 171.63 363.943 172.201 362.752 174.105Z" fill="white" fill-opacity="0.35"/>
<path opacity="0.03" d="M369.445 181.624C367.42 182.6 364.991 181.719 364.014 179.697C363.037 177.674 363.919 175.247 365.943 174.272C367.968 173.296 370.398 174.177 371.374 176.199C372.351 178.245 371.493 180.672 369.445 181.624Z" fill="white" fill-opacity="0.35"/>
<path opacity="0.12" d="M390.359 135.321L397.839 159.259L399.554 158.712L392.622 136.511L411.392 130.658L400.411 158.735L402.103 159.402L414.417 127.826L390.359 135.321Z" fill="white" fill-opacity="0.35"/>
<path opacity="0.58" d="M394.764 159.994C395.431 162.135 397.718 163.325 399.862 162.659C402.006 161.993 403.197 159.708 402.53 157.567C401.863 155.425 399.576 154.236 397.432 154.902C395.288 155.568 394.074 157.852 394.764 159.994Z" fill="white" fill-opacity="0.35"/>
<path opacity="0.32" d="M405.127 160.354C404.318 162.448 401.959 163.471 399.863 162.662C397.767 161.853 396.743 159.497 397.553 157.403C398.363 155.309 400.721 154.286 402.817 155.095C404.889 155.904 405.937 158.26 405.127 160.354Z" fill="white" fill-opacity="0.35"/>
<path opacity="0.48" d="M280.978 0L388.263 130.585L333.358 0H335.311L394.718 141.269L278.644 0H280.978Z" fill="white" fill-opacity="0.35"/>
<path opacity="0.28" d="M335.312 0L390.812 132.013L389.168 132.703L333.358 0H335.312Z" fill="white" fill-opacity="0.35"/>
<path opacity="0.28" d="M394.766 0H397.553L436.594 33.265L437.118 33.7171L393.861 132.751L392.194 132.013L434.927 34.2168L394.766 0Z" fill="white" fill-opacity="0.35"/>
<path opacity="0.25" d="M389.381 130.561C388.476 132.608 389.429 135.011 391.478 135.915C393.526 136.819 395.932 135.867 396.837 133.821C397.742 131.775 396.789 129.372 394.741 128.467C392.692 127.563 390.287 128.515 389.381 130.561Z" fill="white" fill-opacity="0.35"/>
<path opacity="0.57" d="M393.672 130.609C394.553 132.679 393.576 135.058 391.504 135.939C389.432 136.819 387.05 135.843 386.168 133.773C385.311 131.703 386.263 129.324 388.336 128.443C390.408 127.563 392.79 128.539 393.672 130.609Z" fill="white" fill-opacity="0.35"/>
<path opacity="0.23" d="M62.3613 0L61.194 14.9193L85.8953 7.20979L84.1564 0H86.0144L87.8485 7.6143L88.0391 8.42332L59.1932 17.4177L60.5509 0H62.3613Z" fill="white" fill-opacity="0.35"/>
<path opacity="0.15" d="M86.0131 0L87.7281 7.09082L123.768 17.6557L112.668 0H114.811L127.817 20.7252L86.7039 8.68506L86.2036 8.54229L84.1552 0H86.0131Z" fill="white" fill-opacity="0.35"/>
<path opacity="0.43" d="M114.814 0L126.033 17.8698L149.495 0H152.473L126.342 19.9162L125.556 20.511L112.67 0H114.814Z" fill="white" fill-opacity="0.35"/>
<path opacity="0.03" d="M412.321 128.277L400.411 158.735L402.103 159.401L413.488 130.205L452.339 134.178L402.865 160.091L403.699 161.685L458.484 133.012L412.321 128.277Z" fill="white" fill-opacity="0.35"/>
<path opacity="0.28" d="M397.527 157.403C396.717 159.497 397.742 161.853 399.838 162.662C401.934 163.471 404.292 162.448 405.102 160.354C405.912 158.26 404.887 155.904 402.791 155.095C400.719 154.286 398.361 155.309 397.527 157.403Z" fill="white" fill-opacity="0.35"/>
<path opacity="0.07" d="M405.342 164.374C403.341 165.421 400.888 164.66 399.864 162.661C398.816 160.662 399.578 158.211 401.579 157.188C403.579 156.141 406.033 156.903 407.057 158.901C408.105 160.876 407.319 163.351 405.342 164.374Z" fill="white" fill-opacity="0.35"/>
<path opacity="0.3" d="M436.118 29.7422L411.798 130.037L451.481 134.082L451.672 132.297L414.037 128.443L435.927 38.1893L453.792 129.965L455.555 129.632L436.118 29.7422Z" fill="white" fill-opacity="0.35"/>
<path opacity="0.6" d="M450.957 137.222C453.196 137.46 455.197 135.818 455.412 133.605C455.65 131.369 454.006 129.37 451.791 129.156C449.552 128.918 447.551 130.56 447.337 132.773C447.098 134.985 448.718 136.984 450.957 137.222Z" fill="white" fill-opacity="0.35"/>
<path opacity="0.01" d="M458.627 128.824C459.056 131.037 457.627 133.155 455.411 133.583C453.196 134.012 451.076 132.584 450.647 130.371C450.219 128.158 451.648 126.04 453.863 125.612C456.078 125.184 458.198 126.635 458.627 128.824Z" fill="white" fill-opacity="0.35"/>
<path opacity="0.48" d="M454.983 14.4902L435.046 33.645L435.141 34.1208L453.792 129.966L455.031 129.728L456.269 129.704L454.983 14.4902ZM436.999 34.2636L453.22 18.6781L454.387 123.684L436.999 34.2636Z" fill="white" fill-opacity="0.35"/>
<path opacity="0.1" d="M450.647 130.37C451.076 132.583 453.22 134.011 455.411 133.582C457.627 133.154 459.056 131.012 458.627 128.823C458.198 126.61 456.054 125.183 453.863 125.611C451.672 126.039 450.219 128.181 450.647 130.37Z" fill="white" fill-opacity="0.35"/>
<path opacity="0.22" d="M459.437 129.492C459.461 131.729 457.651 133.585 455.412 133.609C453.173 133.633 451.315 131.824 451.291 129.587C451.267 127.351 453.077 125.495 455.316 125.471C457.555 125.447 459.413 127.232 459.437 129.492Z" fill="white" fill-opacity="0.35"/>
<path opacity="0.04" d="M453.17 15.3242L454.456 129.753L456.267 129.729L455.004 17.8465L570.197 56.3225L458.124 130.705L459.125 132.204L574.246 55.799L453.17 15.3242Z" fill="white" fill-opacity="0.35"/>
<path opacity="0.24" d="M451.291 129.587C451.315 131.824 453.149 133.633 455.412 133.609C457.651 133.585 459.461 131.753 459.437 129.492C459.413 127.256 457.579 125.447 455.316 125.471C453.077 125.495 451.267 127.327 451.291 129.587Z" fill="white" fill-opacity="0.35"/>
<path opacity="0.08" d="M461.059 134.725C459.177 135.963 456.652 135.463 455.414 133.583C454.175 131.703 454.675 129.181 456.557 127.944C458.439 126.706 460.964 127.206 462.202 129.086C463.441 130.966 462.917 133.488 461.059 134.725Z" fill="white" fill-opacity="0.35"/>
<path opacity="0.54" d="M161.215 162.375L118.149 262.479L154.236 273.044L154.736 271.331L120.602 261.313L159.238 171.536L157.38 269.403L159.166 269.427L161.215 162.375Z" fill="white" fill-opacity="0.35"/>
<path opacity="0.19" d="M126.318 134.25L118.719 258.006L120.267 258.101L121.72 258.72L161.285 166.754L160.809 166.325L126.318 134.25ZM120.601 256.793L127.89 138.152L159.141 167.182L120.601 256.793Z" fill="white" fill-opacity="0.35"/>
<path opacity="0.64" d="M115.572 257.601C115.429 259.837 117.144 261.765 119.383 261.907C121.622 262.05 123.552 260.337 123.695 258.1C123.838 255.864 122.123 253.936 119.884 253.793C117.645 253.651 115.715 255.364 115.572 257.601Z" fill="white" fill-opacity="0.35"/>
<path opacity="0.02" d="M124.718 259.768C123.837 261.838 121.431 262.79 119.383 261.885C117.31 261.005 116.357 258.602 117.263 256.555C118.144 254.485 120.55 253.533 122.598 254.438C124.647 255.318 125.6 257.721 124.718 259.768Z" fill="white" fill-opacity="0.35"/>
<path opacity="0.64" d="M159.356 165.492L157.379 269.404L159.023 269.427L160.547 270.07L196.539 184.956L159.356 165.492ZM159.19 268.618L161.095 168.443L194.205 185.765L159.19 268.618Z" fill="white" fill-opacity="0.35"/>
<path opacity="0.03" d="M124.793 10.9453L126.151 132.346L127.961 132.322L126.77 27.435L158.689 164.302L130.557 138.176L129.319 139.484L161.785 169.632L124.793 10.9453Z" fill="white" fill-opacity="0.35"/>
<path opacity="0.37" d="M127.317 141.935C125.674 140.413 125.578 137.843 127.103 136.201C128.627 134.559 131.2 134.464 132.843 135.987C134.487 137.51 134.582 140.079 133.058 141.721C131.533 143.387 128.961 143.458 127.317 141.935Z" fill="white" fill-opacity="0.35"/>
<path opacity="0.69" d="M125.792 23.1521L159.45 167.562L197.18 187.312L196.204 185.004L128.127 22.3906L127.007 22.8665L125.792 23.1521ZM161.022 166.349L129.103 29.4339L193.56 183.385L161.022 166.349Z" fill="white" fill-opacity="0.35"/>
<path opacity="0.42" d="M131.104 21.3688C130.246 19.2986 127.864 18.3231 125.792 19.1797C123.72 20.0363 122.743 22.4157 123.601 24.4859C124.458 26.556 126.84 27.5316 128.913 26.675C130.985 25.8184 131.985 23.4389 131.104 21.3688Z" fill="white" fill-opacity="0.35"/>
<path opacity="0.37" d="M122.746 24.0811C122.245 21.892 123.603 19.7028 125.795 19.2032C127.986 18.7035 130.177 20.0598 130.678 22.2489C131.178 24.438 129.82 26.6271 127.629 27.1268C125.437 27.6027 123.27 26.2464 122.746 24.0811Z" fill="white" fill-opacity="0.35"/>
<path opacity="0.6" d="M10.9337 140.342L1.28662 264.027L2.16795 264.122L101.068 272.831L101.211 271.022L3.21602 262.409L12.3391 145.386L101.997 269.666L103.45 268.595L10.9337 140.342Z" fill="white" fill-opacity="0.35"/>
<path opacity="0.49" d="M445.549 0H447.526L455.172 16.7753L439.427 31.9325L438.188 30.6476L453.004 16.3707L445.549 0Z" fill="white" fill-opacity="0.35"/>
<path opacity="0.49" d="M430.329 0L436.165 30.0051L434.402 30.3382L428.495 0H430.329Z" fill="white" fill-opacity="0.35"/>
<path opacity="0.52" d="M436.118 28.2218C434.499 29.7685 434.451 32.3383 435.999 33.9564C437.548 35.5744 440.144 35.622 441.74 34.0753C443.36 32.5287 443.407 29.9589 441.859 28.3408C440.311 26.7228 437.738 26.6752 436.118 28.2218Z" fill="white" fill-opacity="0.35"/>
<path opacity="0.48" d="M439.237 29.1974C439.665 31.4103 438.236 33.5281 436.021 33.9564C433.806 34.3847 431.686 32.957 431.257 30.7441C430.828 28.5312 432.257 26.4134 434.473 25.9851C436.664 25.5568 438.808 27.0083 439.237 29.1974Z" fill="white" fill-opacity="0.35"/>
<path opacity="0.22" d="M447.528 0L453.316 12.7064L451.673 13.444L445.551 0H447.528Z" fill="white" fill-opacity="0.35"/>
<path opacity="0.22" d="M456.934 0L455.433 12.8491L453.646 12.6588L455.099 0H456.934Z" fill="white" fill-opacity="0.35"/>
<path opacity="0.24" d="M450.53 12.0876C450.268 14.3243 451.864 16.323 454.103 16.5848C456.342 16.8465 458.343 15.2523 458.605 13.0156C458.867 10.7789 457.271 8.7801 455.032 8.51836C452.793 8.25662 450.792 9.85086 450.53 12.0876Z" fill="white" fill-opacity="0.35"/>
<path opacity="0.29" d="M456.104 11.2075C457.033 13.2538 456.128 15.6571 454.079 16.5851C452.031 17.5131 449.625 16.6089 448.696 14.5625C447.767 12.5162 448.672 10.1129 450.721 9.18492C452.769 8.25693 455.175 9.16113 456.104 11.2075Z" fill="white" fill-opacity="0.35"/>
<path opacity="0.49" d="M195.489 182.744L194.537 185.005L158.878 269.381L160.522 270.071L195.227 187.979L237.245 322.371L161.951 274.592L160.975 276.114L240.437 326.512L195.489 182.744Z" fill="white" fill-opacity="0.35"/>
<path opacity="0.09" d="M193.37 181.982L236.841 321.039L238.556 320.491L197.371 188.74L298.272 293.437L241.891 321.895L242.701 323.513L301.25 293.96L300.416 293.08L193.37 181.982Z" fill="white" fill-opacity="0.35"/>
<path opacity="0.24" d="M54.1902 0H56.0719L61.2885 16.6563L0.00018692 45.3527V43.3539L59.0971 15.6807L54.1902 0Z" fill="white" fill-opacity="0.35"/>
<path opacity="0.37" d="M56.0709 0L59.6677 11.4452L60.549 0H62.3594L60.7158 20.8917L54.1891 0H56.0709Z" fill="white" fill-opacity="0.35"/>
</g>
<g opacity="0.64">
<path opacity="0.25" d="M1440 205.372L1399.08 225.193L1440 257.53V259.195L1396.65 224.931L1440 203.92V205.372Z" fill="white" fill-opacity="0.35"/>
<path opacity="0.25" d="M1440 259.199L1399.46 227.171L1431.5 301.839L1440 298.769V300.149L1431.38 303.266L1430.8 303.48L1396.24 222.983L1440 257.533V259.199Z" fill="white" fill-opacity="0.35"/>
<path opacity="0.3" d="M1440 203.923V205.374L1398.12 225.647L1397.48 225.98L1368.47 142.033L1369.68 141.605L1398.22 224.172L1440 203.923Z" fill="white" fill-opacity="0.35"/>
<path opacity="0.3" d="M1440 173.869L1370.4 140.985L1370.97 139.795L1440 172.418V173.869Z" fill="white" fill-opacity="0.35"/>
<path opacity="0.7" d="M1372.07 137.795C1370.61 137.105 1368.85 137.723 1368.16 139.199C1367.47 140.65 1368.09 142.411 1369.57 143.101C1371.02 143.791 1372.78 143.172 1373.47 141.697C1374.16 140.246 1373.54 138.485 1372.07 137.795Z" fill="white" fill-opacity="0.35"/>
<path opacity="0.09" d="M1366.35 142.913C1365.83 141.39 1366.64 139.725 1368.16 139.177C1369.69 138.654 1371.35 139.463 1371.9 140.986C1372.42 142.509 1371.62 144.174 1370.09 144.721C1368.54 145.269 1366.87 144.46 1366.35 142.913Z" fill="white" fill-opacity="0.35"/>
<path opacity="0.4" d="M1385.57 382.453L1431.97 302.551L1431.62 302.194L1337.53 209.061L1382.28 382.001L1383.55 381.668L1339.98 213.321L1430.33 302.765L1384.45 381.787L1385.57 382.453Z" fill="white" fill-opacity="0.35"/>
<path opacity="0.29" d="M1383.55 381.669L1339.14 210.11L1220.59 298.459L1380.85 383.787L1381.47 382.645L1223 298.269L1338.36 212.299L1382.28 382.003L1383.55 381.669Z" fill="white" fill-opacity="0.35"/>
<path opacity="0.11" d="M1340.72 211.013L1231.36 183.649L1227.46 258.793L1228.74 258.864L1232.58 185.291L1336.79 211.37L1230.22 259.84L1230.77 261.029L1340.72 211.013Z" fill="white" fill-opacity="0.35"/>
<path opacity="0.39" d="M1229.41 257.72C1227.93 258.386 1227.29 260.123 1227.95 261.598C1228.62 263.073 1230.36 263.716 1231.84 263.05C1233.31 262.383 1233.96 260.646 1233.29 259.171C1232.62 257.696 1230.88 257.053 1229.41 257.72Z" fill="white" fill-opacity="0.35"/>
<path opacity="0.16" d="M1231.03 258.815C1230.94 260.433 1229.58 261.67 1227.96 261.599C1226.34 261.503 1225.1 260.147 1225.17 258.529C1225.24 256.911 1226.62 255.674 1228.24 255.745C1229.89 255.817 1231.13 257.197 1231.03 258.815Z" fill="white" fill-opacity="0.35"/>
<path opacity="0.36" d="M1344.01 208.086L1230.22 259.839L1230.77 261.029L1333.5 214.296L1222.72 296.864L1228.12 264.455L1226.86 264.241L1220.88 299.838L1344.01 208.086Z" fill="white" fill-opacity="0.35"/>
<path opacity="0.53" d="M1229.41 257.72C1227.93 258.386 1227.29 260.123 1227.95 261.598C1228.62 263.073 1230.36 263.716 1231.84 263.05C1233.31 262.383 1233.96 260.646 1233.29 259.171C1232.62 257.696 1230.88 257.053 1229.41 257.72Z" fill="white" fill-opacity="0.35"/>
<path opacity="0.23" d="M1338.6 211.82L1339 210.607L1242.01 168.395L1241.48 169.585L1331.28 208.656L1232.86 184.028L1238.67 170.703L1237.48 170.18L1231.05 184.909L1231.81 185.099L1338.6 211.82Z" fill="white" fill-opacity="0.35"/>
<path opacity="0.32" d="M1243.06 166.374C1241.58 165.732 1239.84 166.398 1239.2 167.897C1238.55 169.373 1239.22 171.11 1240.72 171.752C1242.2 172.394 1243.94 171.728 1244.58 170.229C1245.22 168.754 1244.53 167.017 1243.06 166.374Z" fill="white" fill-opacity="0.35"/>
<path opacity="0.11" d="M1235.34 169.397C1235.98 167.922 1237.72 167.232 1239.2 167.874C1240.68 168.516 1241.37 170.253 1240.72 171.729C1240.08 173.204 1238.34 173.894 1236.86 173.252C1235.36 172.609 1234.67 170.896 1235.34 169.397Z" fill="white" fill-opacity="0.35"/>
<path opacity="0.65" d="M1440 42.0702L1386.64 108.41L1440 105.578V106.887L1383.81 109.861L1440 40.0001V42.0702Z" fill="white" fill-opacity="0.35"/>
<path opacity="0.54" d="M1367.87 217.057L1368.82 138.463L1341.86 141.413L1342 142.698L1367.51 139.914L1366.66 210.418L1340.79 144.697L1339.57 145.173L1367.87 217.057Z" fill="white" fill-opacity="0.35"/>
<path opacity="0.69" d="M1342.96 144.006C1342.36 142.507 1340.67 141.769 1339.15 142.34C1337.65 142.935 1336.91 144.624 1337.48 146.147C1338.07 147.646 1339.77 148.384 1341.29 147.813C1342.81 147.218 1343.55 145.505 1342.96 144.006Z" fill="white" fill-opacity="0.35"/>
<path opacity="0.21" d="M1342.39 144.935C1340.77 145.102 1339.34 143.959 1339.15 142.341C1338.98 140.723 1340.15 139.296 1341.75 139.105C1343.36 138.939 1344.79 140.081 1344.98 141.699C1345.18 143.317 1344.01 144.768 1342.39 144.935Z" fill="white" fill-opacity="0.35"/>
<path opacity="0.19" d="M1398.91 226.146L1369.68 141.604L1368.61 141.985L1367.47 141.961L1366.59 214.178L1367.01 214.344L1398.91 226.146ZM1368.78 142.936L1396.79 223.981L1367.92 213.274L1368.78 142.936Z" fill="white" fill-opacity="0.35"/>
<path opacity="0.64" d="M1371.9 141.007C1371.38 139.484 1369.71 138.675 1368.16 139.199C1366.64 139.722 1365.83 141.388 1366.35 142.935C1366.87 144.458 1368.54 145.267 1370.09 144.743C1371.62 144.196 1372.42 142.53 1371.9 141.007Z" fill="white" fill-opacity="0.35"/>
<path opacity="0.02" d="M1365.21 142.08C1365.23 140.462 1366.57 139.177 1368.18 139.177C1369.8 139.201 1371.09 140.534 1371.09 142.152C1371.07 143.77 1369.73 145.055 1368.11 145.055C1366.47 145.031 1365.18 143.698 1365.21 142.08Z" fill="white" fill-opacity="0.35"/>
<path opacity="0.64" d="M1368.25 214.463L1340.79 144.697L1339.69 145.125H1338.5L1338.12 211.774L1368.25 214.463ZM1339.79 145.72L1366.28 212.988L1339.41 210.584L1339.79 145.72Z" fill="white" fill-opacity="0.35"/>
<path opacity="0.01" d="M1342.08 145.292C1342.08 143.674 1340.79 142.366 1339.17 142.342C1337.55 142.342 1336.24 143.627 1336.22 145.245C1336.22 146.863 1337.51 148.195 1339.12 148.195C1340.74 148.195 1342.05 146.91 1342.08 145.292Z" fill="white" fill-opacity="0.35"/>
<path opacity="0.26" d="M1337.5 146.147C1336.91 144.648 1337.65 142.935 1339.17 142.34C1340.67 141.745 1342.39 142.483 1342.98 144.006C1343.58 145.505 1342.84 147.218 1341.31 147.813C1339.79 148.408 1338.1 147.646 1337.5 146.147Z" fill="white" fill-opacity="0.35"/>
<path opacity="0.03" d="M1434.09 307.881L1399.55 227.383L1398.36 227.883L1428.21 297.435L1369.04 215.082L1395 224.718L1395.46 223.505L1365.49 212.393L1434.09 307.881Z" fill="white" fill-opacity="0.35"/>
<path opacity="0.37" d="M1396.12 221.291C1397.65 221.862 1398.41 223.552 1397.86 225.051C1397.29 226.574 1395.6 227.335 1394.1 226.788C1392.57 226.217 1391.81 224.527 1392.36 223.028C1392.91 221.505 1394.6 220.744 1396.12 221.291Z" fill="white" fill-opacity="0.35"/>
<path opacity="0.69" d="M1430.04 300.028L1367.61 213.13L1337 210.417L1338.29 211.678L1428.71 301.17L1429.33 300.551L1430.04 300.028ZM1366.9 214.343L1426.09 296.72L1340.48 211.987L1366.9 214.343Z" fill="white" fill-opacity="0.35"/>
<path opacity="0.6" d="M1440 167.657V169.18L1376.93 130.323L1377.59 129.228L1440 167.657Z" fill="white" fill-opacity="0.35"/>
<path opacity="0.6" d="M1440 108.457L1377.73 128.088L1377.35 126.851L1440 107.077V108.457Z" fill="white" fill-opacity="0.35"/>
<path opacity="0.41" d="M1376.81 124.639C1375.26 125.115 1374.4 126.78 1374.9 128.327C1375.38 129.874 1377.04 130.73 1378.59 130.23C1380.14 129.755 1381 128.089 1380.5 126.542C1380 124.996 1378.35 124.139 1376.81 124.639Z" fill="white" fill-opacity="0.35"/>
<path opacity="0.15" d="M1375.85 132.348C1374.47 131.491 1374.04 129.683 1374.9 128.302C1375.76 126.922 1377.57 126.494 1378.95 127.351C1380.33 128.207 1380.76 130.016 1379.9 131.396C1379.02 132.776 1377.21 133.204 1375.85 132.348Z" fill="white" fill-opacity="0.35"/>
<path opacity="0.18" d="M1440 108.457L1377.73 128.088L1377.35 126.851L1440 107.101V108.457Z" fill="white" fill-opacity="0.35"/>
<path opacity="0.18" d="M1440 106.886L1385.62 109.766L1376.78 126.16L1375.64 125.542L1384.81 108.504L1440 105.578V106.886Z" fill="white" fill-opacity="0.35"/>
<path opacity="0.68" d="M1376.81 124.639C1375.26 125.115 1374.4 126.78 1374.9 128.327C1375.38 129.874 1377.04 130.73 1378.59 130.23C1380.14 129.755 1381 128.089 1380.5 126.542C1380 124.996 1378.35 124.139 1376.81 124.639Z" fill="white" fill-opacity="0.35"/>
<path opacity="0.5" d="M1378.85 127.112C1378.09 128.539 1376.31 129.063 1374.88 128.301C1373.45 127.54 1372.92 125.755 1373.69 124.328C1374.45 122.9 1376.23 122.376 1377.66 123.138C1379.09 123.923 1379.62 125.684 1378.85 127.112Z" fill="white" fill-opacity="0.35"/>
<path opacity="0.37" d="M1378.93 127.351C1377.54 126.494 1375.73 126.922 1374.88 128.302C1374.02 129.683 1374.45 131.491 1375.83 132.348C1377.21 133.204 1379.02 132.776 1379.85 131.396C1380.74 130.016 1380.31 128.207 1378.93 127.351Z" fill="white" fill-opacity="0.35"/>
<path opacity="0.29" d="M1370.85 129.275C1371.71 127.895 1373.52 127.467 1374.87 128.324C1376.26 129.18 1376.69 130.989 1375.83 132.345C1374.97 133.725 1373.16 134.153 1371.78 133.297C1370.42 132.44 1369.99 130.656 1370.85 129.275Z" fill="white" fill-opacity="0.35"/>
<path opacity="0.49" d="M1339.41 212.963V211.202L1339.79 145.148L1338.48 145.124L1338.12 209.417L1272.88 131.514L1336.29 142.507L1336.53 141.246L1269.62 129.61L1339.41 212.963Z" fill="white" fill-opacity="0.35"/>
<path opacity="0.11" d="M1342.08 145.292C1342.08 143.674 1340.79 142.366 1339.17 142.342C1337.55 142.342 1336.24 143.627 1336.22 145.245C1336.22 146.863 1337.51 148.195 1339.12 148.195C1340.74 148.195 1342.05 146.91 1342.08 145.292Z" fill="white" fill-opacity="0.35"/>
<path opacity="0.65" d="M1336.77 138.963C1338.36 139.249 1339.43 140.748 1339.15 142.342C1338.86 143.936 1337.36 145.007 1335.77 144.721C1334.17 144.436 1333.1 142.937 1333.38 141.343C1333.65 139.748 1335.17 138.678 1336.77 138.963Z" fill="white" fill-opacity="0.35"/>
<path opacity="0.09" d="M1341.03 212.893L1273.55 132.276L1272.55 133.109L1336.48 209.49L1240.25 167.635L1269.93 133.109L1268.95 132.252L1238.13 168.135L1238.94 168.492L1341.03 212.893Z" fill="white" fill-opacity="0.35"/>
<path opacity="0.65" d="M1275.38 130.92C1274.33 129.683 1272.5 129.516 1271.26 130.563C1270.02 131.61 1269.85 133.443 1270.9 134.704C1271.95 135.941 1273.78 136.108 1275.05 135.061C1276.26 134.014 1276.43 132.181 1275.38 130.92Z" fill="white" fill-opacity="0.35"/>
<path opacity="0.25" d="M1267.12 130.873C1268.16 129.636 1270.02 129.493 1271.26 130.564C1272.5 131.611 1272.64 133.467 1271.57 134.704C1270.52 135.941 1268.66 136.084 1267.43 135.013C1266.21 133.966 1266.07 132.11 1267.12 130.873Z" fill="white" fill-opacity="0.35"/>
<path opacity="0.3" d="M1430.28 317.923L1323.88 200.353L1322.55 201.567L1426.42 316.352L1313.85 322.848L1321.28 202.019L1319.5 201.9L1311.95 324.752L1312.95 324.704L1430.28 317.923Z" fill="white" fill-opacity="0.35"/>
<path opacity="0.7" d="M1326.36 198.377C1324.86 196.711 1322.28 196.592 1320.62 198.091C1318.95 199.59 1318.83 202.16 1320.33 203.826C1321.83 205.491 1324.4 205.61 1326.07 204.111C1327.74 202.612 1327.88 200.042 1326.36 198.377Z" fill="white" fill-opacity="0.35"/>
<path opacity="0.09" d="M1316.3 201.9C1316.45 199.663 1318.38 197.95 1320.61 198.093C1322.85 198.235 1324.57 200.163 1324.43 202.399C1324.28 204.636 1322.35 206.349 1320.11 206.207C1317.87 206.064 1316.18 204.136 1316.3 201.9Z" fill="white" fill-opacity="0.35"/>
<path opacity="0.01" d="M1440 199.354L1438.52 198.379L1429.45 314.759L1440 304.122V306.692L1427.26 319.518L1436.98 195.19L1440 197.189V199.354Z" fill="white" fill-opacity="0.35"/>
<path opacity="0.11" d="M1247.25 275.449L1121.82 182.316L1076.82 276.424L1078.44 277.21L1122.51 185.053L1242.03 273.831L1079.8 279.256L1079.87 281.064L1247.25 275.449Z" fill="white" fill-opacity="0.35"/>
<path opacity="0.43" d="M1440 196.332L1435.5 199.426L1440 189.979V196.332Z" fill="white" fill-opacity="0.35"/>
<path opacity="0.23" d="M1244.11 275.354L1245.27 274.021L1143.56 168.468L1142.28 169.705L1236.44 267.43L1123.55 183.601L1138.08 169.634L1136.84 168.325L1120.77 183.768L1121.62 184.41L1244.11 275.354Z" fill="white" fill-opacity="0.35"/>
<path opacity="0.32" d="M1145.99 166.421C1144.44 164.803 1141.85 164.755 1140.25 166.302C1138.63 167.848 1138.58 170.418 1140.13 172.036C1141.68 173.654 1144.28 173.702 1145.87 172.155C1147.49 170.608 1147.54 168.039 1145.99 166.421Z" fill="white" fill-opacity="0.35"/>
<path opacity="0.11" d="M1134.49 166.182C1136.11 164.636 1138.68 164.683 1140.23 166.301C1141.78 167.919 1141.73 170.489 1140.11 172.036C1138.49 173.583 1135.92 173.535 1134.37 171.917C1132.82 170.299 1132.87 167.753 1134.49 166.182Z" fill="white" fill-opacity="0.35"/>
<path opacity="0.65" d="M1440 125.184L1360.66 168.514L1437.28 195.664L1440 189.977V194.165L1438.21 197.9L1356.25 168.871L1440 123.138V125.184Z" fill="white" fill-opacity="0.35"/>
<path opacity="0.54" d="M1278.79 297.625L1321.85 197.521L1285.76 186.956L1285.26 188.669L1319.4 198.687L1280.76 288.464L1282.62 190.597L1280.83 190.573L1278.79 297.625Z" fill="white" fill-opacity="0.35"/>
<path opacity="0.69" d="M1285.79 190.859C1285.84 188.623 1284.05 186.767 1281.81 186.719C1279.57 186.672 1277.72 188.456 1277.67 190.693C1277.62 192.929 1279.41 194.785 1281.65 194.833C1283.89 194.881 1285.74 193.096 1285.79 190.859Z" fill="white" fill-opacity="0.35"/>
<path opacity="0.21" d="M1284.55 191.764C1282.41 191.121 1281.17 188.885 1281.79 186.719C1282.43 184.578 1284.67 183.341 1286.84 183.959C1288.98 184.602 1290.22 186.838 1289.6 189.004C1288.98 191.169 1286.72 192.406 1284.55 191.764Z" fill="white" fill-opacity="0.35"/>
<path opacity="0.19" d="M1313.68 325.75L1321.28 201.994L1319.73 201.899L1318.28 201.28L1278.71 293.246L1279.19 293.675L1313.68 325.75ZM1319.4 203.207L1312.11 321.848L1280.86 292.818L1319.4 203.207Z" fill="white" fill-opacity="0.35"/>
<path opacity="0.64" d="M1324.43 202.399C1324.57 200.163 1322.86 198.235 1320.62 198.093C1318.38 197.95 1316.45 199.663 1316.31 201.9C1316.16 204.136 1317.88 206.064 1320.12 206.207C1322.36 206.349 1324.28 204.636 1324.43 202.399Z" fill="white" fill-opacity="0.35"/>
<path opacity="0.02" d="M1315.28 200.232C1316.16 198.162 1318.57 197.21 1320.62 198.115C1322.69 198.995 1323.64 201.398 1322.74 203.445C1321.86 205.515 1319.45 206.467 1317.4 205.562C1315.35 204.682 1314.4 202.279 1315.28 200.232Z" fill="white" fill-opacity="0.35"/>
<path opacity="0.64" d="M1280.64 294.508L1282.62 190.596L1280.98 190.573L1279.45 189.93L1243.46 275.044L1280.64 294.508ZM1280.81 191.382L1278.9 291.557L1245.8 274.235L1280.81 191.382Z" fill="white" fill-opacity="0.35"/>
<path opacity="0.01" d="M1283.96 192.048C1284.84 189.977 1283.86 187.598 1281.79 186.718C1279.72 185.837 1277.33 186.813 1276.45 188.883C1275.57 190.953 1276.55 193.333 1278.62 194.213C1280.72 195.093 1283.1 194.118 1283.96 192.048Z" fill="white" fill-opacity="0.35"/>
<path opacity="0.26" d="M1277.67 190.716C1277.72 188.48 1279.57 186.695 1281.81 186.743C1284.05 186.79 1285.84 188.646 1285.79 190.883C1285.74 193.119 1283.89 194.904 1281.65 194.856C1279.41 194.809 1277.62 192.953 1277.67 190.716Z" fill="white" fill-opacity="0.35"/>
<path opacity="0.6" d="M1429.07 319.658L1438.71 195.973L1437.83 195.878L1338.93 187.169L1338.79 188.978L1436.78 197.591L1427.66 314.614L1338 190.334L1336.55 191.405L1429.07 319.658Z" fill="white" fill-opacity="0.35"/>
<path opacity="0.41" d="M1339.43 184.051C1337.19 183.861 1335.22 185.503 1335.03 187.739C1334.84 189.976 1336.48 191.951 1338.72 192.141C1340.96 192.332 1342.93 190.69 1343.13 188.453C1343.32 186.216 1341.65 184.241 1339.43 184.051Z" fill="white" fill-opacity="0.35"/>
<path opacity="0.15" d="M1334.1 193.403C1332.79 191.595 1333.19 189.049 1335.03 187.74C1336.84 186.431 1339.39 186.836 1340.7 188.668C1342.01 190.476 1341.6 193.022 1339.77 194.331C1337.93 195.64 1335.41 195.235 1334.1 193.403Z" fill="white" fill-opacity="0.35"/>
<path opacity="0.18" d="M1440 197.877L1338.79 188.978L1338.93 187.169L1430.78 195.26L1358.63 169.704L1338.57 186.003L1337.43 184.6L1358.27 167.681L1440 196.616V197.877Z" fill="white" fill-opacity="0.35"/>
<path opacity="0.68" d="M1339.43 184.051C1337.19 183.861 1335.22 185.503 1335.03 187.739C1334.84 189.976 1336.48 191.951 1338.72 192.141C1340.96 192.332 1342.93 190.69 1343.13 188.453C1343.32 186.216 1341.65 184.241 1339.43 184.051Z" fill="white" fill-opacity="0.35"/>
<path opacity="0.5" d="M1340.74 188.336C1339 189.764 1336.43 189.478 1335.03 187.741C1333.6 186.004 1333.88 183.434 1335.62 182.03C1337.36 180.603 1339.93 180.888 1341.34 182.625C1342.74 184.338 1342.48 186.908 1340.74 188.336Z" fill="white" fill-opacity="0.35"/>
<path opacity="0.37" d="M1340.69 188.671C1339.38 186.862 1336.84 186.434 1335.03 187.743C1333.22 189.052 1332.79 191.598 1334.1 193.406C1335.41 195.214 1337.96 195.643 1339.77 194.334C1341.58 193.025 1342 190.479 1340.69 188.671Z" fill="white" fill-opacity="0.35"/>
<path opacity="0.29" d="M1329.33 186.812C1331.14 185.504 1333.69 185.908 1335 187.74C1336.31 189.573 1335.91 192.095 1334.07 193.403C1332.24 194.712 1329.72 194.308 1328.41 192.475C1327.1 190.667 1327.52 188.121 1329.33 186.812Z" fill="white" fill-opacity="0.35"/>
<path opacity="0.49" d="M1244.51 277.256L1245.46 274.995L1281.12 190.619L1279.48 189.929L1244.77 272.021L1202.75 137.629L1278.05 185.408L1279.03 183.886L1199.56 133.488L1244.51 277.256Z" fill="white" fill-opacity="0.35"/>
<path opacity="0.11" d="M1283.96 192.048C1284.84 189.977 1283.86 187.598 1281.79 186.718C1279.72 185.837 1277.33 186.813 1276.45 188.883C1275.57 190.953 1276.55 193.333 1278.62 194.213C1280.72 195.093 1283.1 194.118 1283.96 192.048Z" fill="white" fill-opacity="0.35"/>
<path opacity="0.65" d="M1280.55 181.125C1282.46 182.338 1283 184.837 1281.81 186.74C1280.6 188.644 1278.1 189.191 1276.19 188.002C1274.29 186.788 1273.74 184.29 1274.93 182.386C1276.14 180.482 1278.64 179.911 1280.55 181.125Z" fill="white" fill-opacity="0.35"/>
<path opacity="0.09" d="M1246.63 278.018L1203.16 138.961L1201.44 139.509L1242.63 271.26L1141.73 166.563L1198.11 138.105L1197.3 136.487L1138.75 166.04L1139.58 166.92L1246.63 278.018Z" fill="white" fill-opacity="0.35"/>
<path opacity="0.65" d="M1206.26 138.225C1205.59 136.083 1203.3 134.894 1201.16 135.56C1199.01 136.226 1197.82 138.51 1198.49 140.652C1199.16 142.793 1201.44 143.983 1203.59 143.317C1205.73 142.651 1206.92 140.366 1206.26 138.225Z" fill="white" fill-opacity="0.35"/>
<path opacity="0.25" d="M1195.7 133.776C1197.7 132.753 1200.16 133.562 1201.16 135.56C1202.16 137.559 1201.37 140.01 1199.37 141.009C1197.37 142.033 1194.92 141.224 1193.92 139.225C1192.89 137.226 1193.68 134.775 1195.7 133.776Z" fill="white" fill-opacity="0.35"/>
</g>
</g>
<defs>
<linearGradient id="paint0_linear" x1="720" y1="0" x2="720" y2="260" gradientUnits="userSpaceOnUse">
<stop stop-color="#E9747D"/>
<stop offset="1" stop-color="#E4515C"/>
</linearGradient>
</defs>
</svg>
