<svg width="80" height="80" viewBox="0 0 80 80" fill="none" xmlns="http://www.w3.org/2000/svg">
<path opacity="0.15" d="M40 80C62.0914 80 80 62.0914 80 40C80 17.9086 62.0914 0 40 0C17.9086 0 0 17.9086 0 40C0 62.0914 17.9086 80 40 80Z" fill="#FBCD5D"/>
<g clip-path="url(#clip0)">
<path d="M38.3998 30.5198C39.5706 30.5198 40.5198 29.5706 40.5198 28.3998C40.5198 27.2289 39.5706 26.2798 38.3998 26.2798C37.2289 26.2798 36.2798 27.2289 36.2798 28.3998C36.2798 29.5706 37.2289 30.5198 38.3998 30.5198Z" fill="#FAC035"/>
<path d="M51.6 43.72C52.7708 43.72 53.72 42.7708 53.72 41.6C53.72 40.4291 52.7708 39.48 51.6 39.48C50.4291 39.48 49.48 40.4291 49.48 41.6C49.48 42.7708 50.4291 43.72 51.6 43.72Z" fill="#FAC035"/>
<path d="M58.16 16H31.84C28.6 16 26 18.6 26 21.84V48.16C26 51.4 28.6 54 31.84 54H58.16C61.4 54 64 51.4 64 48.16V21.84C64 18.6 61.4 16 58.16 16ZM38.4 23.36C41.2 23.36 43.44 25.64 43.44 28.4C43.44 31.2 41.16 33.44 38.4 33.44C35.6 33.44 33.36 31.16 33.36 28.4C33.36 25.64 35.64 23.36 38.4 23.36ZM51.6 46.64C48.8 46.64 46.56 44.36 46.56 41.6C46.56 38.8 48.84 36.56 51.6 36.56C54.36 36.56 56.64 38.84 56.64 41.6C56.64 44.36 54.36 46.64 51.6 46.64ZM56.2 25.84L35.84 46.2C35.56 46.48 35.2 46.64 34.8 46.64C34.44 46.64 34.04 46.48 33.76 46.2C33.2 45.64 33.2 44.72 33.76 44.12L54.16 23.8C54.72 23.24 55.64 23.24 56.24 23.8C56.84 24.36 56.8 25.28 56.2 25.84Z" fill="#FAC035"/>
<path d="M20.8 26H16V59.6C16 62.252 18.148 64.4 20.8 64.4H54.4V59.6H20.8V26Z" fill="#FBCD5D"/>
</g>
<defs>
<clipPath id="clip0">
<rect width="48" height="48" fill="white" transform="translate(16 16)"/>
</clipPath>
</defs>
</svg>
