<svg width="80" height="80" viewBox="0 0 80 80" fill="none" xmlns="http://www.w3.org/2000/svg">
<path opacity="0.15" d="M40 80.0003C62.0914 80.0003 80 62.0916 80 40.0002C80 17.9089 62.0914 0.000244141 40 0.000244141C17.9086 0.000244141 0 17.9089 0 40.0002C0 62.0916 17.9086 80.0003 40 80.0003Z" fill="#FBCD5D"/>
<g clip-path="url(#clip0)">
<path d="M39.72 35.8602H39.74L49.54 32.5202C49.58 32.3402 49.58 32.1602 49.58 32.0002C49.58 31.8202 49.56 31.6602 49.5 31.5002C49.34 31.0402 49.04 30.5402 48.62 30.1802V25.8002C48.62 22.5602 47.46 21.2802 46.26 20.5402C45.64 18.6602 43.06 16.0002 38 16.0002C32 16.0002 27.48 21.9402 27.48 25.8002C27.48 27.4002 27.42 28.6602 27.36 29.6202C27.36 29.8202 27.34 30.0002 27.34 30.1602C26.9 30.5602 26.6 31.1002 26.46 31.6202C26.44 31.7402 26.42 31.8602 26.42 32.0002C26.42 33.5602 27.3 35.8202 27.42 36.0802C27.54 36.4202 27.8 36.7002 28.14 36.8602C28.16 36.9402 28.18 37.0602 28.18 37.3002C28.18 39.4202 30 41.4202 31 42.3802C30.9 44.5802 30.28 46.1002 29.4 46.4802L21.56 49.0802C19.34 49.8202 17.68 51.6202 17.1 53.9002L16.04 58.1402C15.94 58.5802 16.04 59.0602 16.32 59.4202C16.6 59.7802 17.04 60.0002 17.5 60.0002H39.92C39.32 59.2402 38.76 58.4002 38.24 57.5002C36.92 55.1602 36 52.3202 36 49.1002V41.0802C36 38.7202 37.5 36.6402 39.72 35.8602Z" fill="#FBCD5D"/>
<path d="M62.982 39.6525L52.482 36.0805C52.17 35.9725 51.83 35.9725 51.518 36.0805L41.018 39.6525C40.408 39.8585 40 40.4285 40 41.0725V49.1085C40 58.9165 50.948 63.6845 51.414 63.8825C51.79 64.0405 52.21 64.0405 52.586 63.8825C53.052 63.6825 64 58.9165 64 49.1085V41.0725C64 40.4285 63.592 39.8585 62.982 39.6525ZM58.572 47.2365L53.072 54.2365C52.372 55.1305 51.06 55.2605 50.198 54.5205L46.698 51.5205C45.858 50.8025 45.76 49.5385 46.482 48.7005C47.2 47.8625 48.464 47.7665 49.3 48.4845L51.216 50.1265L55.426 44.7685C56.108 43.9005 57.364 43.7465 58.234 44.4325C59.104 45.1105 59.256 46.3685 58.572 47.2365Z" fill="#EAB657"/>
</g>
<defs>
<clipPath id="clip0">
<rect width="48" height="48" fill="white" transform="translate(16 16.0002)"/>
</clipPath>
</defs>
</svg>
