<svg width="80" height="80" viewBox="0 0 80 80" fill="none" xmlns="http://www.w3.org/2000/svg">
<path opacity="0.15" d="M40 80C62.0914 80 80 62.0914 80 40C80 17.9086 62.0914 0 40 0C17.9086 0 0 17.9086 0 40C0 62.0914 17.9086 80 40 80Z" fill="#FBCD5D"/>
<g clip-path="url(#clip0)">
<path d="M55.6788 27.4486C56.2452 32.1821 57.066 41.4059 56.1227 42.3455L35.4244 63.0456C34.1524 64.3195 32.0855 64.3195 30.8116 63.0437L16.9713 49.2053C15.6974 47.9333 15.6974 45.8664 16.9713 44.5925L37.6714 23.8943C38.0001 23.5656 41.5804 23.5507 45.6064 23.7606C45.5841 24.0261 45.5265 24.2768 45.5265 24.5479C45.5265 25.5804 45.755 27.1812 45.9945 28.5888C45.573 29.2146 45.326 29.9667 45.326 30.7782C45.326 32.9398 47.079 34.6928 49.2406 34.6928C51.4021 34.6928 53.1551 32.9398 53.1551 30.7782C53.1551 29.4467 52.4885 28.2731 51.4727 27.5674C51.2647 26.3288 51.0976 25.1329 51.0976 24.5479C51.0976 24.4216 51.1236 24.3047 51.1347 24.1802C51.6305 24.2322 52.1189 24.2861 52.5813 24.3437C55.3167 24.6798 55.3446 24.6742 55.6788 27.4486ZM44.6463 42.9398C44.3251 42.0465 43.7902 40.975 42.6296 39.742L44.2006 38.1691L42.4513 36.4216L40.7559 38.119C38.4866 36.5646 36.1468 36.6909 34.559 38.2787C32.8283 40.0094 33.2369 42.2062 34.507 44.7596C35.3798 46.5275 35.5395 47.5451 34.8617 48.2229C34.1654 48.9193 33.0419 48.6166 32.0224 47.599C30.8636 46.4402 30.1839 45.0085 29.846 43.8478L27.2201 45.404C27.5247 46.4551 28.3455 47.9537 29.5043 49.1867L27.7921 50.9008L29.5395 52.6501L31.3798 50.8116C33.807 52.5238 36.2545 52.2935 37.8422 50.7058C39.4671 49.0772 39.6101 47.2573 38.2174 44.3659C37.2517 42.2935 37.0196 41.2759 37.5915 40.7058C38.0929 40.2044 38.9843 40.0614 40.1449 41.222C41.4318 42.5089 41.859 43.7587 42.0911 44.4198L44.6463 42.9398Z" fill="#EAB657"/>
<path d="M63.9833 25.2071C63.9833 32.4995 60.8041 37.7976 60.6704 38.0186C60.4012 38.4587 59.935 38.7001 59.4541 38.7001C59.2015 38.7001 58.9471 38.6332 58.7169 38.494C58.0446 38.0854 57.8292 37.2108 58.2359 36.5385C58.2656 36.4903 61.1347 31.6676 61.1347 25.2071C61.1347 21.5227 58.7391 18.8487 55.4374 18.8487C52.2953 18.8487 49.7401 21.4039 49.7401 24.5478C49.7401 25.8867 50.3882 29.2888 50.637 30.4865C50.7986 31.2572 50.3027 32.0111 49.5321 32.1727C48.7614 32.3305 48.0075 31.8384 47.8478 31.0696C47.7493 30.5998 46.8877 26.4234 46.8877 24.5478C46.8877 19.8347 50.7224 16 55.4374 16C60.3083 16 63.9833 19.9573 63.9833 25.2071Z" fill="#EAB657"/>
</g>
<defs>
<clipPath id="clip0">
<rect width="48" height="48" fill="white" transform="translate(16 16)"/>
</clipPath>
</defs>
</svg>
