<svg width="80" height="80" viewBox="0 0 80 80" fill="none" xmlns="http://www.w3.org/2000/svg">
<path opacity="0.15" d="M40 80C62.0914 80 80 62.0914 80 40C80 17.9086 62.0914 0 40 0C17.9086 0 0 17.9086 0 40C0 62.0914 17.9086 80 40 80Z" fill="#FBCD5D"/>
<path d="M28.1881 33.8677C34.3349 33.8677 38.9727 36.4516 39.014 39.8854V39.9258C39.0139 39.9292 39.0121 39.932 39.0121 39.9354V39.9994C38.9502 43.4217 34.3211 45.9949 28.1881 45.9949C22.0206 45.9949 17.3698 43.3936 17.3594 39.9425V39.9354L17.3584 39.9307C17.3586 36.4741 22.0139 33.8677 28.1881 33.8677ZM28.1881 47.9639C32.9123 47.9639 36.8039 46.589 39.0121 44.3904V49.5248C37.3444 51.9948 33.1435 53.5807 28.1862 53.5807C23.2401 53.5807 19.0392 51.9976 17.3593 49.5326V44.3853C19.5666 46.5869 23.4603 47.9639 28.1881 47.9639ZM28.1862 61.2896C22.0224 61.2896 17.368 58.6802 17.3593 55.2219V52.3842C19.8152 54.3756 23.7044 55.5497 28.1862 55.5497C32.6727 55.5497 36.5609 54.3756 39.0121 52.3836V55.2171C38.9957 58.6792 34.3414 61.2896 28.1862 61.2896Z" fill="#EAB657"/>
<path d="M40.9834 44.8493C43.4393 46.8407 47.3285 48.0148 51.8103 48.0148C56.2968 48.0148 60.1849 46.8407 62.6361 44.8487V49.6118C60.9685 52.0818 56.7675 53.6677 51.8103 53.6677C46.8642 53.6677 42.6632 52.0846 40.9834 49.6196V44.8493ZM40.9834 24.7786C40.9834 21.3982 45.4321 18.8373 51.3946 18.7219C51.534 18.7192 51.6698 18.7109 51.8107 18.7109C57.6007 18.7111 62.0554 21.0021 62.5921 24.1837C62.6134 24.3189 62.6202 24.4569 62.6267 24.595C62.6305 24.6555 62.6409 24.7146 62.6418 24.7756C62.6406 28.2318 57.9848 30.8377 51.8112 30.8377C45.6506 30.8377 41.0041 28.2425 40.9834 24.7971V24.7786ZM51.8112 32.8067C56.5361 32.8067 60.4279 31.432 62.6361 29.2335V34.3676C60.9685 36.8376 56.7675 38.4235 51.8102 38.4235C46.8642 38.4235 42.6632 36.8404 40.9834 34.3753V29.2294C43.1908 31.4303 47.0841 32.8067 51.8112 32.8067ZM40.9834 37.2269C43.4393 39.2184 47.3285 40.3925 51.8103 40.3925C56.2968 40.3925 60.1849 39.2184 62.6361 37.2263V41.99C60.9685 44.46 56.7675 46.0458 51.8103 46.0458C46.8642 46.0458 42.6632 44.4628 40.9834 41.9977V39.984C40.9836 39.9661 40.9873 39.949 40.9873 39.931C40.9873 39.9131 40.9836 39.896 40.9834 39.8781V37.2269ZM51.8103 61.2895C45.6464 61.2895 40.9921 58.6802 40.9834 55.2218V52.4711C43.4393 54.4626 47.3285 55.6367 51.8103 55.6367C56.2968 55.6367 60.1849 54.4626 62.6361 52.4706V55.217C62.6198 58.6792 57.9654 61.2895 51.8103 61.2895Z" fill="#FAC035"/>
</svg>
