<svg width="64" height="64" viewBox="0 0 64 64" fill="none" xmlns="http://www.w3.org/2000/svg">
<path opacity="0.15" d="M32 64C49.6731 64 64 49.6731 64 32C64 14.3269 49.6731 0 32 0C14.3269 0 0 14.3269 0 32C0 49.6731 14.3269 64 32 64Z" fill="#849CFE"/>
<g clip-path="url(#clip0)">
<path d="M45.8177 41.1562H40.7269C37.5189 41.1562 34.9088 38.5462 34.9088 35.3382C34.9088 32.1301 37.5189 29.5201 40.7269 29.5201H45.8177C46.2197 29.5201 46.545 29.1948 46.545 28.7928V26.611C46.545 25.086 45.3621 23.8457 43.8675 23.7254L39.6908 16.4301C39.3037 15.7554 38.6787 15.2731 37.9308 15.0729C37.1865 14.874 36.4081 14.9785 35.7419 15.3662L21.4238 23.702H18.9091C17.3047 23.702 16 25.0066 16 26.611V44.0653C16 45.6697 17.3046 46.9744 18.9091 46.9744H43.636C45.2403 46.9744 46.545 45.6697 46.545 44.0653V41.8835C46.545 41.4815 46.2197 41.1562 45.8177 41.1562ZM40.5927 20.9341L42.1774 23.702H35.8385L40.5927 20.9341ZM24.3146 23.702L36.4741 16.6232C36.803 16.4308 37.1872 16.3796 37.5544 16.4777C37.9258 16.5771 38.2355 16.8171 38.428 17.1531L38.4295 17.1557L27.1858 23.702H24.3146Z" fill="#6583FE"/>
<path d="M45.8179 30.9746H40.727C38.3208 30.9746 36.3634 32.9319 36.3634 35.3382C36.3634 37.7444 38.3208 39.7017 40.727 39.7017H45.8179C47.021 39.7017 47.9996 38.7231 47.9996 37.52V33.1564C47.9996 31.9533 47.021 30.9746 45.8179 30.9746ZM40.727 36.7927C39.9252 36.7927 39.2725 36.14 39.2725 35.3382C39.2725 34.5364 39.9252 33.8837 40.727 33.8837C41.5288 33.8837 42.1815 34.5364 42.1815 35.3382C42.1816 36.14 41.5289 36.7927 40.727 36.7927Z" fill="#849CFE"/>
</g>
<defs>
<clipPath id="clip0">
<rect width="31.9997" height="32" fill="white" transform="translate(16 14.9744)"/>
</clipPath>
</defs>
</svg>
