<svg width="353" height="341" viewBox="0 0 353 341" fill="none" xmlns="http://www.w3.org/2000/svg">
<path class="an-d-035" d="M164 180H96C92.6863 180 90 182.686 90 186V254C90 257.314 92.6863 260 96 260H164C167.314 260 170 257.314 170 254V186C170 182.686 167.314 180 164 180Z" fill="#EAEBF5"/>
<path class="an-d-040" d="M164 0H96C92.6863 0 90 2.68629 90 6V74C90 77.3137 92.6863 80 96 80H164C167.314 80 170 77.3137 170 74V6C170 2.68629 167.314 0 164 0Z" fill="#EAEBF5"/>
<path class="an-d-045" d="M344 180H276C272.686 180 270 182.686 270 186V254C270 257.314 272.686 260 276 260H344C347.314 260 350 257.314 350 254V186C350 182.686 347.314 180 344 180Z" fill="#EAEBF5"/>
<path class="an-d-050" d="M260 310C260 287.909 242.091 270 220 270C197.909 270 180 287.909 180 310C180 332.091 197.909 350 220 350C242.091 350 260 332.091 260 310Z" fill="#EAEBF5"/>
<path class="an-d-055" d="M90 350C134.18 350 170 314.183 170 270H96C92.69 270 90 272.686 90 276V350Z" fill="#F07881"/>
<path class="an-d-060" d="M353 170C353 125.817 317.18 90 273 90V164C273 167.314 275.69 170 279 170H353Z" fill="#FAC035"/>
<path class="an-d-065" d="M260 40C260 17.9086 242.091 0 220 0C197.909 0 180 17.9086 180 40C180 62.0914 197.909 80 220 80C242.091 80 260 62.0914 260 40Z" fill="#EAEBF5"/>
<path class="an-d-070" d="M74 270H6C2.68629 270 0 272.686 0 276V344C0 347.314 2.68629 350 6 350H74C77.3137 350 80 347.314 80 344V276C80 272.686 77.3137 270 74 270Z" fill="#EAEBF5"/>
<path class="an-d-075" d="M184 130C184 152.091 201.91 170 224 170C246.09 170 264 152.091 264 130V90H224C201.91 90 184 107.909 184 130Z" fill="#6CC8C5"/>
</svg>
