<svg width="88" height="88" viewBox="0 0 88 88" fill="none" xmlns="http://www.w3.org/2000/svg">
<path d="M70.3397 30.0003L78 25.5776L85.6603 30.0003V38.8456L78 43.2682L70.3397 38.8456V30.0003Z" stroke="#5B76E5" stroke-width="2"/>
<path d="M78 30.4229L81.4641 32.4229V36.4229L78 38.4229L74.5359 36.4229V32.4229L78 30.4229Z" fill="#5B76E5"/>
<path d="M2.33972 50.0003L9.99997 45.5776L17.6603 50.0003V58.8456L9.99997 63.2682L2.33972 58.8456V50.0003Z" stroke="#5B76E5" stroke-width="2"/>
<path d="M9.99999 50.4229L13.4641 52.4229V56.4229L9.99999 58.4229L6.53589 56.4229V52.4229L9.99999 50.4229Z" fill="#5B76E5"/>
<path d="M6.1698 27.2113L9.99993 25L13.83 27.2113V31.634L9.99993 33.8453L6.1698 31.634V27.2113Z" stroke="#849CFE"/>
<path d="M9.99999 27.4229L11.7321 28.4229V30.4229L9.99999 31.4229L8.26794 30.4229V28.4229L9.99999 27.4229Z" fill="#849CFE"/>
<path d="M74.1699 57.2118L78 55.0005L81.8301 57.2118V61.6344L78 63.8457L74.1699 61.6344V57.2118Z" stroke="#849CFE"/>
<path d="M78 57.4229L79.7321 58.4229V60.4229L78 61.4229L76.2679 60.4229V58.4229L78 57.4229Z" fill="#849CFE"/>
<path d="M28.6796 35.5777L44.0001 26.7324L59.3206 35.5777V53.2683L44.0001 62.1136L28.6796 53.2683V35.5777Z" stroke="#6583FE" stroke-width="4"/>
<path d="M44 36.4229L50.9282 40.4229V48.4229L44 52.4229L37.0718 48.4229V40.4229L44 36.4229Z" fill="#6583FE"/>
</svg>
