<svg width="405" height="392" viewBox="0 0 405 392" fill="none" xmlns="http://www.w3.org/2000/svg">
<path d="M177.809 201.316H120.492C110.974 201.316 103.258 208.838 103.258 218.116V273.99C103.258 283.268 110.974 290.79 120.492 290.79H177.809C187.327 290.79 195.043 283.268 195.043 273.99V218.116C195.043 208.838 187.327 201.316 177.809 201.316Z" fill="#173748"/>
<path d="M177.809 0H120.492C110.974 0 103.258 7.52162 103.258 16.8V72.6732C103.258 81.9515 110.974 89.4732 120.492 89.4732H177.809C187.327 89.4732 195.043 81.9515 195.043 72.6732V16.8C195.043 7.52162 187.327 0 177.809 0Z" fill="#173748"/>
<path d="M384.324 201.316H327.007C317.489 201.316 309.773 208.838 309.773 218.116V273.99C309.773 283.268 317.489 290.79 327.007 290.79H384.324C393.842 290.79 401.558 283.268 401.558 273.99V218.116C401.558 208.838 393.842 201.316 384.324 201.316Z" fill="#173748"/>
<path d="M252.408 301.973H252.408C227.062 301.973 206.516 322.002 206.516 346.709V346.709C206.516 371.417 227.062 391.446 252.408 391.446H252.408C277.754 391.446 298.3 371.417 298.3 346.709V346.709C298.3 322.002 277.754 301.973 252.408 301.973Z" fill="#173748"/>
<path d="M405 190.132C405 140.718 363.905 100.659 313.214 100.659V173.332C313.214 182.611 320.932 190.132 330.448 190.132H405Z" fill="#FAC035"/>
<path d="M252.408 0H252.408C227.062 0 206.516 20.0292 206.516 44.7364V44.7367C206.516 69.444 227.062 89.4732 252.408 89.4732H252.408C277.754 89.4732 298.3 69.444 298.3 44.7367V44.7364C298.3 20.0292 277.754 0 252.408 0Z" fill="#173748"/>
<path d="M74.5507 301.973H17.234C7.71594 301.973 0 309.494 0 318.773V374.646C0 383.924 7.71594 391.446 17.234 391.446H74.5507C84.0688 391.446 91.7848 383.924 91.7848 374.646V318.773C91.7848 309.494 84.0688 301.973 74.5507 301.973Z" fill="#173748"/>
<path d="M211.105 145.396C211.105 170.103 231.652 190.132 256.997 190.132C282.343 190.132 302.888 170.103 302.888 145.396V100.659H256.997C231.652 100.659 211.105 120.688 211.105 145.396Z" fill="#6CC8C5"/>
</svg>
