<svg width="22" height="16" viewBox="0 0 22 16" fill="none" xmlns="http://www.w3.org/2000/svg">
<g clip-path="url(#clip0)">
<path d="M1 6.99992C0.447717 6.99992 1.15878e-06 7.44763 0 7.99992C-1.15877e-06 8.5522 0.447713 8.99992 0.999998 8.99992L1 6.99992ZM21.7071 8.70707C22.0976 8.31655 22.0976 7.68338 21.7071 7.29286L15.3432 0.928881C14.9526 0.538356 14.3195 0.538355 13.9289 0.928878C13.5384 1.3194 13.5384 1.95257 13.9289 2.34309L19.5858 7.99996L13.9289 13.6568C13.5384 14.0473 13.5384 14.6805 13.9289 15.071C14.3194 15.4615 14.9526 15.4615 15.3431 15.071L21.7071 8.70707ZM0.999998 8.99992L21 8.99996V6.99996L1 6.99992L0.999998 8.99992Z" fill="#1DB2AD"/>
</g>
<defs>
<clipPath id="clip0">
<rect width="22" height="16" fill="white"/>
</clipPath>
</defs>
</svg>
