<svg width="416" height="848" viewBox="0 0 416 848" fill="none" xmlns="http://www.w3.org/2000/svg">
<path d="M289.5 400.214L289.5 303.786C289.5 295.897 295.901 289.5 303.8 289.5L400.2 289.5C408.099 289.5 414.5 295.897 414.5 303.786L414.5 400.214C414.5 408.103 408.099 414.5 400.2 414.5L303.8 414.5C295.901 414.5 289.5 408.103 289.5 400.214Z" stroke="white" stroke-opacity="0.35" stroke-width="3"/>
<path d="M-4.90501e-06 303.786L-6.90049e-07 400.214C-3.08946e-07 408.932 7.07374 416 15.7996 416L112.2 416C120.926 416 128 408.932 128 400.214L128 303.786C128 295.068 120.926 288 112.2 288L15.7996 288C7.07374 288 -5.28611e-06 295.068 -4.90501e-06 303.786Z" fill="#1DB2AD"/>
<path d="M73.7447 346.864C69.5207 346.864 64.9607 347.776 64.9607 349.792V354.256C64.9607 356.272 69.5207 357.184 73.7447 357.184C77.9687 357.184 82.5287 356.272 82.5287 354.256V349.792C82.5287 347.776 77.9687 346.864 73.7447 346.864ZM73.7447 348.016C78.7847 348.016 81.3767 349.264 81.3767 349.744C81.3767 350.272 78.7847 351.472 73.7447 351.472C68.7047 351.472 66.1127 350.224 66.1127 349.744C66.1127 349.264 68.7047 348.016 73.7447 348.016ZM82.5287 357.136V361.264C82.5287 363.28 77.9687 364.192 73.7447 364.192C69.5207 364.192 64.9607 363.28 64.9607 361.264V357.328C64.9607 357.28 64.9607 357.232 65.0087 357.184C67.2647 359.008 72.4967 359.104 73.7447 359.104C75.0407 359.104 80.3207 358.96 82.5287 357.136ZM82.5287 364.144V368.272C82.5287 370.288 77.9687 371.2 73.7447 371.2C69.5207 371.2 64.9607 370.288 64.9607 368.272V364.336C64.9607 364.288 64.9607 364.24 65.0087 364.192C67.2647 366.016 72.4967 366.112 73.7447 366.112C75.0407 366.112 80.3207 366.016 82.5287 364.144ZM54.2567 332.8C50.0327 332.8 45.4727 333.712 45.4727 335.728V340.192C45.4727 342.208 50.0327 343.12 54.2567 343.12C58.4807 343.12 63.0407 342.208 63.0407 340.192V335.68C63.0407 333.712 58.4807 332.8 54.2567 332.8ZM54.2567 333.952C59.2967 333.952 61.8887 335.2 61.8887 335.68C61.8887 336.208 59.2967 337.408 54.2567 337.408C49.2167 337.408 46.6247 336.16 46.6247 335.68C46.6247 335.152 49.2167 333.952 54.2567 333.952ZM63.0407 343.072V347.2C63.0407 349.216 58.4807 350.128 54.2567 350.128C50.0327 350.128 45.4727 349.216 45.4727 347.2V343.264C45.4727 343.216 45.4727 343.168 45.5207 343.12C47.7767 344.944 53.0087 345.04 54.2567 345.04C55.5527 344.992 60.8327 344.896 63.0407 343.072ZM63.0407 350.08V354.208C63.0407 356.224 58.4807 357.136 54.2567 357.136C50.0327 357.136 45.4727 356.224 45.4727 354.208V350.272C45.4727 350.224 45.4727 350.176 45.5207 350.128C47.7767 351.952 53.0087 352.048 54.2567 352.048C55.5527 352.048 60.8327 351.904 63.0407 350.08ZM63.0407 357.136V361.264C63.0407 363.28 58.4807 364.192 54.2567 364.192C50.0327 364.192 45.4727 363.28 45.4727 361.264V357.328C45.4727 357.28 45.4727 357.232 45.5207 357.184C47.7767 359.008 53.0087 359.104 54.2567 359.104C55.5527 359.104 60.8327 358.96 63.0407 357.136ZM63.0407 364.144V368.272C63.0407 370.288 58.4807 371.2 54.2567 371.2C50.0327 371.2 45.4727 370.288 45.4727 368.272V364.336C45.4727 364.288 45.4727 364.24 45.5207 364.192C47.7767 366.016 53.0087 366.112 54.2567 366.112C55.5527 366.112 60.8327 366.016 63.0407 364.144Z" fill="white"/>
<path d="M289.5 112.214L289.5 15.7865C289.5 7.89745 295.901 1.5 303.8 1.5L400.2 1.5C408.099 1.49999 414.5 7.89745 414.5 15.7865L414.5 112.214C414.5 120.103 408.099 126.5 400.2 126.5L303.8 126.5C295.901 126.5 289.5 120.103 289.5 112.214Z" stroke="white" stroke-opacity="0.35" stroke-width="3"/>
<path d="M288 495.947L288 496.053C288 531.37 316.654 560 352 560L352 560C387.346 560 416 531.37 416 496.053L416 495.947C416 460.63 387.346 432 352 432L352 432C316.654 432 288 460.63 288 495.947Z" fill="#E4515C"/>
<path d="M373.264 502.24C372.4 502.192 370.576 503.2 370.048 503.44C368.272 504.352 365.824 505.84 364.192 506.992C364.096 507.088 363.952 507.184 363.808 507.232C363.088 507.712 362.32 508.048 361.456 508.24C356.752 509.296 349.888 509.392 349.888 509.392H349.504C349.216 509.392 348.928 509.2 348.88 508.912C348.832 508.576 349.072 508.288 349.408 508.24L359.584 507.232C360.688 507.088 361.6 506.032 361.456 504.784C361.312 503.536 360.256 502.672 359.104 502.768L350.032 502.672C349.408 502.672 348.448 502.528 347.824 502.336C341.968 500.56 338.704 502.24 336.928 503.008C336.544 502.336 335.776 501.904 334.96 501.952L331.216 502.24C329.92 502.336 328.96 503.44 329.008 504.736L329.632 513.76C329.728 515.056 330.832 516.016 332.128 515.968L336.016 515.68C336.832 515.632 337.504 515.104 337.792 514.384L354.928 515.152C356.848 515.344 358.624 515.104 360.304 514.192L360.784 513.904L373.744 506.032C374.368 505.648 374.848 504.976 374.848 504.208C374.992 503.344 374.512 502.336 373.264 502.24ZM333.568 513.808C332.848 513.808 332.224 513.232 332.224 512.464C332.224 511.744 332.8 511.12 333.568 511.12C334.288 511.12 334.912 511.696 334.912 512.464C334.912 513.232 334.336 513.808 333.568 513.808ZM363.424 503.632C364.768 502.864 367.456 501.52 368.944 500.896C369.664 500.608 370.384 500.608 371.056 501.088C370.528 501.28 370.048 501.52 369.568 501.76C368.032 502.576 365.344 504.064 364 505.024C363.856 505.12 363.712 505.216 363.616 505.312C363.616 505.072 363.616 504.832 363.616 504.544C363.568 504.208 363.52 503.92 363.424 503.632C363.424 503.68 363.424 503.632 363.424 503.632ZM361.648 501.376C362.56 500.896 364.576 500.224 365.44 499.84C366.16 499.552 366.88 499.552 367.552 500.032C366.496 500.512 364.48 501.28 363.52 501.808L362.848 502.192C362.8 502.24 362.752 502.288 362.656 502.336C362.368 501.952 362.032 501.616 361.648 501.376ZM355.264 476.08C348.736 476.08 343.504 481.36 343.504 487.84C343.504 494.368 348.784 499.6 355.264 499.6C361.792 499.6 367.024 494.32 367.024 487.84C367.072 481.312 361.792 476.08 355.264 476.08ZM359.392 493.792C359.056 493.936 358.672 494.08 358.288 494.176C356.848 494.56 355.408 494.608 353.968 494.128C352.24 493.552 351.088 492.4 350.416 490.768C350.272 490.432 350.176 490.096 350.08 489.76H348.736C348.496 489.76 348.304 489.568 348.304 489.328V488.416C348.304 488.176 348.496 487.984 348.736 487.984H349.84C349.84 487.744 349.84 487.504 349.84 487.264H348.736C348.496 487.264 348.304 487.072 348.304 486.832V485.92C348.304 485.68 348.496 485.488 348.736 485.488H350.176L350.224 485.344C350.608 484.144 351.28 483.088 352.288 482.32C353.104 481.696 354.016 481.36 355.024 481.216C356.464 480.976 357.808 481.168 359.152 481.696C359.248 481.744 359.344 481.792 359.392 481.792C359.728 481.984 359.776 482.224 359.632 482.56C359.488 482.944 359.344 483.28 359.152 483.616C359.008 483.904 358.816 484 358.48 483.952C358.048 483.856 357.568 483.712 357.136 483.616C356.176 483.424 355.216 483.424 354.304 483.76C353.488 484.096 353.008 484.672 352.672 485.44C352.672 485.44 352.672 485.44 352.672 485.488H355.456C355.696 485.488 355.888 485.68 355.888 485.92V486.88C355.888 487.12 355.696 487.312 355.456 487.312H352.288C352.288 487.552 352.288 487.792 352.288 488.032H355.456C355.696 488.032 355.888 488.224 355.888 488.464V489.376C355.888 489.616 355.696 489.808 355.456 489.808H352.576C352.912 490.816 353.488 491.584 354.544 491.92C355.408 492.208 356.272 492.16 357.136 492.016C357.568 491.92 358 491.776 358.48 491.68C358.816 491.584 359.008 491.68 359.152 492.016C359.296 492.352 359.488 492.736 359.632 493.12C359.824 493.36 359.728 493.648 359.392 493.792Z" fill="white"/>
<path d="M145.509 126.5C146.307 57.8267 201.827 2.30665 270.5 1.50871L270.5 112.213C270.5 120.103 264.097 126.5 256.2 126.5L145.509 126.5Z" stroke="white" stroke-opacity="0.35" stroke-width="3"/>
<path d="M1.5 208.053L1.5 207.947C1.5 173.459 29.481 145.5 63.9999 145.5L64.0001 145.5C98.519 145.5 126.5 173.459 126.5 207.947L126.5 208.053C126.5 242.541 98.519 270.5 64.0001 270.5L63.9999 270.5C29.481 270.5 1.5 242.541 1.5 208.053Z" stroke="white" stroke-opacity="0.35" stroke-width="3"/>
<path d="M145.5 544.214L145.5 447.786C145.5 439.897 151.901 433.5 159.8 433.5L256.2 433.5C264.099 433.5 270.5 439.897 270.5 447.786L270.5 544.214C270.5 552.103 264.099 558.5 256.2 558.5L159.8 558.5C151.901 558.5 145.5 552.103 145.5 544.214Z" stroke="white" stroke-opacity="0.35" stroke-width="3"/>
<path d="M270 208.026C270 242.238 242.241 270 207.999 270C173.757 270 146 242.263 146 208.053L146 146L207.946 146C242.217 146 270 173.786 270 208.026Z" stroke="#5B76E5" stroke-width="4"/>
<path d="M414 845.984C346 844.926 291.074 790 290.016 722L400.2 722C407.824 722 414 728.174 414 735.786L414 845.984Z" stroke="#5B76E5" stroke-width="4"/>
<path d="M-5.59506e-06 576C70.6923 576 128 633.308 128 704L15.7996 704C7.07377 704 -3.08949e-07 696.932 -6.90055e-07 688.213L-5.59506e-06 576Z" fill="#EAB657"/>
<path d="M270.5 640.053L270.5 639.947C270.5 605.459 242.519 577.5 208 577.5L208 577.5C173.481 577.5 145.5 605.459 145.5 639.947L145.5 640.053C145.5 674.541 173.481 702.5 208 702.5L208 702.5C242.519 702.5 270.5 674.541 270.5 640.053Z" stroke="white" stroke-opacity="0.35" stroke-width="3"/>
<path d="M145.5 783.973C145.5 749.485 173.482 721.5 207.999 721.5C242.518 721.5 270.5 749.459 270.5 783.947L270.5 846.5L208.054 846.5C173.505 846.5 145.5 818.491 145.5 783.973Z" stroke="white" stroke-opacity="0.35" stroke-width="3"/>
</svg>
