<svg width="80" height="80" viewBox="0 0 80 80" fill="none" xmlns="http://www.w3.org/2000/svg">
<path opacity="0.15" d="M40 80C62.0914 80 80 62.0914 80 40C80 17.9086 62.0914 0 40 0C17.9086 0 0 17.9086 0 40C0 62.0914 17.9086 80 40 80Z" fill="#FBCD5D"/>
<path d="M39.5958 34.5668H40.4553C41.2643 34.5668 41.9215 35.2746 41.8204 36.0836C41.7699 36.7914 41.062 37.3476 40.3542 37.3476H39.1407C38.6857 37.3476 38.2812 37.0442 38.1801 36.5892C38.1295 36.488 38.0284 36.3869 37.9273 36.3869H36.5116C36.3599 36.3869 36.2083 36.5386 36.2588 36.6903C36.4105 38.106 37.5734 39.2183 38.9891 39.2689V40.6845C38.9891 40.8362 39.0902 40.9373 39.2419 40.9373H40.6575C40.8092 40.9373 40.9103 40.8362 40.9103 40.6845V39.2689C42.3766 39.0161 43.6406 37.8532 43.7923 36.3364C43.9945 34.3645 42.4271 32.6455 40.4553 32.6455H39.4441C38.6351 32.6455 37.9779 31.9376 38.079 31.1287C38.1295 30.4208 38.8374 29.8647 39.5452 29.8647H40.7587C41.2137 29.8647 41.6182 30.168 41.7193 30.6231C41.7699 30.7242 41.871 30.8253 41.9721 30.8253H43.3878C43.5395 30.8253 43.6911 30.6736 43.6406 30.522C43.4889 29.1063 42.326 27.9939 40.9103 27.9434V26.5277C40.9103 26.376 40.8092 26.2749 40.6575 26.2749H39.2419C39.0902 26.2749 38.9891 26.376 38.9891 26.5277V27.9434C37.27 28.1962 35.9555 29.7636 36.1071 31.5837C36.2588 33.3028 37.8262 34.5668 39.5958 34.5668Z" fill="#EAB657"/>
<path d="M26.4499 36.3363C29.326 36.3363 31.6576 34.0047 31.6576 31.1286C31.6576 28.2525 29.326 25.9209 26.4499 25.9209C23.5737 25.9209 21.2422 28.2525 21.2422 31.1286C21.2422 34.0047 23.5737 36.3363 26.4499 36.3363Z" fill="#FAC035"/>
<path d="M36.7642 45.1836C36.8653 44.6274 37.0675 44.1218 37.4214 43.6668C36.7642 43.6162 36.1069 43.5151 35.6013 43.3129C34.944 43.0095 34.2867 41.341 33.9833 40.6837C33.8317 40.3298 33.7305 40.0264 33.6294 39.8242C33.1238 38.8636 32.0621 37.7007 29.888 37.7007H23.3152C21.5961 37.7007 20.2816 38.5602 19.422 40.2287L19.2198 40.6332C18.3603 42.2511 17.4502 43.9196 17.1468 45.1836C16.7929 46.4981 16.0345 50.2396 16.0345 50.3913C15.8323 51.453 16.5401 52.5148 17.6019 52.717C17.7536 52.717 17.8547 52.7676 18.0064 52.7676C18.9164 52.7676 19.776 52.1103 19.9782 51.1497C19.9782 51.0991 20.7366 47.3577 21.04 46.1442C21.1916 45.6386 21.495 44.9308 21.8489 44.2229L21.5961 52.8687C21.5456 53.5766 22.1523 54.1833 22.8601 54.1833H30.2419C30.9497 54.1833 31.5059 53.5766 31.5059 52.8687L31.2531 43.9701C31.8598 45.133 32.7193 46.3465 34.0845 46.9532C35.1968 47.4588 36.5619 47.661 37.6742 47.7116C36.9664 47.0037 36.6125 46.0937 36.7642 45.1836Z" fill="#FAC035"/>
<path d="M53.4494 36.3363C56.3255 36.3363 58.6571 34.0047 58.6571 31.1286C58.6571 28.2525 56.3255 25.9209 53.4494 25.9209C50.5733 25.9209 48.2417 28.2525 48.2417 31.1286C48.2417 34.0047 50.5733 36.3363 53.4494 36.3363Z" fill="#FAC035"/>
<path d="M62.8026 45.1333C62.4487 43.8693 61.5891 42.2008 60.7296 40.5829L60.5274 40.1784C59.6173 38.5099 58.3027 37.6504 56.6342 37.6504H50.0614C47.8874 37.6504 46.8761 38.8133 46.3705 39.7739C46.2694 39.9762 46.1177 40.2795 45.9661 40.6334C45.6627 41.3413 45.0054 42.9592 44.3481 43.2626C43.2358 43.7682 41.0617 43.7176 40.1517 43.5659C39.0393 43.4142 38.0787 44.1726 37.927 45.285C37.7753 46.3973 38.5337 47.3579 39.6461 47.5096C40.0505 47.5602 43.5392 48.0152 46.0166 46.8523C47.3312 46.2456 48.1907 45.0322 48.848 43.8693L48.5446 52.8184C48.5446 53.5263 49.1008 54.133 49.8086 54.133H57.1398C57.8477 54.133 58.4039 53.5263 58.4039 52.8184L58.1511 44.1726C58.505 44.8805 58.8589 45.6389 58.96 46.0939C59.2634 47.3074 60.0218 51.0488 60.0218 51.0994C60.224 52.06 61.033 52.7173 61.9936 52.7173C62.1453 52.7173 62.2464 52.7173 62.3981 52.6667C63.4599 52.4645 64.1677 51.4027 63.9655 50.341C63.9149 50.1893 63.1565 46.4478 62.8026 45.1333Z" fill="#FAC035"/>
</svg>
