<svg width="80" height="80" viewBox="0 0 80 80" fill="none" xmlns="http://www.w3.org/2000/svg">
<path opacity="0.15" d="M40 80C62.0914 80 80 62.0914 80 40C80 17.9086 62.0914 0 40 0C17.9086 0 0 17.9086 0 40C0 62.0914 17.9086 80 40 80Z" fill="#FBCD5D"/>
<path d="M26.98 43.5407C28.2955 44.9135 29.9542 45.943 31.8418 46.5722V34.5035C31.8418 34.2176 31.613 33.9888 31.327 33.9888H27.552C27.266 33.9888 27.0372 34.2176 27.0372 34.5035V43.5407H26.98Z" fill="#EAB657"/>
<path d="M33.4434 47.0292C34.2441 47.2008 35.0449 47.258 35.8456 47.258C36.6464 47.258 37.5044 47.2008 38.2479 47.0292V38.6212C38.2479 38.3352 38.0191 38.1064 37.7332 38.1064H33.9581C33.6721 38.1064 33.4434 38.3352 33.4434 38.6212V47.0292Z" fill="#EAB657"/>
<path d="M39.9067 46.5724C41.7942 45.9432 43.453 44.8564 44.7685 43.5409V30.2711C44.7685 29.9851 44.5397 29.7563 44.2537 29.7563H40.4787C40.1927 29.7563 39.9639 29.9851 39.9639 30.2711V46.5724H39.9067Z" fill="#EAB657"/>
<path d="M60.8981 54.1793L50.7742 46.1717C52.9477 43.2546 54.2632 39.7084 54.2632 35.819C54.2632 26.0382 46.0268 18.145 35.9029 18.145C25.779 18.145 17.4854 26.0954 17.4854 35.8762C17.4854 45.6569 25.7218 53.5502 35.8457 53.5502C39.8495 53.5502 43.5101 52.349 46.5416 50.2327L54.8924 60.2994C55.064 60.5282 55.2928 60.757 55.5216 60.9286C57.4091 62.4157 60.0973 62.0726 61.5845 60.185C63.0716 58.2975 62.7284 55.6665 60.8981 54.1793ZM44.7685 45.6569C43.5101 46.6865 42.023 47.5444 40.3643 48.0592C38.9343 48.5168 37.4472 48.8028 35.8457 48.8028C34.4158 48.8028 33.043 48.574 31.7847 48.2308C29.9544 47.716 28.3528 46.8009 26.9229 45.6569C24.063 43.2546 22.2327 39.7656 22.2327 35.8762C22.2327 28.7265 28.3528 22.9496 35.8457 22.9496C43.3385 22.9496 49.4586 28.7265 49.4586 35.8762C49.4586 39.7656 47.6283 43.3118 44.7685 45.6569Z" fill="#FAC035"/>
</svg>
