<svg width="384" height="376" viewBox="0 0 384 376" fill="none" xmlns="http://www.w3.org/2000/svg">
<path d="M3.8147e-06 112.689C3.8147e-06 82.9239 24.1679 58.7944 53.9808 58.7944V108.647C53.9808 110.879 52.1684 112.689 49.9323 112.689H3.8147e-06Z" fill="#6CC8C5"/>
<path d="M384 244.976C384 274.742 359.832 298.871 330.019 298.871V249.018C330.019 246.786 331.831 244.976 334.067 244.976H384Z" fill="#F07881"/>
<path d="M108.82 58.7944H62.9366C60.7007 58.7944 58.8881 60.6041 58.8881 62.8365V108.647C58.8881 110.879 60.7007 112.689 62.9366 112.689H108.82C111.056 112.689 112.869 110.879 112.869 108.647V62.8365C112.869 60.6041 111.056 58.7944 108.82 58.7944Z" fill="white" fill-opacity="0.35"/>
<ellipse cx="85.8782" cy="26.9474" rx="26.9904" ry="26.9474" fill="#F07881"/>
<ellipse cx="58.274" cy="348.479" rx="26.9904" ry="26.9474" fill="#FAC035"/>
<path d="M167.709 58.7944H121.825C119.589 58.7944 117.777 60.6041 117.777 62.8365V108.647C117.777 110.879 119.589 112.689 121.825 112.689H167.709C169.945 112.689 171.758 110.879 171.758 108.647V62.8365C171.758 60.6041 169.945 58.7944 167.709 58.7944Z" fill="white" fill-opacity="0.35"/>
<path d="M167.709 117.588H121.825C119.589 117.588 117.777 119.398 117.777 121.63V167.441C117.777 169.673 119.589 171.483 121.825 171.483H167.709C169.945 171.483 171.758 169.673 171.758 167.441V121.63C171.758 119.398 169.945 117.588 167.709 117.588Z" fill="white" fill-opacity="0.35"/>
<path d="M240.459 144.536C240.459 159.418 252.544 171.483 267.45 171.483C282.356 171.483 294.44 159.418 294.44 144.536V117.588H267.45C252.544 117.588 240.459 129.653 240.459 144.536Z" fill="#FAC035"/>
</svg>
