<svg width="80" height="80" viewBox="0 0 80 80" fill="none" xmlns="http://www.w3.org/2000/svg">
<path opacity="0.15" d="M40 80C62.0914 80 80 62.0914 80 40C80 17.9086 62.0914 0 40 0C17.9086 0 0 17.9086 0 40C0 62.0914 17.9086 80 40 80Z" fill="#FBCD5D"/>
<path fill-rule="evenodd" clip-rule="evenodd" d="M41.822 27.3252C48.8225 27.3252 54.4975 33.0008 54.4975 40.0007C54.4975 47.0012 48.8225 52.6768 41.822 52.6768C34.8221 52.6768 29.1465 47.0012 29.1465 40.0007C29.1465 33.0008 34.8221 27.3252 41.822 27.3252ZM41.6644 32.5688V40.5478L47.9103 45.3883L46.3308 47.4338L39.0712 41.8086V32.5688H41.6644Z" fill="#FAC035"/>
<path fill-rule="evenodd" clip-rule="evenodd" d="M20.7769 34.8975C23.0787 25.3702 31.6637 18.3516 41.8119 18.3516C53.7668 18.3516 63.4608 28.0461 63.4608 40.0005C63.4608 51.956 53.7674 61.6494 41.8119 61.6494C34.5041 61.6494 27.7287 57.9751 23.717 51.8704L27.6533 49.2829C30.7935 54.061 36.0955 56.9184 41.8119 56.9184C51.1549 56.9184 58.7292 49.3436 58.7292 40.0005C58.7292 30.6586 51.1544 23.0832 41.8119 23.0832C34.2773 23.0832 27.8358 28.0212 25.6673 34.8998L27.4429 34.9015C28.748 34.8992 29.5837 36.3557 28.8705 37.4867L24.2738 44.7916C23.6286 45.8416 22.0809 45.8711 21.4096 44.8058L16.8696 37.5927C16.0589 36.494 16.8288 34.8958 18.2308 34.8958L20.7769 34.8975Z" fill="#EAB657"/>
</svg>
