<svg width="64" height="64" viewBox="0 0 64 64" fill="none" xmlns="http://www.w3.org/2000/svg">
<path opacity="0.15" d="M32 64C49.6731 64 64 49.6731 64 32C64 14.3269 49.6731 0 32 0C14.3269 0 0 14.3269 0 32C0 49.6731 14.3269 64 32 64Z" fill="#849CFE"/>
<path fill-rule="evenodd" clip-rule="evenodd" d="M25.4002 24.0668C27.1506 22.3164 29.5247 21.333 32.0002 21.333C34.4757 21.333 36.8498 22.3164 38.6002 24.0668C40.3506 25.8172 41.334 28.1913 41.334 30.6668C41.334 33.1423 40.3506 35.5164 38.6002 37.2668L32.0002 43.8668L25.4002 37.2668C24.5334 36.4001 23.8459 35.3712 23.3767 34.2387C22.9076 33.1063 22.6662 31.8926 22.6662 30.6668C22.6662 29.4411 22.9076 28.2273 23.3767 27.0949C23.8459 25.9625 24.5334 24.9335 25.4002 24.0668ZM32.0002 33.3335C32.7074 33.3335 33.3857 33.0525 33.8858 32.5524C34.3859 32.0523 34.6669 31.3741 34.6669 30.6668C34.6669 29.9596 34.3859 29.2813 33.8858 28.7812C33.3857 28.2811 32.7074 28.0002 32.0002 28.0002C31.293 28.0002 30.6147 28.2811 30.1146 28.7812C29.6145 29.2813 29.3335 29.9596 29.3335 30.6668C29.3335 31.3741 29.6145 32.0523 30.1146 32.5524C30.6147 33.0525 31.293 33.3335 32.0002 33.3335Z" fill="#6583FE"/>
</svg>
