<svg width="497" height="433" viewBox="0 0 497 433" fill="none" xmlns="http://www.w3.org/2000/svg">
<path class="an-d-035" d="M169.396 395.396C169.396 375.019 185.915 358.5 206.292 358.5C226.669 358.5 243.188 375.019 243.188 395.396C243.188 415.773 226.669 432.292 206.292 432.292H169.396V395.396Z" fill="#6CC8C5"/>
<path class="an-d-040" d="M0.729492 274.167H37.6253C58.0023 274.167 74.5212 290.686 74.5212 311.063C74.5212 331.44 58.0023 347.959 37.6253 347.959C17.2483 347.959 0.729492 331.44 0.729492 311.063V274.167Z" fill="#FAC035"/>
<rect class="an-d-045" x="327.521" y="274.167" width="73.7917" height="73.7917" rx="4" fill="#F07881"/>
<rect class="an-d-050" x="169.396" y="274.167" width="73.7917" height="73.7917" rx="4" fill="white" fill-opacity="0.35"/>
<rect class="an-d-055" x="85.0629" y="274.167" width="73.7917" height="73.7917" rx="28" fill="white" fill-opacity="0.35"/>
<rect class="an-d-060" x="85.0629" y="358.5" width="73.7917" height="73.7917" rx="4" fill="white" fill-opacity="0.35"/>
<rect class="an-d-065" x="422.396" y="0.0834961" width="73.7917" height="73.7917" rx="4" fill="#FAC035"/>
</svg>
