<svg width="64" height="64" viewBox="0 0 64 64" fill="none" xmlns="http://www.w3.org/2000/svg">
<path opacity="0.15" d="M32 64C49.6731 64 64 49.6731 64 32C64 14.3269 49.6731 0 32 0C14.3269 0 0 14.3269 0 32C0 49.6731 14.3269 64 32 64Z" fill="#849CFE"/>
<path d="M31.9999 31.8427L21.3372 26.512C21.3767 25.8326 21.6744 25.194 22.1695 24.727C22.6645 24.26 23.3194 23.9999 23.9999 24H39.9999C40.6805 23.9999 41.3353 24.26 41.8303 24.727C42.3254 25.194 42.6231 25.8326 42.6626 26.512L31.9999 31.8427Z" fill="#6583FE"/>
<path d="M32 34.824L42.6667 29.4906V37.3333C42.6667 38.0406 42.3857 38.7188 41.8856 39.2189C41.3855 39.719 40.7072 40 40 40H24C23.2928 40 22.6145 39.719 22.1144 39.2189C21.6143 38.7188 21.3333 38.0406 21.3333 37.3333V29.4906L32 34.824Z" fill="#6583FE"/>
</svg>
