<svg width="64" height="64" viewBox="0 0 64 64" fill="none" xmlns="http://www.w3.org/2000/svg">
<path opacity="0.15" d="M32 64C49.6731 64 64 49.6731 64 32C64 14.3269 49.6731 0 32 0C14.3269 0 0 14.3269 0 32C0 49.6731 14.3269 64 32 64Z" fill="#849CFE"/>
<g clip-path="url(#clip0)">
<path d="M47.8124 26.5994L46.1342 24.3618L45.201 30.8938C45.1156 31.4921 44.833 32.0571 44.4055 32.4846L32.915 43.9751C31.9128 44.9775 30.5787 45.5296 29.1585 45.5296C28.7341 45.5296 28.3177 45.4792 27.9152 45.3833C28.5264 46.3389 29.5962 46.9744 30.8124 46.9744H44.5624C46.4579 46.9744 47.9999 45.4323 47.9999 43.5369V27.1619C47.9999 26.9591 47.9341 26.7617 47.8124 26.5994Z" fill="#849CFE"/>
<path d="M35.3457 30.5496C35.8634 30.5496 36.2832 30.1298 36.2832 29.6121C36.2832 29.0943 35.8634 28.6746 35.3457 28.6746C34.8279 28.6746 34.4082 29.0943 34.4082 29.6121C34.4082 30.1298 34.8279 30.5496 35.3457 30.5496Z" fill="#6583FE"/>
<path d="M24.739 30.5496C25.2568 30.5496 25.6765 30.1298 25.6765 29.6121C25.6765 29.0943 25.2568 28.6746 24.739 28.6746C24.2212 28.6746 23.8015 29.0943 23.8015 29.6121C23.8015 30.1298 24.2212 30.5496 24.739 30.5496Z" fill="#6583FE"/>
<path d="M31.5895 42.6492L43.08 31.1587C43.2235 31.0153 43.3165 30.8292 43.3452 30.6284L44.6711 21.3476C44.7128 21.0555 44.6146 20.7607 44.4059 20.5521L42.4172 18.5634L39.7655 21.2151L40.4285 21.878C40.7946 22.2441 40.7946 22.8377 40.4285 23.2038C40.2454 23.3869 40.0055 23.4784 39.7656 23.4784C39.5257 23.4784 39.2857 23.3869 39.1027 23.2038L36.451 20.5521C36.0849 20.1861 36.0849 19.5924 36.451 19.2263C36.8171 18.8602 37.4107 18.8602 37.7769 19.2263L38.4398 19.8892L41.0914 17.2376L39.1027 15.2488C38.894 15.0401 38.5993 14.9422 38.3072 14.9836L29.0263 16.3095C28.8255 16.3382 28.6394 16.4312 28.496 16.5747L17.0055 28.0652C15.6652 29.4054 15.6652 31.5863 17.0055 32.9266L26.7282 42.6492C27.3983 43.3194 28.2786 43.6544 29.1589 43.6544C30.0391 43.6544 30.9194 43.3194 31.5895 42.6492ZM35.346 26.7995C36.8969 26.7995 38.1585 28.0612 38.1585 29.612C38.1585 31.1628 36.8969 32.4245 35.346 32.4245C33.7952 32.4245 32.5335 31.1628 32.5335 29.612C32.5335 28.0612 33.7952 26.7995 35.346 26.7995ZM24.7394 32.4245C23.1886 32.4245 21.9269 31.1628 21.9269 29.612C21.9269 28.0612 23.1886 26.7995 24.7394 26.7995C26.2902 26.7995 27.5519 28.0612 27.5519 29.612C27.5519 31.1628 26.2903 32.4245 24.7394 32.4245ZM27.8332 37.1789C27.7349 37.1789 27.6349 37.1633 27.5366 37.1306C27.0454 36.9668 26.78 36.4359 26.9437 35.9447L31.363 22.6864C31.5268 22.1952 32.0577 21.9297 32.5489 22.0934C33.0401 22.2572 33.3055 22.7881 33.1419 23.2793L28.7225 36.5376C28.5915 36.9304 28.2257 37.1789 27.8332 37.1789Z" fill="#6583FE"/>
<path d="M44.4055 16.5747C44.7716 16.2087 44.7716 15.615 44.4055 15.2489C44.0394 14.8828 43.4458 14.8828 43.0797 15.2489L41.091 17.2377L42.4168 18.5635L44.4055 16.5747Z" fill="#6583FE"/>
</g>
<defs>
<clipPath id="clip0">
<rect width="32" height="32" fill="white" transform="translate(16 14.9744)"/>
</clipPath>
</defs>
</svg>
