<svg width="80" height="80" viewBox="0 0 80 80" fill="none" xmlns="http://www.w3.org/2000/svg">
<path opacity="0.15" d="M40 80C62.0914 80 80 62.0914 80 40C80 17.9086 62.0914 0 40 0C17.9086 0 0 17.9086 0 40C0 62.0914 17.9086 80 40 80Z" fill="#FBCD5D"/>
<path d="M40 26.8477C32.752 26.8477 26.848 32.7517 26.848 39.9997C26.848 47.2477 32.752 53.1517 40 53.1517C47.248 53.1517 53.152 47.2477 53.152 39.9997C53.152 32.7517 47.248 26.8477 40 26.8477ZM47.488 37.8877L39.184 46.1917C38.896 46.4797 38.464 46.4797 38.176 46.1917L32.512 40.5277C32.224 40.2397 32.224 39.8077 32.512 39.5197L34.864 37.1677C35.152 36.8797 35.584 36.8797 35.872 37.1677L38.704 39.9997L44.176 34.5277C44.464 34.2397 44.896 34.2397 45.184 34.5277L47.536 36.8797C47.776 37.1677 47.776 37.5997 47.488 37.8877Z" fill="#FBCD5D"/>
<path d="M62.608 40.4799C62.848 40.1919 62.848 39.8079 62.608 39.5679L59.92 36.3999C59.776 36.2079 59.728 35.9679 59.776 35.7279L61.072 31.7919C61.168 31.4559 61.024 31.0719 60.736 30.9279L57.04 29.0559C56.8 28.9599 56.656 28.7199 56.656 28.4799L56.32 24.3039C56.32 23.9679 56.032 23.6799 55.696 23.6799L51.52 23.3439C51.28 23.3439 51.04 23.1999 50.944 22.9599L49.072 19.2639C48.928 18.9279 48.544 18.7839 48.208 18.9279L44.32 20.2239C44.08 20.3199 43.84 20.2719 43.648 20.0799L40.48 17.3919C40.192 17.1519 39.808 17.1519 39.568 17.3919L36.4 20.0799C36.208 20.2239 35.968 20.2719 35.728 20.2239L31.792 18.9279C31.456 18.8319 31.072 18.9759 30.928 19.2639L29.056 22.9599C28.96 23.1999 28.72 23.3439 28.48 23.3439L24.304 23.6799C23.968 23.6799 23.68 23.9679 23.68 24.3039L23.344 28.4799C23.344 28.7199 23.2 28.9599 22.96 29.0559L19.264 30.9279C18.928 31.0719 18.784 31.4559 18.928 31.7919L20.224 35.7279C20.32 35.9679 20.272 36.2079 20.08 36.3999L17.392 39.5199C17.152 39.8079 17.152 40.1919 17.392 40.4319L20.08 43.5519C20.224 43.7439 20.272 43.9839 20.224 44.2239L18.88 48.2559C18.784 48.5919 18.928 48.9759 19.216 49.1199L22.912 50.9919C23.152 51.0879 23.296 51.3279 23.296 51.5679L23.632 55.6959C23.68 56.0319 23.92 56.3199 24.304 56.3679L28.432 56.7039C28.672 56.7039 28.912 56.8479 29.008 57.0879L30.88 60.7839C31.024 61.1199 31.408 61.2639 31.744 61.1199L35.68 59.8239C35.92 59.7279 36.16 59.7759 36.352 59.9679L39.472 62.6559C39.76 62.8959 40.144 62.8959 40.384 62.6559L43.504 59.9679C43.696 59.8239 43.936 59.7759 44.176 59.8239L48.112 61.1199C48.448 61.2159 48.832 61.0719 48.976 60.7839L50.848 57.0879C50.944 56.8479 51.184 56.7039 51.424 56.7039L55.552 56.3679C55.888 56.3199 56.176 56.0799 56.224 55.6959L56.56 51.5679C56.56 51.3279 56.704 51.0879 56.944 50.9919L60.64 49.1199C60.976 48.9759 61.12 48.5919 60.976 48.2559L59.776 44.3199C59.68 44.0799 59.728 43.8399 59.92 43.6479L62.608 40.4799ZM40 55.3599C31.552 55.3599 24.64 48.4959 24.64 39.9999C24.64 31.5039 31.504 24.6399 40 24.6399C48.496 24.6399 55.36 31.5039 55.36 39.9999C55.36 48.4959 48.448 55.3599 40 55.3599Z" fill="#EAB657"/>
</svg>
