<svg width="80" height="80" viewBox="0 0 80 80" fill="none" xmlns="http://www.w3.org/2000/svg">
<path opacity="0.15" d="M40 80C62.0914 80 80 62.0914 80 40C80 17.9086 62.0914 0 40 0C17.9086 0 0 17.9086 0 40C0 62.0914 17.9086 80 40 80Z" fill="#FBCD5D"/>
<path d="M34.7676 49.3124L28.5756 43.6484C28.2876 43.4084 27.9516 43.2644 27.5676 43.2644C27.1836 43.2644 26.8476 43.4564 26.5596 43.7444C26.1276 44.2244 26.0796 44.9444 26.4156 45.4724L26.6076 45.7604C27.6156 47.2964 28.7196 48.6884 29.9676 50.0324L31.1196 51.2804C31.3116 51.4724 31.4076 51.7124 31.3596 51.9524C31.3596 52.1924 31.2636 52.4324 31.0716 52.6244C30.8796 52.8164 30.6396 52.9124 30.3996 52.8644C30.1596 52.8644 29.9196 52.7684 29.7276 52.5764L28.6236 51.4244C27.2316 49.9844 26.0316 48.4004 24.9276 46.7204L24.8316 46.5284C24.0156 45.2804 24.1116 43.6484 25.0716 42.5444C25.1676 42.4484 25.2636 42.3524 25.3596 42.2564L22.8156 37.4564C22.5276 36.8804 21.9036 36.5444 21.2796 36.5924C20.7996 36.5924 20.3676 36.8324 20.0796 37.1684C19.7916 37.5524 19.6476 37.9844 19.6956 38.4644L21.4236 51.4244C21.5676 52.6244 22.1916 53.7284 23.1516 54.4964L28.0956 58.4804C28.3836 58.7204 28.5756 59.0564 28.6236 59.4404L29.0076 62.3204C29.0556 62.6084 29.2956 62.8004 29.5356 62.8004H36.9276C37.2636 62.8004 37.5036 62.5124 37.4556 62.1764L36.0636 51.6644C35.8716 50.7524 35.4396 49.9364 34.7676 49.3124Z" fill="#FAC035"/>
<path d="M59.9197 37.1201C59.6317 36.7361 59.1997 36.5441 58.7197 36.5441C58.0957 36.4961 57.4717 36.8801 57.1837 37.4081L54.6397 42.2081C54.7357 42.3041 54.8317 42.4001 54.9277 42.4961C55.8877 43.6001 55.9837 45.2321 55.1677 46.4801L55.0717 46.6721C53.9677 48.3521 52.7197 49.8881 51.3757 51.3761L50.2717 52.5281C50.0797 52.7201 49.8397 52.8161 49.5997 52.8161C49.3597 52.8161 49.1197 52.7201 48.9277 52.5761C48.7357 52.3841 48.6397 52.1441 48.6397 51.9041C48.6397 51.6641 48.7357 51.4241 48.8797 51.2321L50.0317 49.9841C51.2797 48.6401 52.4317 47.2481 53.3917 45.7121L53.5837 45.4241C53.9197 44.8961 53.8717 44.1761 53.4397 43.6961C53.1997 43.4081 52.8157 43.2641 52.4317 43.2161C52.0477 43.2161 51.6637 43.3121 51.4237 43.6001L45.2317 49.3121C44.5597 49.9361 44.0797 50.7521 43.9357 51.6641L42.5437 62.1761C42.4957 62.5121 42.7357 62.8001 43.0717 62.8001H50.4637C50.7517 62.8001 50.9917 62.6081 50.9917 62.3201L51.3757 59.4401C51.4237 59.0561 51.6157 58.7201 51.9037 58.4801L56.8477 54.4961C57.8077 53.7281 58.4317 52.6241 58.5757 51.4241L60.3037 38.4641C60.3517 37.9361 60.2077 37.5041 59.9197 37.1201Z" fill="#FAC035"/>
<path d="M49.6477 33.9522C50.5597 34.2882 51.6157 34.4802 52.6717 34.4802C57.4237 34.4802 61.3117 30.5922 61.3117 25.8402C61.3117 21.0882 57.4717 17.2002 52.6717 17.2002C47.9197 17.2002 44.0317 21.0402 44.0317 25.8402C44.0317 26.8002 44.1757 27.7122 44.4637 28.5762C46.7677 29.6802 48.6397 31.5522 49.6477 33.9522ZM47.8717 26.5122C47.8717 26.3682 48.0157 26.2242 48.1597 26.2242H48.8317C48.8317 26.0802 48.8317 25.9362 48.8317 25.7922C48.8317 25.6482 48.8317 25.5042 48.8317 25.3602H48.1597C48.0157 25.3602 47.8717 25.2162 47.8717 25.1202V24.3042C47.8717 24.1602 48.0157 24.0642 48.1597 24.0642H49.1197C49.7917 22.1922 51.4237 20.8962 53.2477 20.8962C54.3517 20.8962 55.4077 21.3762 56.2237 22.1922C56.2717 22.2402 56.3197 22.3362 56.3197 22.3842C56.3197 22.4802 56.2717 22.5282 56.2237 22.5762L55.3117 23.3922C55.2157 23.4882 55.0717 23.4882 54.9277 23.3922C54.4477 22.9122 53.8237 22.6722 53.2477 22.6722C52.3837 22.6722 51.5197 23.2002 51.0397 24.0642H53.3437C53.4877 24.0642 53.6317 24.1602 53.6317 24.3042V25.1202C53.6317 25.2642 53.4877 25.3602 53.3437 25.3602H50.6077C50.6077 25.5042 50.5597 25.6482 50.5597 25.7922C50.5597 25.9362 50.5597 26.0802 50.6077 26.2242H53.3437C53.4877 26.2242 53.6317 26.3682 53.6317 26.5122V27.3282C53.6317 27.4722 53.4877 27.5682 53.3437 27.5682H51.0397C51.5197 28.4322 52.3837 28.9602 53.2477 28.9602C53.8717 28.9602 54.4477 28.7202 54.9277 28.2402C55.0237 28.1442 55.1677 28.1442 55.3117 28.2402L56.2237 29.0562C56.2717 29.1042 56.3197 29.1522 56.3197 29.2482C56.3197 29.3442 56.3197 29.3922 56.2237 29.4402C55.4077 30.2562 54.3517 30.7362 53.2477 30.7362C51.4237 30.7362 49.7917 29.4882 49.1197 27.5682H48.1597C48.0157 27.5682 47.8717 27.4242 47.8717 27.3282V26.5122Z" fill="#EAB657"/>
<path d="M27.3758 34.48C28.4318 34.48 29.4398 34.288 30.3998 33.952C31.4078 31.6 33.2798 29.728 35.5838 28.624C35.8718 27.76 36.0158 26.848 36.0158 25.888C36.0158 21.136 32.1278 17.248 27.3758 17.248C22.6238 17.248 18.7358 21.088 18.7358 25.888C18.7358 30.592 22.5758 34.48 27.3758 34.48ZM24.0158 21.424H25.4078C25.5038 21.424 25.5518 21.472 25.5998 21.52L27.3758 24.304L29.1518 21.52C29.1998 21.472 29.2478 21.424 29.3438 21.424H30.7358C30.9278 21.424 31.0238 21.616 30.9278 21.76L28.2398 25.984H29.7278C29.8238 25.984 29.8718 26.032 29.8718 26.128V26.944C29.8718 27.04 29.8238 27.088 29.7278 27.088H28.1918V27.808H29.7278C29.8238 27.808 29.8718 27.856 29.8718 27.952V28.768C29.8718 28.864 29.8238 28.912 29.7278 28.912H28.1918V30.544C28.1918 30.688 28.0958 30.784 27.9518 30.784H26.7998C26.6558 30.784 26.5598 30.688 26.5598 30.544V28.912H25.0238C24.9278 28.912 24.8798 28.816 24.8798 28.768V27.952C24.8798 27.856 24.9278 27.808 25.0238 27.808H26.5598V27.088H25.0238C24.9278 27.088 24.8798 26.992 24.8798 26.944V26.128C24.8798 26.032 24.9278 25.984 25.0238 25.984H26.5118L23.8238 21.76C23.7278 21.616 23.8718 21.424 24.0158 21.424Z" fill="#EAB657"/>
<path d="M48.6399 38.0804C48.6399 33.3284 44.7519 29.4404 39.9999 29.4404C35.2479 29.4404 31.3599 33.3284 31.3599 38.0804C31.3599 42.8324 35.2479 46.7204 39.9999 46.7204C44.7519 46.7204 48.6399 42.8804 48.6399 38.0804ZM39.6159 37.3124H40.3359C41.8239 37.3124 43.0719 38.6084 42.9279 40.1444C42.8319 41.2964 41.9199 42.2084 40.7679 42.4004V43.4564C40.7679 43.5524 40.6719 43.6484 40.5759 43.6484H39.4239C39.3279 43.6484 39.2319 43.5524 39.2319 43.4564V42.4484C38.0799 42.2564 37.1679 41.2964 37.0719 40.1444C37.0719 40.0004 37.1679 39.9044 37.2639 39.9044H38.4159C38.5119 39.9044 38.6079 39.9524 38.6079 40.0484C38.7039 40.5284 39.0879 40.8644 39.5679 40.8644H40.2399C40.7199 40.8644 41.1999 40.5284 41.2959 40.0484C41.3919 39.4244 40.9119 38.8964 40.3359 38.8964H39.7119C38.3679 38.8964 37.1679 37.9364 37.0239 36.5924C36.8799 35.2004 37.8399 34.0004 39.1839 33.8084V32.8004C39.1839 32.7044 39.2799 32.6084 39.3759 32.6084H40.5279C40.6239 32.6084 40.7199 32.7044 40.7199 32.8004V33.7604C41.8719 33.9524 42.7839 34.9124 42.8799 36.0644C42.8799 36.2084 42.7839 36.3044 42.6879 36.3044H41.5359C41.4399 36.3044 41.3439 36.2564 41.3439 36.1604C41.2479 35.6804 40.8639 35.3444 40.3839 35.3444H39.7119C39.2319 35.3444 38.7519 35.6804 38.6559 36.1604C38.5599 36.7844 39.0399 37.3124 39.6159 37.3124Z" fill="#EAB657"/>
</svg>
