<svg width="80" height="80" viewBox="0 0 80 80" fill="none" xmlns="http://www.w3.org/2000/svg">
<path opacity="0.15" d="M40 80C62.0914 80 80 62.0914 80 40C80 17.9086 62.0914 0 40 0C17.9086 0 0 17.9086 0 40C0 62.0914 17.9086 80 40 80Z" fill="#FBCD5D"/>
<path d="M44.8331 38.0011L43.2695 44.4593C43.1675 44.7992 43.2695 45.1731 43.4734 45.479C43.7114 45.7509 44.0513 45.9209 44.3912 45.9209H54.5543C54.9282 45.9209 55.2341 45.7509 55.472 45.479C55.71 45.2071 55.778 44.8332 55.71 44.4933L54.2824 38.0351C54.1804 37.4913 53.6705 37.1174 53.1267 37.1174H45.9887C45.4449 37.0834 44.969 37.4573 44.8331 38.0011Z" fill="#FAC035"/>
<path d="M37.0154 35.7921H47.2465C47.6204 35.7921 47.9603 35.6221 48.1643 35.3502C48.4022 35.0783 48.4702 34.7044 48.3682 34.3305L46.8047 27.8723C46.6687 27.3285 46.1928 26.9546 45.649 26.9546H38.477C37.9332 26.9546 37.4573 27.3285 37.3213 27.8723L35.8258 34.3305C35.7578 34.6704 35.8258 35.0443 36.0637 35.3162C36.3016 35.6221 36.6415 35.7921 37.0154 35.7921Z" fill="#FAC035"/>
<path d="M29.6055 45.921H39.8366C40.2105 45.921 40.5504 45.751 40.7543 45.4791C40.9582 45.2072 41.0602 44.8333 40.9582 44.4594L39.3947 38.0012C39.2587 37.4574 38.7829 37.0835 38.239 37.0835H31.101C30.5572 37.0835 30.0813 37.4574 29.9454 38.0012L28.4498 44.4594C28.3818 44.7993 28.4498 45.1732 28.6877 45.4451C28.9257 45.751 29.2316 45.921 29.6055 45.921Z" fill="#FAC035"/>
<path d="M32.0529 48.1301C31.9169 47.5863 31.4411 47.2124 30.8972 47.2124H23.7592C23.2154 47.2124 22.7395 47.5863 22.6036 48.1301L21.04 54.5883C20.938 54.9282 21.04 55.3021 21.2439 55.608C21.4819 55.8799 21.8218 56.0499 22.1617 56.0499H32.4268C32.8007 56.0499 33.1406 55.8799 33.3445 55.608C33.5824 55.3361 33.6504 54.9622 33.5485 54.5883L32.0529 48.1301Z" fill="#FAC035"/>
<path d="M46.9407 48.1301C46.8047 47.5863 46.3289 47.2124 45.785 47.2124H38.5791C38.0352 47.2124 37.5593 47.5863 37.4234 48.1301L35.8598 54.5883C35.7579 54.9282 35.8598 55.3021 36.0638 55.608C36.3017 55.8799 36.6416 56.0499 36.9815 56.0499H47.3146C47.6885 56.0499 48.0284 55.8799 48.2323 55.608C48.4703 55.3361 48.5382 54.9622 48.4363 54.5883L46.9407 48.1301Z" fill="#FAC035"/>
<path d="M63.2899 54.5546L61.7263 48.0965C61.5904 47.5526 61.1145 47.1787 60.5707 47.1787H53.3647C52.8209 47.1787 52.345 47.5526 52.209 48.0965L50.6455 54.5546C50.5435 54.8945 50.6455 55.2684 50.8494 55.5743C51.0873 55.8463 51.4272 56.0162 51.7672 56.0162H62.1002C62.4741 56.0162 62.814 55.8463 63.018 55.5743C63.2899 55.3024 63.3579 54.9285 63.2899 54.5546Z" fill="#FAC035"/>
<path d="M27.1008 26.9757V26.9975L27.0926 27.02V27.05L27.0851 27.0725V27.0943L27.0776 27.1242V27.1468L27.0701 27.1693L27.0618 27.1917L27.0543 27.2218L27.0468 27.2435L27.0393 27.266L27.0311 27.296L27.0236 27.3185L27.0161 27.3403L27.0003 27.3627L26.9928 27.3927L26.9778 27.4228L26.9553 27.4527L26.9403 27.4903L26.9246 27.5202L26.9021 27.5578L26.8721 27.596L26.8503 27.6335L26.8346 27.6552L26.8196 27.671L26.8038 27.6935L26.7888 27.7153L26.7731 27.7377L26.7513 27.7535L26.7356 27.7752L26.7131 27.7978L26.6981 27.8135L26.6756 27.8353L26.6531 27.851L26.6313 27.8727L26.6088 27.8885L26.5863 27.911L26.5646 27.926L26.5421 27.9485L26.5196 27.9635L26.4896 27.9793L26.4596 28.0018L26.4296 28.0168L26.3996 28.0392L26.3696 28.0543L26.3321 28.0767L26.3021 28.0917L26.2346 28.1217L26.1746 28.1518L26.1146 28.1817L26.0471 28.2043L25.9871 28.2267L25.9271 28.2485L25.8596 28.2642L25.7996 28.2792L25.7321 28.295L25.6721 28.31L25.6196 28.3258L25.5596 28.3332L25.5078 28.3407L25.4471 28.349L25.3946 28.3565L25.3346 28.364L25.2746 28.3715L25.1846 28.3797H25.0871H24.9896H24.8996H24.7571L24.6221 28.3715L24.5096 28.364L24.4046 28.3565L24.2921 28.3407L24.1796 28.3332L24.0971 28.3183L24.0071 28.3025L23.9171 28.28L23.8271 28.265L23.7296 28.235L23.6396 28.2125L23.5946 28.1975L23.5496 28.1817L23.5046 28.1668L23.4596 28.1442L23.4146 28.1292L23.3771 28.1135L23.3321 28.091L23.2946 28.076L23.2571 28.0535L23.2196 28.031L23.1746 28.0092L23.1371 27.9867L23.1071 27.9643L23.0771 27.9493L23.0471 27.9267L23.0171 27.9042L22.9871 27.8825L22.9571 27.86L22.9271 27.83L22.8971 27.8075L22.8746 27.7857L22.8446 27.7633L22.8221 27.7408L22.7996 27.7108L22.7771 27.6883L22.7546 27.6665L22.7321 27.6365L22.7171 27.614L22.6946 27.584L22.6721 27.554L22.6496 27.5315L22.6346 27.5015L22.6121 27.4715L22.5971 27.4422L22.5821 27.4123L22.5596 27.3822L22.5371 27.344L22.5221 27.3065L22.4996 27.2615L22.4846 27.224L22.4696 27.194L22.4546 27.164L22.4396 27.134L22.4321 27.0958L22.4171 27.0665L22.4096 27.0365L22.4021 27.0065L22.3871 26.9682L22.3796 26.9383L22.3721 26.9007L22.3571 26.8332L22.3421 26.7658L22.3346 26.6983L22.3196 26.6225V26.555L22.3121 26.4875V26.4125L20.8121 26.4575C20.8121 28.22 22.1771 29.6825 23.9396 29.81V31.1683H25.4396L25.6653 33.3507C24.1946 33.5083 22.7021 33.2982 21.3146 32.7125C16.8896 30.845 14.8196 25.7375 16.6871 21.3125C17.9471 18.3283 20.6921 16.4075 23.7071 16.0625L23.9396 18.2375V19.5725L23.8571 19.5875L23.7746 19.595L23.6921 19.6108L23.6096 19.6332L23.5196 19.6483L23.4371 19.664L23.3546 19.6857L23.2721 19.7082L23.1896 19.7382L23.1071 19.7608L23.0246 19.7907L22.9421 19.8283L22.8596 19.8582L22.7846 19.8957L22.7021 19.9333L22.6271 19.9708L22.5446 20.0233L22.4621 20.069L22.3796 20.1208L22.3421 20.1507L22.3046 20.1807L22.2521 20.2182L22.2071 20.2482L22.1621 20.294L22.1171 20.3315L22.0421 20.399L21.9671 20.4665L21.8996 20.534L21.8321 20.6098L21.7796 20.6697L21.7271 20.7372L21.6746 20.7973L21.6296 20.8648L21.5846 20.9323L21.5396 21.008L21.5021 21.0755L21.4571 21.1505L21.4196 21.2263L21.3896 21.3012L21.3521 21.3763L21.3221 21.452L21.2996 21.5338L21.2696 21.6095L21.2471 21.6912L21.2246 21.7737L21.2096 21.8487L21.2021 21.917L21.1871 21.992L21.1796 22.067L21.1721 22.1428L21.1646 22.2177L21.1571 22.2935V22.3685V22.436L21.1646 22.5035V22.5717L21.1721 22.6392L21.1796 22.7067L21.1871 22.7742L21.1946 22.8343L21.2096 22.9018L21.2246 22.9693L21.2396 23.0368L21.2546 23.105L21.2771 23.1725L21.2996 23.2475L21.3296 23.315L21.3521 23.3825L21.3821 23.4507L21.4121 23.5182L21.4421 23.5783L21.4796 23.6382L21.5096 23.6983L21.5471 23.7575L21.5921 23.8175L21.6296 23.8775L21.6746 23.9375L21.7121 23.99L21.7646 24.0425L21.8096 24.1017L21.8546 24.1475L21.9071 24.2075L21.9596 24.2525L22.0196 24.305L22.0796 24.3575L22.1396 24.4025L22.1996 24.4483L22.2371 24.4775L22.2821 24.5L22.3196 24.53L22.3646 24.5525L22.4471 24.605L22.5296 24.65L22.6271 24.695L22.7171 24.7408L22.8146 24.7857L22.9121 24.824L23.0996 24.899L23.2796 24.959L23.4521 25.019L23.6171 25.064L23.9246 25.154L24.9221 25.4015L25.4921 25.5515L25.6796 25.6032L25.8746 25.6632L26.0471 25.7232L26.1596 25.769L26.2271 25.7907L26.2946 25.8207L26.3321 25.8365L26.3696 25.859L26.4221 25.8808L26.4671 25.9107L26.5128 25.9333L26.5578 25.9632L26.5953 25.9858L26.6411 26.0158L26.6786 26.0457L26.7161 26.0675L26.7543 26.1058L26.7693 26.1208L26.7918 26.1365L26.8136 26.1583L26.8293 26.174L26.8518 26.1957L26.8668 26.2182L26.8826 26.234L26.8976 26.249L26.9051 26.2565L26.9133 26.2723L26.9283 26.2873L26.9358 26.303L26.9516 26.318L26.9591 26.3338L26.9741 26.3555L26.9823 26.378L26.9973 26.4005L27.0048 26.423L27.0206 26.4447L27.0281 26.4672L27.0356 26.4898L27.0438 26.5123L27.0513 26.534L27.0588 26.564L27.0663 26.5865L27.0746 26.6165L27.0821 26.6465L27.0896 26.669V26.699L27.0971 26.7208V26.7508L27.1053 26.7733V26.7957V26.8258V26.8475V26.87V26.9225V26.96V26.9757H27.1008Z" fill="#EAB657"/>
<path d="M28.0984 16.6933C32.5234 18.56 34.5934 23.6683 32.7184 28.0925C32.3659 28.925 31.8867 29.705 31.2942 30.3883C31.0909 30.6208 30.8817 30.8383 30.6642 31.0483C30.0034 31.6633 29.2459 32.1808 28.4292 32.5708C27.5442 32.9908 26.6142 33.245 25.6692 33.3508L25.4434 31.1683V29.8633L25.6017 29.8408L25.6992 29.8333L25.7892 29.8183L25.8867 29.8025L25.9767 29.78L26.0659 29.765L26.1642 29.735L26.2534 29.7125L26.3434 29.6908L26.4409 29.6608L26.5309 29.6225L26.6209 29.5925L26.7109 29.555L26.8009 29.5175L26.8909 29.4725L26.9809 29.4343L27.0409 29.4043L27.0927 29.3743L27.1527 29.3368L27.2052 29.3068L27.2577 29.2693L27.3177 29.2393L27.3694 29.2018L27.4219 29.1643L27.4669 29.1268L27.5127 29.0885L27.5644 29.051L27.6102 29.0135L27.6552 28.976L27.7009 28.9385L27.7384 28.8928L27.7834 28.8553L27.8292 28.8095L27.8667 28.7645L27.9042 28.7195L27.9417 28.6738L27.9799 28.6288L28.0174 28.583L28.0549 28.538L28.0849 28.4923L28.1374 28.4173L28.1824 28.3423L28.2282 28.2665L28.2732 28.1915L28.3032 28.124L28.3332 28.064L28.3707 27.9965L28.4007 27.9208L28.4164 27.8758L28.4382 27.8233L28.4607 27.7633L28.4757 27.7108L28.4914 27.659L28.5064 27.6065L28.5222 27.554L28.5372 27.5023L28.5529 27.4423L28.5604 27.3898L28.5679 27.3373L28.5762 27.2773L28.5837 27.2255L28.5912 27.173L28.5987 27.113L28.6069 27.0613V27.0088V26.9563V26.9038V26.852V26.792V26.732L28.5987 26.6795V26.6195L28.5912 26.5595L28.5837 26.5078L28.5762 26.4478L28.5679 26.3953L28.5529 26.3278L28.5372 26.2678L28.5222 26.2003L28.5064 26.1403L28.4847 26.0728L28.4622 26.0128L28.4397 25.9528L28.4179 25.8928L28.3879 25.8178L28.3579 25.7503L28.3197 25.682L28.2897 25.6145L28.2447 25.547L28.2072 25.487L28.1614 25.4195L28.1164 25.3595L28.0714 25.2995L28.0257 25.247L27.9807 25.1953L27.9282 25.1428L27.8832 25.0903L27.8307 25.0385L27.7782 24.9928L27.7182 24.941L27.6807 24.911L27.6357 24.8728L27.5532 24.8135L27.4632 24.7535L27.3732 24.6935L27.2982 24.6478L27.2307 24.6028L27.1549 24.557L27.0799 24.5195L26.9742 24.467L26.8692 24.422L26.7642 24.377L26.6584 24.3313L26.4934 24.2788L26.2159 24.1895L25.9534 24.107L25.6902 24.0395L24.4677 23.732L24.2127 23.6645L23.9352 23.582L23.7852 23.537L23.6427 23.4845L23.5002 23.432L23.4327 23.402L23.3652 23.372L23.3052 23.3503L23.2527 23.3203L23.2002 23.2978L23.1777 23.2828L23.1477 23.267L23.1177 23.2445L23.0877 23.2295L23.0727 23.2138L23.0577 23.2063L23.0427 23.1913L23.0277 23.183L23.0127 23.168L22.9977 23.1523L22.9827 23.1373L22.9677 23.1298L22.9527 23.114L22.9377 23.099L22.9227 23.0833L22.9077 23.0683L22.8927 23.0458L22.8852 23.0308L22.8702 23.0083L22.8552 22.9925L22.8402 22.9708L22.8252 22.955L22.8177 22.9333L22.8027 22.9175L22.7877 22.8875L22.7727 22.865L22.7652 22.835L22.7502 22.8133L22.7352 22.7833L22.7277 22.7608L22.7202 22.7308L22.7127 22.7008L22.6977 22.6708L22.6902 22.6483V22.6183L22.6827 22.5883L22.6752 22.559V22.529L22.6677 22.499V22.469V22.439L22.6602 22.409V22.379V22.349V22.319L22.6677 22.2815V22.2515V22.2215L22.6752 22.184L22.6827 22.154L22.6902 22.1158L22.6977 22.0783L22.7052 22.0483L22.7202 22.0108L22.7277 21.9808L22.7427 21.9433L22.7502 21.9275L22.7577 21.9125L22.7727 21.875L22.7877 21.845L22.8027 21.8075L22.8252 21.7775L22.8477 21.7475L22.8627 21.7175L22.8852 21.6875L22.9077 21.6575L22.9227 21.635L22.9452 21.6125L22.9677 21.5825L22.9902 21.5608L23.0127 21.5383L23.0352 21.5158L23.0577 21.4933L23.0802 21.4715L23.1102 21.449L23.1327 21.4265L23.1627 21.4048L23.1927 21.3823L23.2227 21.3598L23.2527 21.3373L23.2827 21.3223L23.3202 21.2998L23.3502 21.2848L23.3877 21.2623L23.4252 21.2473L23.4552 21.2315L23.4927 21.2165L23.5302 21.2008L23.5677 21.1858L23.5977 21.17L23.6352 21.1625L23.7027 21.14L23.7777 21.1175L23.8452 21.1025L23.9202 21.0868L23.9952 21.0718L24.0627 21.0643L24.1377 21.0568L24.2652 21.041L24.3852 21.0335L24.5127 21.026L24.6327 21.0178H24.7827L24.9327 21.026L25.0302 21.0335L25.1277 21.041L25.2252 21.0485L25.3152 21.0643L25.4127 21.0793L25.5027 21.1018L25.5484 21.1168L25.5934 21.125L25.6392 21.14L25.6842 21.1558L25.7517 21.1775L25.7817 21.1858L25.8199 21.2008L25.8492 21.2165L25.8874 21.224L25.9174 21.239L25.9474 21.2548L25.9924 21.2765L26.0299 21.299L26.0757 21.3215L26.1132 21.344L26.1507 21.3658L26.1882 21.3958L26.2257 21.4183L26.2557 21.4483L26.2939 21.4783L26.3239 21.5083L26.3614 21.5383L26.3914 21.5683L26.4214 21.6058L26.4514 21.6358L26.4814 21.6733L26.5032 21.7033L26.5257 21.7408L26.5557 21.7708L26.5782 21.809L26.5932 21.8465L26.6157 21.8765L26.6382 21.914L26.6532 21.9515L26.6757 21.989L26.6907 22.0265L26.7132 22.0648L26.7289 22.1098L26.7439 22.1473L26.7597 22.193L26.7747 22.2305L26.7822 22.2755L26.7979 22.3138L26.8129 22.3655L26.8204 22.418L26.8362 22.4705L26.8437 22.5223L26.8512 22.5748L26.8594 22.6273L26.8669 22.679L26.8744 22.7315L28.3669 22.574C28.2769 20.984 27.0319 19.709 25.4487 19.574V18.2315H23.9487L23.7162 16.0565C25.1584 15.8908 26.6659 16.0858 28.0984 16.6933Z" fill="#EAB657"/>
</svg>
