<svg width="480" height="470" viewBox="0 0 480 470" fill="none" xmlns="http://www.w3.org/2000/svg">
<path class="an-d-035" d="M3.05176e-05 140.862C3.05176e-05 103.655 30.2099 73.4932 67.4761 73.4932V135.809C67.4761 138.599 65.2106 140.862 62.4154 140.862H3.05176e-05Z" fill="#6CC8C5"/>
<path class="an-d-040" d="M479.999 306.22C479.999 343.427 449.79 373.589 412.523 373.589V311.273C412.523 308.483 414.789 306.22 417.584 306.22H479.999Z" fill="#F07881"/>
<path class="an-d-045" d="M136.025 73.4932H78.6706C75.8756 73.4932 73.6099 75.7553 73.6099 78.5458V135.809C73.6099 138.599 75.8756 140.862 78.6706 140.862H136.025C138.82 140.862 141.086 138.599 141.086 135.809V78.5458C141.086 75.7553 138.82 73.4932 136.025 73.4932Z" fill="white" fill-opacity="0.35"/>
<ellipse class="an-d-050" cx="107.348" cy="33.6842" rx="33.738" ry="33.6842" fill="#F07881"/>
<ellipse class="an-d-055" cx="72.8425" cy="435.598" rx="33.738" ry="33.6842" fill="#FAC035"/>
<path class="an-d-060" d="M209.636 73.4932H152.281C149.486 73.4932 147.221 75.7553 147.221 78.5458V135.809C147.221 138.599 149.486 140.862 152.281 140.862H209.636C212.431 140.862 214.697 138.599 214.697 135.809V78.5458C214.697 75.7553 212.431 73.4932 209.636 73.4932Z" fill="white" fill-opacity="0.35"/>
<path class="an-d-065" d="M209.636 146.985H152.281C149.486 146.985 147.221 149.247 147.221 152.038V209.301C147.221 212.092 149.486 214.354 152.281 214.354H209.636C212.431 214.354 214.697 212.092 214.697 209.301V152.038C214.697 149.247 212.431 146.985 209.636 146.985Z" fill="white" fill-opacity="0.35"/>
<path class="an-d-070" d="M300.574 180.67C300.574 199.273 315.68 214.354 334.312 214.354C352.945 214.354 368.05 199.273 368.05 180.67V146.985H334.312C315.68 146.985 300.574 162.066 300.574 180.67Z" fill="#FAC035"/>
</svg>
