<svg width="80" height="80" viewBox="0 0 80 80" fill="none" xmlns="http://www.w3.org/2000/svg">
<path opacity="0.15" d="M40 80C62.0914 80 80 62.0914 80 40C80 17.9086 62.0914 0 40 0C17.9086 0 0 17.9086 0 40C0 62.0914 17.9086 80 40 80Z" fill="#FBCD5D"/>
<path d="M22.5761 39.8079C25.174 39.8079 27.2801 37.7018 27.2801 35.1039C27.2801 32.506 25.174 30.3999 22.5761 30.3999C19.9781 30.3999 17.8721 32.506 17.8721 35.1039C17.8721 37.7018 19.9781 39.8079 22.5761 39.8079Z" fill="#FBCD5D"/>
<path d="M34.2398 43.0719L30.2078 45.1359C30.2078 45.1359 27.9998 43.5999 27.2798 43.0719C26.8478 42.7359 25.5038 41.6799 24.2078 41.2479C22.8158 40.7679 19.1198 40.4799 18.1118 42.8799C17.0558 45.4239 17.1998 51.9519 17.2478 56.6559C17.2478 57.0879 17.5358 57.3759 17.9198 57.3759C18.9278 57.3759 25.2158 57.3759 25.6478 57.3759C26.1278 57.3759 26.2718 57.1359 26.3198 56.7519C26.3678 56.5119 26.7998 51.1839 26.7518 48.8799C26.7518 48.6399 26.7518 48.3519 26.7518 48.0639L28.8158 49.4559C29.1998 49.6959 29.5838 49.8399 30.0158 49.8399C30.3518 49.8399 30.6878 49.7439 30.9758 49.5999L36.1598 46.8639C37.2158 46.3359 37.6478 45.0399 37.1198 43.9839C36.5918 42.9279 35.2958 42.4959 34.2398 43.0719Z" fill="#EAB657"/>
<path d="M57.4237 39.8079C60.0217 39.8079 62.1277 37.7018 62.1277 35.1039C62.1277 32.506 60.0217 30.3999 57.4237 30.3999C54.8258 30.3999 52.7197 32.506 52.7197 35.1039C52.7197 37.7018 54.8258 39.8079 57.4237 39.8079Z" fill="#FAC035"/>
<path d="M61.8876 42.8321C60.8796 40.4321 57.1836 40.7201 55.7916 41.2001C54.4956 41.6321 53.1996 42.6881 52.7196 43.0241C51.9996 43.5521 49.7916 45.0881 49.7916 45.0881L45.7596 43.0721C44.7036 42.5441 43.4076 42.9761 42.8796 44.0321C42.3516 45.0881 42.7836 46.3841 43.8396 46.9121L48.9756 49.5521C49.2636 49.6961 49.5996 49.7921 49.9356 49.7921C50.3676 49.7921 50.7996 49.6481 51.1356 49.4081L53.1996 48.0161C53.1996 48.3041 53.1996 48.5921 53.1996 48.8321C53.1516 51.1841 53.6316 56.4641 53.6316 56.7041C53.6796 57.0881 53.8716 57.3281 54.3036 57.3281C54.7356 57.3281 61.0716 57.3281 62.0316 57.3281C62.4636 57.3281 62.7036 56.9921 62.7036 56.6081C62.7996 51.9041 62.9916 45.3761 61.8876 42.8321Z" fill="#FAC035"/>
<path d="M49.2638 31.9359C49.2638 26.8479 45.1358 22.6719 39.9998 22.6719C34.9118 22.6719 30.7358 26.7999 30.7358 31.9359C30.7358 37.0239 34.8638 41.1999 39.9998 41.1999C45.0878 41.1999 49.2638 37.0239 49.2638 31.9359ZM39.9998 38.7999C36.2078 38.7999 33.1358 35.7279 33.1358 31.9359C33.1358 28.1439 36.2078 25.0719 39.9998 25.0719C43.7918 25.0719 46.8638 28.1439 46.8638 31.9359C46.8638 35.7279 43.7918 38.7999 39.9998 38.7999Z" fill="#EAB657"/>
<path d="M42.5916 34.1919C42.4476 34.0959 42.2556 34.0959 42.1596 34.1919C41.7276 34.6239 41.1516 34.8639 40.5756 34.8639C39.8076 34.8639 39.0396 34.3839 38.6076 33.6639H40.6716C40.8636 33.6639 41.0076 33.5199 41.0076 33.3279V32.5599C41.0076 32.3679 40.8636 32.2239 40.6716 32.2239H38.1276C38.1276 32.0799 38.1276 31.9839 38.1276 31.8879C38.1276 31.7919 38.1276 31.6959 38.1276 31.5519H40.6716C40.8636 31.5519 41.0076 31.4079 41.0076 31.2159V30.4479C41.0076 30.2559 40.8636 30.1119 40.6716 30.1119H38.6076C39.0876 29.3439 39.8076 28.9119 40.5756 28.9119C41.1516 28.9119 41.7276 29.1519 42.1596 29.5839C42.3036 29.7279 42.4956 29.7279 42.5916 29.5839L43.4556 28.8159C43.5036 28.7679 43.5516 28.6719 43.5516 28.5759C43.5516 28.4799 43.5036 28.3839 43.4556 28.3359C42.6396 27.5199 41.6316 27.0879 40.5756 27.0879C38.8476 27.0879 37.2636 28.2879 36.5916 30.1119H35.7276C35.5356 30.1119 35.3916 30.2559 35.3916 30.4479V31.2159C35.3916 31.4079 35.5356 31.5519 35.7276 31.5519H36.3036C36.3036 31.6479 36.3036 31.7919 36.3036 31.8879C36.3036 31.9839 36.3036 32.1279 36.3036 32.2239H35.7276C35.5356 32.2239 35.3916 32.3679 35.3916 32.5599V33.3279C35.3916 33.5199 35.5356 33.6639 35.7276 33.6639H36.5916C37.2156 35.4879 38.8476 36.6879 40.5756 36.6879C41.6316 36.6879 42.6876 36.2559 43.4556 35.4399C43.5036 35.3919 43.5516 35.2959 43.5516 35.1999C43.5516 35.1039 43.5036 35.0079 43.4556 34.9599L42.5916 34.1919Z" fill="#EAB657"/>
</svg>
