<svg width="48" height="18" viewBox="0 0 48 18" fill="none" xmlns="http://www.w3.org/2000/svg">
<path d="M1.11905 7.88085C0.501014 7.88085 2.53405e-08 8.38187 0 8.9999C-2.53406e-08 9.61793 0.501014 10.1189 1.11905 10.1189V7.88085ZM47.6722 9.79119C48.1092 9.35417 48.1092 8.64563 47.6722 8.20861L40.5506 1.08704C40.1136 0.650024 39.4052 0.650024 38.9681 1.08704C38.5311 1.52406 38.5311 2.23259 38.9681 2.66962L45.2984 8.9999L38.9681 15.3302C38.5311 15.7672 38.5311 16.4757 38.9681 16.9128C39.4052 17.3498 40.1136 17.3498 40.5506 16.9128L47.6722 9.79119ZM1.11905 10.1189H46.881V7.88085H1.11905V10.1189Z" fill="#ABB3BD"/>
<path d="M1.11905 7.88085C0.501014 7.88085 2.53405e-08 8.38187 0 8.9999C-2.53406e-08 9.61793 0.501014 10.1189 1.11905 10.1189V7.88085ZM47.6722 9.79119C48.1092 9.35417 48.1092 8.64563 47.6722 8.20861L40.5506 1.08704C40.1136 0.650024 39.4052 0.650024 38.9681 1.08704C38.5311 1.52406 38.5311 2.23259 38.9681 2.66962L45.2984 8.9999L38.9681 15.3302C38.5311 15.7672 38.5311 16.4757 38.9681 16.9128C39.4052 17.3498 40.1136 17.3498 40.5506 16.9128L47.6722 9.79119ZM1.11905 10.1189H46.881V7.88085H1.11905V10.1189Z" fill="white" fill-opacity="0.2"/>
</svg>
