<svg width="16" height="16" viewBox="0 0 16 16" fill="none" xmlns="http://www.w3.org/2000/svg">
<path d="M8.00001 3.33398C4.96971 3.33398 2.38183 5.2691 1.33334 8.00065C2.38183 10.7322 4.96971 12.6673 8.00001 12.6673C11.0303 12.6673 13.6182 10.7322 14.6667 8.00065C13.6182 5.2691 11.0303 3.33398 8.00001 3.33398ZM8.00001 11.1118C6.32728 11.1118 4.96971 9.71798 4.96971 8.00065C4.96971 6.28332 6.32728 4.88954 8.00001 4.88954C9.67274 4.88954 11.0303 6.28332 11.0303 8.00065C11.0303 9.71798 9.67274 11.1118 8.00001 11.1118ZM8.00001 6.13398C6.99395 6.13398 6.18183 6.96776 6.18183 8.00065C6.18183 9.03354 6.99395 9.86732 8.00001 9.86732C9.00607 9.86732 9.81819 9.03354 9.81819 8.00065C9.81819 6.96776 9.00607 6.13398 8.00001 6.13398Z" fill="#9898AB"/>
</svg>
