<svg width="80" height="80" viewBox="0 0 80 80" fill="none" xmlns="http://www.w3.org/2000/svg">
<path opacity="0.15" d="M40 80C62.0914 80 80 62.0914 80 40C80 17.9086 62.0914 0 40 0C17.9086 0 0 17.9086 0 40C0 62.0914 17.9086 80 40 80Z" fill="#FBCD5D"/>
<path d="M29.5 17.5C22.045 17.5 16 23.545 16 31C16 38.455 22.045 44.5 29.5 44.5C36.955 44.5 43 38.455 43 31C43 23.545 36.955 17.5 29.5 17.5ZM31 36.769V38.5C31 39.328 30.328 40 29.5 40C28.672 40 28 39.328 28 38.5V36.793C27.517 36.655 27.064 36.448 26.656 36.178C25.966 35.716 25.783 34.786 26.242 34.093C26.704 33.406 27.634 33.226 28.324 33.679C28.636 33.889 29.044 34 29.5 34C30.418 34 31 33.508 31 33.25C31 32.992 30.418 32.5 29.5 32.5C27.019 32.5 25 30.817 25 28.75C25 27.121 26.257 25.747 28 25.231V23.5C28 22.672 28.672 22 29.5 22C30.328 22 31 22.672 31 23.5V25.207C31.483 25.345 31.936 25.552 32.344 25.822C33.031 26.281 33.217 27.214 32.758 27.904C32.299 28.591 31.369 28.774 30.676 28.318C30.364 28.111 29.956 28 29.5 28C28.582 28 28 28.492 28 28.75C28 29.008 28.582 29.5 29.5 29.5C31.981 29.5 34 31.183 34 33.25C34 34.879 32.743 36.253 31 36.769Z" fill="#FBCD5D"/>
<path d="M55 47.5V32.5C55 24.217 48.283 17.5 40 17.5L41.608 19.108C44.419 21.919 46 25.735 46 29.713V47.5H37L50.5 62.5L64 47.5H55Z" fill="#EAB657"/>
</svg>
