<svg width="44" height="48" viewBox="0 0 44 48" fill="none" xmlns="http://www.w3.org/2000/svg">
<g clip-path="url(#clip0_20_97)">
<path d="M43.2632 20.7736C43.5749 21.051 43.5766 21.5321 43.2818 21.8274C41.8279 23.2839 40.3851 24.7294 38.9375 26.1795C38.6493 26.4682 38.1855 26.47 37.8702 26.2111C37.5089 25.9144 37.1218 25.6436 36.709 25.4073C33.7996 23.7346 29.9804 24.1553 27.5009 26.4188C26.3211 27.3904 24.8115 28.7125 23.4418 29.4236C22.082 30.1248 20.6523 30.6556 19.1426 30.946C15.8533 31.5771 12.6839 31.2065 9.6246 29.8342C9.2847 29.6841 8.9648 29.5038 8.6248 29.3335C8.5849 29.3135 8.5349 29.2934 8.4849 29.2634C7.905 31.4569 6.68525 33.1696 4.75565 34.3614C3.45592 35.1627 2.04621 35.5433 0.506531 35.5533C0.506531 35.4732 0.506531 35.4131 0.506531 35.3631C0.506531 28.7425 0.486531 22.1221 0.516531 15.5017C0.536521 11.5454 1.90623 8.07988 4.54568 5.14524C6.78522 2.66132 9.5546 1.0688 12.8239 0.347657C14.3436 0.0171345 15.8934 -0.0730073 17.443 0.0571985C19.5625 0.237484 21.5721 0.828416 23.4517 1.84001C25.6613 3.02188 27.4809 4.64445 28.9107 6.70771C30.1004 8.41041 30.9102 10.2833 31.3502 12.3266C31.5901 13.4284 31.7001 14.5401 31.7001 15.6719C31.7001 15.7019 31.7001 15.722 31.7001 15.772C30.2504 15.8722 28.8407 16.1527 27.4709 16.6234C26.1012 17.0941 24.8115 17.7251 23.5717 18.5465C23.6417 18.3361 23.7117 18.1458 23.7617 17.9655C24.5915 14.8706 23.9217 12.1363 21.6421 9.87272C20.0424 8.2802 18.0529 7.55906 15.7933 7.62917C12.594 7.71931 9.6447 9.83269 8.6049 12.8775C7.49508 16.1026 8.165 18.9772 10.5644 21.411C11.8542 22.713 13.4639 23.4442 15.2835 23.6144C17.7329 23.8448 19.8725 23.1037 21.6621 21.401C22.9519 20.179 24.3516 19.1073 25.9512 18.3361C27.5809 17.5448 29.2905 17.044 31.0902 16.8438C33.9795 16.5333 36.739 16.9839 39.3784 18.2059C40.7705 18.8515 42.1035 19.7413 43.2632 20.7736Z" fill="url(#paint0_linear_20_97)"/>
<path d="M10.5644 21.411C15.456 26.2807 17.443 27.3281 27.5009 26.4188C26.3211 27.3904 24.8115 28.7125 23.4418 29.4236C22.082 30.1248 20.6523 30.6556 19.1426 30.946C15.8533 31.5771 12.6839 31.2065 9.6246 29.8342C9.2847 29.6841 8.8248 29.4337 8.4849 29.2634C7.905 31.4569 6.68525 33.1696 4.75565 34.3614C3.67064 35.0303 2.509 35.4061 1.25908 35.5177C0.845351 35.5548 0.506541 35.2146 0.506451 34.7985C0.505081 28.416 0.487671 21.8707 0.516531 15.5017C0.536521 11.5454 1.90623 8.07988 4.54568 5.14524C6.78522 2.66132 9.5546 1.0688 12.8239 0.347657C14.3436 0.0171345 15.8934 -0.0730073 17.443 0.0571985C19.5625 0.237484 21.5721 0.828416 23.4517 1.84001C25.6613 3.02188 27.4809 4.64445 28.9107 6.70771C30.1004 8.4104 30.9102 10.2833 31.3502 12.3266C31.5901 13.4284 31.7001 14.5401 31.7001 15.6719C31.7001 15.7019 31.7001 15.722 31.7001 15.772C30.2504 15.8722 28.8407 16.1527 27.4709 16.6234C26.1012 17.0941 24.8115 17.7251 23.5717 18.5465C23.6417 18.3361 23.7117 18.1458 23.7617 17.9655C24.5915 14.8706 23.9217 12.1363 21.6421 9.87272C20.0424 8.2802 18.0529 7.55906 15.7933 7.62917C12.594 7.71931 9.6447 9.83269 8.6049 12.8775C7.49508 16.1026 8.127 18.9844 10.5644 21.411Z" fill="#3093D9"/>
<path d="M17.2229 32.228C20.1923 32.0177 22.9118 31.0863 25.4112 29.4136C24.6214 31.5469 24.6514 33.6403 25.5812 35.6835C26.271 37.2159 27.3608 38.4079 28.8205 39.2592C31.6365 40.8938 35.2263 40.6817 37.8465 38.5332C38.1643 38.2727 38.6325 38.2716 38.9229 38.5625C40.3735 40.0158 41.8188 41.4636 43.2694 42.9169C43.5573 43.2052 43.5642 43.6725 43.2667 43.9508C39.5923 47.3889 33.4007 49.3017 27.2908 46.9814C20.4822 44.3872 17.103 37.927 17.2229 32.228Z" fill="#E3535E"/>
<path d="M16.0815 19.125C18.0196 19.125 19.5908 17.551 19.5908 15.6094C19.5908 13.6677 18.0196 12.0938 16.0815 12.0938C14.1433 12.0938 12.5721 13.6677 12.5721 15.6094C12.5721 17.551 14.1433 19.125 16.0815 19.125Z" fill="#E3535E"/>
<path d="M32.6456 35.9062C34.5837 35.9062 36.1549 34.3323 36.1549 32.3906C36.1549 30.449 34.5837 28.875 32.6456 28.875C30.7074 28.875 29.1362 30.449 29.1362 32.3906C29.1362 34.3323 30.7074 35.9062 32.6456 35.9062Z" fill="#3093D9"/>
</g>
<defs>
<linearGradient id="paint0_linear_20_97" x1="22.1588" y1="-1.55907e-08" x2="22.1588" y2="35.5533" gradientUnits="userSpaceOnUse">
<stop offset="0.859375" stop-color="#E9B661"/>
<stop offset="1" stop-color="#E9B661" stop-opacity="0"/>
</linearGradient>
<clipPath id="clip0_20_97">
<rect width="44" height="48" fill="white"/>
</clipPath>
</defs>
</svg>
