<svg width="64" height="64" viewBox="0 0 64 64" fill="none" xmlns="http://www.w3.org/2000/svg">
<path opacity="0.15" d="M32 64C49.6731 64 64 49.6731 64 32C64 14.3269 49.6731 0 32 0C14.3269 0 0 14.3269 0 32C0 49.6731 14.3269 64 32 64Z" fill="#849CFE"/>
<g clip-path="url(#clip0)">
<path d="M43.6768 37.0113C42.7334 35.2347 40.5521 34.5055 38.7301 35.3941L36.8009 36.335C37.083 36.6818 37.3337 37.0563 37.511 37.4813C37.8406 38.2705 37.9459 39.1128 37.8296 39.9358L43.6768 37.0113Z" fill="#849CFE"/>
<path d="M31.0625 22.537C31.0625 26.3579 33.9304 29.5709 37.625 30.037C37.625 29.8598 37.625 27.2209 37.625 27.0518C36.5361 26.6635 35.75 25.6326 35.75 24.412H37.625C37.625 24.9292 38.0452 25.3495 38.5625 25.3495C39.0798 25.3495 39.5 24.9292 39.5 24.412C39.5 23.8947 39.0798 23.4745 38.5625 23.4745C37.0116 23.4745 35.75 22.2129 35.75 20.662C35.75 19.4414 36.5361 18.4105 37.625 18.0222C37.625 17.8447 37.625 15.1422 37.625 14.9745C33.9304 15.4406 31.0625 18.7159 31.0625 22.537Z" fill="#6583FE"/>
<path d="M37.625 20.662C37.625 21.1792 38.0452 21.5995 38.5625 21.5995C40.1134 21.5995 41.375 22.8611 41.375 24.412C41.375 25.6326 40.5889 26.6635 39.5 27.0518V30.037C43.1946 29.5709 46.0625 26.3579 46.0625 22.537C46.0625 18.7159 43.1946 15.4406 39.5 14.9745V18.0222C40.5889 18.4105 41.375 19.4414 41.375 20.662H39.5C39.5 20.1447 39.0798 19.7245 38.5625 19.7245C38.0452 19.7245 37.625 20.1447 37.625 20.662Z" fill="#6583FE"/>
<path d="M24.5 22.537C24.5 26.6791 27.8578 30.037 32 30.037C32.3039 30.037 32.5928 29.9827 32.8873 29.9476C30.6537 28.2324 29.1875 25.564 29.1875 22.537C29.1875 19.5099 30.6537 16.7791 32.8873 15.0639C32.5928 15.0287 32.3039 14.9745 32 14.9745C27.8578 14.9745 24.5 18.3948 24.5 22.537Z" fill="#6583FE"/>
<path d="M26.3247 15.0639C26.0303 15.0287 25.7414 14.9745 25.4375 14.9745C21.2953 14.9745 17.9375 18.3948 17.9375 22.537C17.9375 26.6791 21.2953 30.037 25.4375 30.037C25.7414 30.037 26.0303 29.9827 26.3247 29.9476C24.0912 28.2324 22.625 25.564 22.625 22.537C22.625 19.5099 24.0912 16.7791 26.3247 15.0639Z" fill="#6583FE"/>
<path d="M16 33.787H19.75V45.037H16V33.787Z" fill="#6583FE"/>
<path d="M44.7304 38.581L35.5624 43.1656L29.0374 40.657L29.7094 38.9065L35.4635 41.1185L35.775 40.3815C36.3881 38.931 35.691 37.26 34.229 36.6751L28.1481 34.2425C26.459 33.5668 24.4992 33.6456 22.872 34.4589L21.625 35.0822V42.8595L29.8851 46.2008C31.7546 46.9488 33.7679 47.159 35.8087 46.8112C36.8962 46.6258 37.9409 46.231 38.9276 45.7377L48 41.1698L47.9999 40.5556C47.9945 38.9114 46.201 37.8456 44.7304 38.581Z" fill="#849CFE"/>
</g>
<defs>
<clipPath id="clip0">
<rect width="32" height="32" fill="white" transform="translate(16 14.9744)"/>
</clipPath>
</defs>
</svg>
